<?xml version="1.0" encoding="utf-8" standalone="no"?>
<!DOCTYPE svg PUBLIC "-//W3C//DTD SVG 1.1//EN"
  "http://www.w3.org/Graphics/SVG/1.1/DTD/svg11.dtd">
<!-- Created with matplotlib (http://matplotlib.org/) -->
<svg height="432pt" version="1.1" viewBox="0 0 576 432" width="576pt" xmlns="http://www.w3.org/2000/svg" xmlns:xlink="http://www.w3.org/1999/xlink">
 <defs>
  <style type="text/css">
*{stroke-linecap:butt;stroke-linejoin:round;stroke-miterlimit:100000;}
  </style>
 </defs>
 <g id="figure_1">
  <g id="patch_1">
   <path d="M 0 432 
L 576 432 
L 576 0 
L 0 0 
z
" style="fill:#ffffff;"/>
  </g>
  <g id="axes_1">
   <g id="patch_2">
    <path d="M 72 388.8 
L 518.4 388.8 
L 518.4 43.2 
L 72 43.2 
z
" style="fill:#ffffff;"/>
   </g>
   <g id="line2d_1">
    <path clip-path="url(#pd9526aed5a)" d="M 393.29311 109.732926 
L 393.754569 106.551362 
L 394.147818 103.494905 
L 394.729681 97.757318 
L 395.038701 92.520163 
L 395.074877 87.783442 
L 394.838209 83.547154 
L 394.328698 79.811299 
L 393.546342 76.575877 
L 392.491142 73.840888 
L 391.861225 72.661056 
L 391.163098 71.606333 
L 390.396759 70.676718 
L 389.56221 69.872211 
L 388.65945 69.192812 
L 387.688478 68.638522 
L 386.649296 68.20934 
L 385.541902 67.905266 
L 384.366298 67.7263 
L 383.122483 67.672443 
L 381.810456 67.743694 
L 380.430219 67.940054 
L 377.465111 68.708097 
L 374.227159 69.976574 
L 370.716364 71.745484 
L 366.932724 74.014828 
L 362.87624 76.784604 
L 358.546913 80.054814 
L 349.190063 87.445351 
L 344.323801 90.693047 
L 339.349534 93.549188 
L 334.26726 96.013775 
L 329.076981 98.086807 
L 323.778695 99.768284 
L 318.372403 101.058206 
L 312.858106 101.956573 
L 307.235802 102.463385 
L 301.505492 102.578643 
L 295.667176 102.302346 
L 289.720854 101.634493 
L 283.666526 100.575086 
L 277.504191 99.124125 
L 271.233851 97.281608 
L 264.855505 95.047536 
L 258.369153 92.42191 
L 251.774794 89.404729 
L 245.07243 85.995993 
L 238.262059 82.195702 
L 224.708761 74.248843 
L 218.322075 70.856136 
L 212.21749 67.897395 
L 206.395004 65.372621 
L 200.854618 63.281813 
L 195.596333 61.624971 
L 190.620147 60.402095 
L 185.926061 59.613185 
L 181.514075 59.258242 
L 177.384189 59.337265 
L 175.425034 59.539513 
L 173.536403 59.850253 
L 171.718298 60.269485 
L 169.970717 60.797209 
L 168.293662 61.433423 
L 166.687131 62.17813 
L 165.151126 63.031328 
L 163.685645 63.993017 
L 162.290689 65.063199 
L 160.966259 66.241871 
L 159.712353 67.529035 
L 158.528973 68.924691 
L 157.416117 70.428838 
L 156.373786 72.041477 
L 155.401981 73.762608 
L 154.5007 75.59223 
L 152.909714 79.576948 
L 151.600827 83.995633 
L 150.017446 91.134307 
L 147.639367 102.86366 
L 145.552913 114.312319 
L 143.758084 125.480283 
L 142.254881 136.367552 
L 141.043302 146.974127 
L 140.123348 157.300008 
L 139.495019 167.345194 
L 139.156214 177.11218 
L 138.821913 196.43532 
L 138.708637 215.758461 
L 138.816387 235.081601 
L 139.145163 254.404741 
L 139.471258 264.159915 
L 140.085006 274.191067 
L 140.990378 284.502912 
L 142.187376 295.095453 
L 143.675998 305.968687 
L 145.456246 317.122617 
L 147.528118 328.557241 
L 149.891616 340.272559 
L 151.457052 347.421518 
L 152.730676 351.894449 
L 154.286399 355.933413 
L 156.124223 359.538411 
L 157.148923 361.178173 
L 158.244147 362.709443 
L 159.409896 364.132222 
L 160.646171 365.446509 
L 161.95297 366.652304 
L 163.330294 367.749608 
L 164.778144 368.738421 
L 166.296518 369.618742 
L 167.885417 370.390571 
L 169.544842 371.053909 
L 171.274791 371.608755 
L 173.075265 372.05511 
L 174.946264 372.392973 
L 176.887789 372.622344 
L 178.899838 372.743224 
L 183.135511 372.65951 
L 187.653285 372.141829 
L 192.453158 371.190182 
L 197.535131 369.804569 
L 202.899204 367.98499 
L 208.545377 365.731444 
L 214.473651 363.043932 
L 220.684024 359.922454 
L 227.176497 356.36701 
L 233.95107 352.3776 
L 240.828605 348.333304 
L 247.598473 344.679846 
L 254.260336 341.417943 
L 260.814192 338.547595 
L 267.260042 336.068801 
L 273.597886 333.981563 
L 279.827724 332.285879 
L 285.949556 330.981751 
L 291.963381 330.069177 
L 297.869201 329.548158 
L 303.667015 329.418693 
L 309.356823 329.680784 
L 314.938624 330.334429 
L 320.41242 331.37963 
L 325.778209 332.816385 
L 331.035993 334.644695 
L 336.18577 336.86456 
L 341.227541 339.475979 
L 346.161306 342.478954 
L 350.987066 345.873483 
L 355.702529 349.647179 
L 360.202384 353.230159 
L 364.429396 356.312706 
L 368.383563 358.894821 
L 372.064886 360.976501 
L 375.473365 362.557749 
L 378.609 363.638563 
L 381.471792 364.218945 
L 382.800871 364.321473 
L 384.061739 364.298893 
L 385.254396 364.151204 
L 386.378842 363.878408 
L 387.435077 363.480503 
L 388.423102 362.957489 
L 389.342915 362.309368 
L 390.194517 361.536138 
L 390.977908 360.6378 
L 391.693088 359.614353 
L 392.340057 358.465799 
L 392.918816 357.192135 
L 393.871699 354.269484 
L 394.551738 350.8464 
L 394.958934 346.922883 
L 395.093285 342.498932 
L 394.954793 337.574548 
L 394.543456 332.149732 
L 393.859276 326.224481 
L 392.158729 313.55586 
L 391.620671 307.484374 
L 391.324251 301.635156 
L 391.269468 296.008206 
L 391.456324 290.603523 
L 391.884818 285.421108 
L 392.55495 280.46096 
L 393.46672 275.72308 
L 394.620128 271.207468 
L 396.015174 266.914124 
L 397.651859 262.843047 
L 399.530181 258.994237 
L 401.650142 255.367696 
L 404.011741 251.963422 
L 406.614977 248.781415 
L 409.459852 245.821676 
L 412.546365 243.084205 
L 415.874516 240.569002 
L 419.444305 238.276066 
L 423.255733 236.205398 
L 429.056507 233.385719 
L 432.475202 231.518796 
L 435.50596 229.651874 
L 438.148781 227.784951 
L 440.403665 225.918028 
L 442.270612 224.051105 
L 443.749622 222.184182 
L 444.840695 220.317259 
L 445.543831 218.450336 
L 445.85903 216.583413 
L 445.786292 214.716491 
L 445.325616 212.849568 
L 444.477004 210.982645 
L 443.240455 209.115722 
L 441.615968 207.248799 
L 439.603545 205.381876 
L 437.203185 203.514953 
L 434.414887 201.64803 
L 431.238652 199.781107 
L 427.674481 197.914185 
L 421.79813 195.044149 
L 418.077317 192.89013 
L 414.598143 190.513844 
L 411.360606 187.91529 
L 408.364707 185.094469 
L 405.610447 182.051379 
L 403.097824 178.786023 
L 400.82684 175.298398 
L 398.797493 171.588506 
L 397.009785 167.656347 
L 395.463715 163.501919 
L 394.159283 159.125224 
L 393.096489 154.526262 
L 392.275333 149.705031 
L 391.695816 144.661534 
L 391.357936 139.395768 
L 391.261695 133.907735 
L 391.407091 128.197434 
L 391.794126 122.264866 
L 392.422799 116.11003 
L 393.29311 109.732926 
L 393.29311 109.732926 
" style="fill:none;stroke:#0000ff;stroke-linecap:square;"/>
   </g>
   <g id="patch_3">
    <path d="M 72 43.2 
L 518.4 43.2 
" style="fill:none;stroke:#000000;stroke-linecap:square;stroke-linejoin:miter;"/>
   </g>
   <g id="patch_4">
    <path d="M 518.4 388.8 
L 518.4 43.2 
" style="fill:none;stroke:#000000;stroke-linecap:square;stroke-linejoin:miter;"/>
   </g>
   <g id="patch_5">
    <path d="M 72 388.8 
L 518.4 388.8 
" style="fill:none;stroke:#000000;stroke-linecap:square;stroke-linejoin:miter;"/>
   </g>
   <g id="patch_6">
    <path d="M 72 388.8 
L 72 43.2 
" style="fill:none;stroke:#000000;stroke-linecap:square;stroke-linejoin:miter;"/>
   </g>
   <g id="matplotlib.axis_1">
    <g id="xtick_1">
     <g id="line2d_2">
      <defs>
       <path d="M 0 0 
L 0 -4 
" id="ma211082509" style="stroke:#000000;stroke-width:0.5;"/>
      </defs>
      <g>
       <use style="stroke:#000000;stroke-width:0.5;" x="72.0" xlink:href="#ma211082509" y="388.8"/>
      </g>
     </g>
     <g id="line2d_3">
      <defs>
       <path d="M 0 0 
L 0 4 
" id="m305311d492" style="stroke:#000000;stroke-width:0.5;"/>
      </defs>
      <g>
       <use style="stroke:#000000;stroke-width:0.5;" x="72.0" xlink:href="#m305311d492" y="43.2"/>
      </g>
     </g>
     <g id="text_1">
      <!-- −15 -->
      <defs>
       <path d="M 10.59375 35.5 
L 73.1875 35.5 
L 73.1875 27.203125 
L 10.59375 27.203125 
z
" id="BitstreamVeraSans-Roman-2212"/>
       <path d="M 12.40625 8.296875 
L 28.515625 8.296875 
L 28.515625 63.921875 
L 10.984375 60.40625 
L 10.984375 69.390625 
L 28.421875 72.90625 
L 38.28125 72.90625 
L 38.28125 8.296875 
L 54.390625 8.296875 
L 54.390625 0 
L 12.40625 0 
z
" id="BitstreamVeraSans-Roman-31"/>
       <path d="M 10.796875 72.90625 
L 49.515625 72.90625 
L 49.515625 64.59375 
L 19.828125 64.59375 
L 19.828125 46.734375 
Q 21.96875 47.46875 24.109375 47.828125 
Q 26.265625 48.1875 28.421875 48.1875 
Q 40.625 48.1875 47.75 41.5 
Q 54.890625 34.8125 54.890625 23.390625 
Q 54.890625 11.625 47.5625 5.09375 
Q 40.234375 -1.421875 26.90625 -1.421875 
Q 22.3125 -1.421875 17.546875 -0.640625 
Q 12.796875 0.140625 7.71875 1.703125 
L 7.71875 11.625 
Q 12.109375 9.234375 16.796875 8.0625 
Q 21.484375 6.890625 26.703125 6.890625 
Q 35.15625 6.890625 40.078125 11.328125 
Q 45.015625 15.765625 45.015625 23.390625 
Q 45.015625 31 40.078125 35.4375 
Q 35.15625 39.890625 26.703125 39.890625 
Q 22.75 39.890625 18.8125 39.015625 
Q 14.890625 38.140625 10.796875 36.28125 
z
" id="BitstreamVeraSans-Roman-35"/>
      </defs>
      <g transform="translate(59.3371875 401.918125)scale(0.12 -0.12)">
       <use xlink:href="#BitstreamVeraSans-Roman-2212"/>
       <use x="83.7890625" xlink:href="#BitstreamVeraSans-Roman-31"/>
       <use x="147.412109375" xlink:href="#BitstreamVeraSans-Roman-35"/>
      </g>
     </g>
    </g>
    <g id="xtick_2">
     <g id="line2d_4">
      <g>
       <use style="stroke:#000000;stroke-width:0.5;" x="146.4" xlink:href="#ma211082509" y="388.8"/>
      </g>
     </g>
     <g id="line2d_5">
      <g>
       <use style="stroke:#000000;stroke-width:0.5;" x="146.4" xlink:href="#m305311d492" y="43.2"/>
      </g>
     </g>
     <g id="text_2">
      <!-- −10 -->
      <defs>
       <path d="M 31.78125 66.40625 
Q 24.171875 66.40625 20.328125 58.90625 
Q 16.5 51.421875 16.5 36.375 
Q 16.5 21.390625 20.328125 13.890625 
Q 24.171875 6.390625 31.78125 6.390625 
Q 39.453125 6.390625 43.28125 13.890625 
Q 47.125 21.390625 47.125 36.375 
Q 47.125 51.421875 43.28125 58.90625 
Q 39.453125 66.40625 31.78125 66.40625 
M 31.78125 74.21875 
Q 44.046875 74.21875 50.515625 64.515625 
Q 56.984375 54.828125 56.984375 36.375 
Q 56.984375 17.96875 50.515625 8.265625 
Q 44.046875 -1.421875 31.78125 -1.421875 
Q 19.53125 -1.421875 13.0625 8.265625 
Q 6.59375 17.96875 6.59375 36.375 
Q 6.59375 54.828125 13.0625 64.515625 
Q 19.53125 74.21875 31.78125 74.21875 
" id="BitstreamVeraSans-Roman-30"/>
      </defs>
      <g transform="translate(133.7371875 401.918125)scale(0.12 -0.12)">
       <use xlink:href="#BitstreamVeraSans-Roman-2212"/>
       <use x="83.7890625" xlink:href="#BitstreamVeraSans-Roman-31"/>
       <use x="147.412109375" xlink:href="#BitstreamVeraSans-Roman-30"/>
      </g>
     </g>
    </g>
    <g id="xtick_3">
     <g id="line2d_6">
      <g>
       <use style="stroke:#000000;stroke-width:0.5;" x="220.8" xlink:href="#ma211082509" y="388.8"/>
      </g>
     </g>
     <g id="line2d_7">
      <g>
       <use style="stroke:#000000;stroke-width:0.5;" x="220.8" xlink:href="#m305311d492" y="43.2"/>
      </g>
     </g>
     <g id="text_3">
      <!-- −5 -->
      <g transform="translate(211.9546875 401.918125)scale(0.12 -0.12)">
       <use xlink:href="#BitstreamVeraSans-Roman-2212"/>
       <use x="83.7890625" xlink:href="#BitstreamVeraSans-Roman-35"/>
      </g>
     </g>
    </g>
    <g id="xtick_4">
     <g id="line2d_8">
      <g>
       <use style="stroke:#000000;stroke-width:0.5;" x="295.2" xlink:href="#ma211082509" y="388.8"/>
      </g>
     </g>
     <g id="line2d_9">
      <g>
       <use style="stroke:#000000;stroke-width:0.5;" x="295.2" xlink:href="#m305311d492" y="43.2"/>
      </g>
     </g>
     <g id="text_4">
      <!-- 0 -->
      <g transform="translate(291.3825 401.918125)scale(0.12 -0.12)">
       <use xlink:href="#BitstreamVeraSans-Roman-30"/>
      </g>
     </g>
    </g>
    <g id="xtick_5">
     <g id="line2d_10">
      <g>
       <use style="stroke:#000000;stroke-width:0.5;" x="369.6" xlink:href="#ma211082509" y="388.8"/>
      </g>
     </g>
     <g id="line2d_11">
      <g>
       <use style="stroke:#000000;stroke-width:0.5;" x="369.6" xlink:href="#m305311d492" y="43.2"/>
      </g>
     </g>
     <g id="text_5">
      <!-- 5 -->
      <g transform="translate(365.7825 401.918125)scale(0.12 -0.12)">
       <use xlink:href="#BitstreamVeraSans-Roman-35"/>
      </g>
     </g>
    </g>
    <g id="xtick_6">
     <g id="line2d_12">
      <g>
       <use style="stroke:#000000;stroke-width:0.5;" x="444.0" xlink:href="#ma211082509" y="388.8"/>
      </g>
     </g>
     <g id="line2d_13">
      <g>
       <use style="stroke:#000000;stroke-width:0.5;" x="444.0" xlink:href="#m305311d492" y="43.2"/>
      </g>
     </g>
     <g id="text_6">
      <!-- 10 -->
      <g transform="translate(436.365 401.918125)scale(0.12 -0.12)">
       <use xlink:href="#BitstreamVeraSans-Roman-31"/>
       <use x="63.623046875" xlink:href="#BitstreamVeraSans-Roman-30"/>
      </g>
     </g>
    </g>
    <g id="xtick_7">
     <g id="line2d_14">
      <g>
       <use style="stroke:#000000;stroke-width:0.5;" x="518.4" xlink:href="#ma211082509" y="388.8"/>
      </g>
     </g>
     <g id="line2d_15">
      <g>
       <use style="stroke:#000000;stroke-width:0.5;" x="518.4" xlink:href="#m305311d492" y="43.2"/>
      </g>
     </g>
     <g id="text_7">
      <!-- 15 -->
      <g transform="translate(510.765 401.918125)scale(0.12 -0.12)">
       <use xlink:href="#BitstreamVeraSans-Roman-31"/>
       <use x="63.623046875" xlink:href="#BitstreamVeraSans-Roman-35"/>
      </g>
     </g>
    </g>
   </g>
   <g id="matplotlib.axis_2">
    <g id="ytick_1">
     <g id="line2d_16">
      <defs>
       <path d="M 0 0 
L 4 0 
" id="mc914fbf8a0" style="stroke:#000000;stroke-width:0.5;"/>
      </defs>
      <g>
       <use style="stroke:#000000;stroke-width:0.5;" x="72.0" xlink:href="#mc914fbf8a0" y="388.8"/>
      </g>
     </g>
     <g id="line2d_17">
      <defs>
       <path d="M 0 0 
L -4 0 
" id="m18ca1511b9" style="stroke:#000000;stroke-width:0.5;"/>
      </defs>
      <g>
       <use style="stroke:#000000;stroke-width:0.5;" x="518.4" xlink:href="#m18ca1511b9" y="388.8"/>
      </g>
     </g>
     <g id="text_8">
      <!-- −10 -->
      <g transform="translate(42.674375 392.11125)scale(0.12 -0.12)">
       <use xlink:href="#BitstreamVeraSans-Roman-2212"/>
       <use x="83.7890625" xlink:href="#BitstreamVeraSans-Roman-31"/>
       <use x="147.412109375" xlink:href="#BitstreamVeraSans-Roman-30"/>
      </g>
     </g>
    </g>
    <g id="ytick_2">
     <g id="line2d_18">
      <g>
       <use style="stroke:#000000;stroke-width:0.5;" x="72.0" xlink:href="#mc914fbf8a0" y="302.4"/>
      </g>
     </g>
     <g id="line2d_19">
      <g>
       <use style="stroke:#000000;stroke-width:0.5;" x="518.4" xlink:href="#m18ca1511b9" y="302.4"/>
      </g>
     </g>
     <g id="text_9">
      <!-- −5 -->
      <g transform="translate(50.309375 305.71125)scale(0.12 -0.12)">
       <use xlink:href="#BitstreamVeraSans-Roman-2212"/>
       <use x="83.7890625" xlink:href="#BitstreamVeraSans-Roman-35"/>
      </g>
     </g>
    </g>
    <g id="ytick_3">
     <g id="line2d_20">
      <g>
       <use style="stroke:#000000;stroke-width:0.5;" x="72.0" xlink:href="#mc914fbf8a0" y="216.0"/>
      </g>
     </g>
     <g id="line2d_21">
      <g>
       <use style="stroke:#000000;stroke-width:0.5;" x="518.4" xlink:href="#m18ca1511b9" y="216.0"/>
      </g>
     </g>
     <g id="text_10">
      <!-- 0 -->
      <g transform="translate(60.365 219.31125)scale(0.12 -0.12)">
       <use xlink:href="#BitstreamVeraSans-Roman-30"/>
      </g>
     </g>
    </g>
    <g id="ytick_4">
     <g id="line2d_22">
      <g>
       <use style="stroke:#000000;stroke-width:0.5;" x="72.0" xlink:href="#mc914fbf8a0" y="129.6"/>
      </g>
     </g>
     <g id="line2d_23">
      <g>
       <use style="stroke:#000000;stroke-width:0.5;" x="518.4" xlink:href="#m18ca1511b9" y="129.6"/>
      </g>
     </g>
     <g id="text_11">
      <!-- 5 -->
      <g transform="translate(60.365 132.91125)scale(0.12 -0.12)">
       <use xlink:href="#BitstreamVeraSans-Roman-35"/>
      </g>
     </g>
    </g>
    <g id="ytick_5">
     <g id="line2d_24">
      <g>
       <use style="stroke:#000000;stroke-width:0.5;" x="72.0" xlink:href="#mc914fbf8a0" y="43.2"/>
      </g>
     </g>
     <g id="line2d_25">
      <g>
       <use style="stroke:#000000;stroke-width:0.5;" x="518.4" xlink:href="#m18ca1511b9" y="43.2"/>
      </g>
     </g>
     <g id="text_12">
      <!-- 10 -->
      <g transform="translate(52.73 46.51125)scale(0.12 -0.12)">
       <use xlink:href="#BitstreamVeraSans-Roman-31"/>
       <use x="63.623046875" xlink:href="#BitstreamVeraSans-Roman-30"/>
      </g>
     </g>
    </g>
   </g>
  </g>
 </g>
 <defs>
  <clipPath id="pd9526aed5a">
   <rect height="345.6" width="446.4" x="72.0" y="43.2"/>
  </clipPath>
 </defs>
</svg>
