<?xml version="1.0" encoding="utf-8" standalone="no"?>
<!DOCTYPE svg PUBLIC "-//W3C//DTD SVG 1.1//EN"
  "http://www.w3.org/Graphics/SVG/1.1/DTD/svg11.dtd">
<!-- Created with matplotlib (http://matplotlib.org/) -->
<svg height="432pt" version="1.1" viewBox="0 0 576 432" width="576pt" xmlns="http://www.w3.org/2000/svg" xmlns:xlink="http://www.w3.org/1999/xlink">
 <defs>
  <style type="text/css">
*{stroke-linecap:butt;stroke-linejoin:round;stroke-miterlimit:100000;}
  </style>
 </defs>
 <g id="figure_1">
  <g id="patch_1">
   <path d="M 0 432 
L 576 432 
L 576 0 
L 0 0 
z
" style="fill:#ffffff;"/>
  </g>
  <g id="axes_1">
   <g id="patch_2">
    <path d="M 72 388.8 
L 518.4 388.8 
L 518.4 43.2 
L 72 43.2 
z
" style="fill:#ffffff;"/>
   </g>
   <g id="line2d_1">
    <path clip-path="url(#pba5c4a0679)" d="M 476.308119 133.795607 
L 468.754014 130.934563 
L 459.130467 127.524896 
L 444.850549 122.709114 
L 424.424261 116.092209 
L 399.941869 108.400004 
L 366.995333 98.292219 
L 343.866084 91.338575 
L 330.234354 87.527704 
L 317.22636 84.209307 
L 308.900886 82.27064 
L 300.852628 80.55085 
L 293.081587 79.049937 
L 285.587763 77.767902 
L 278.371155 76.704745 
L 271.431764 75.860465 
L 264.76959 75.235063 
L 258.384633 74.828538 
L 252.276892 74.640891 
L 246.446368 74.672121 
L 240.893061 74.922229 
L 235.61697 75.391214 
L 230.618097 76.079077 
L 225.89644 76.985817 
L 221.452 78.111435 
L 217.284776 79.455931 
L 213.394769 81.019304 
L 204.082407 85.113744 
L 194.790995 88.925664 
L 185.519579 92.454147 
L 176.268161 95.699192 
L 167.036741 98.660799 
L 157.825318 101.338968 
L 148.633892 103.7337 
L 139.462464 105.844994 
L 134.01438 107.023501 
L 130.616412 107.995846 
L 127.452937 109.167478 
L 124.523954 110.538397 
L 121.829464 112.108601 
L 119.369467 113.878092 
L 117.143962 115.846869 
L 115.152949 118.014932 
L 113.39643 120.382282 
L 111.874403 122.948917 
L 110.586868 125.714839 
L 109.533827 128.680047 
L 108.715277 131.844542 
L 108.131221 135.208322 
L 107.781657 138.771389 
L 107.666585 142.533742 
L 107.786007 146.495382 
L 108.139921 150.656307 
L 108.728327 155.016519 
L 109.551226 159.576017 
L 110.608618 164.334801 
L 112.322163 171.669496 
L 113.777897 179.006959 
L 114.970943 186.344422 
L 115.9013 193.681884 
L 116.568967 201.019347 
L 116.973946 208.35681 
L 117.116236 215.694272 
L 116.995837 223.031735 
L 116.612749 230.369198 
L 115.966972 237.70666 
L 115.058506 245.044123 
L 113.887351 252.381586 
L 112.453507 259.719049 
L 110.75728 267.056338 
L 109.670576 271.840033 
L 108.818366 276.424442 
L 108.200648 280.809565 
L 107.817422 284.995401 
L 107.668689 288.981951 
L 107.754449 292.769215 
L 108.074701 296.357193 
L 108.629446 299.745884 
L 109.418684 302.935289 
L 110.442414 305.925408 
L 111.700637 308.716241 
L 113.193353 311.307787 
L 114.920561 313.700048 
L 116.882261 315.893022 
L 119.078455 317.886709 
L 121.509141 319.681111 
L 124.174319 321.276226 
L 127.07399 322.672055 
L 130.208154 323.868598 
L 133.57681 324.865855 
L 139.004417 326.056882 
L 148.174846 328.154004 
L 157.365271 330.534563 
L 166.575695 333.198561 
L 175.806115 336.145996 
L 185.056533 339.376869 
L 194.326949 342.89118 
L 203.617362 346.688928 
L 212.927772 350.770114 
L 216.783365 352.360617 
L 220.915936 353.732473 
L 225.325724 354.88545 
L 230.012729 355.81955 
L 234.976951 356.534773 
L 240.218389 357.031118 
L 245.737044 357.308585 
L 251.532916 357.367175 
L 257.606005 357.206888 
L 263.95631 356.827723 
L 270.583832 356.22968 
L 277.488571 355.41276 
L 284.670526 354.376962 
L 292.129699 353.122287 
L 299.866088 351.648734 
L 307.879693 349.956304 
L 316.170516 348.044996 
L 329.126531 344.767639 
L 342.706284 340.997808 
L 356.77459 336.803648 
L 395.143191 325.086757 
L 423.619734 316.163997 
L 444.190882 309.508688 
L 460.705926 303.92868 
L 471.63335 300.001666 
L 477.268362 297.808261 
L 479.656284 296.672495 
L 481.792969 295.421217 
L 483.678417 294.054428 
L 485.312628 292.572127 
L 486.695603 290.974315 
L 487.827341 289.260991 
L 488.707842 287.432156 
L 489.337106 285.487809 
L 489.715134 283.42795 
L 489.841924 281.25258 
L 489.717478 278.961698 
L 489.341795 276.555305 
L 488.714875 274.0334 
L 487.836719 271.395983 
L 486.707326 268.643055 
L 485.326696 265.774615 
L 483.694829 262.790664 
L 481.811725 259.691201 
L 478.516001 254.825423 
L 472.397269 246.283025 
L 470.305616 242.846653 
L 468.46559 239.410282 
L 466.877191 235.97391 
L 465.54042 232.537538 
L 464.455276 229.101167 
L 463.62176 225.664795 
L 463.039872 222.228424 
L 462.70961 218.792052 
L 462.630977 215.35568 
L 462.803971 211.919309 
L 463.228592 208.482937 
L 463.904841 205.046565 
L 464.832717 201.610194 
L 466.012221 198.173822 
L 467.443353 194.737451 
L 469.126112 191.301079 
L 471.060498 187.864707 
L 473.246512 184.428336 
L 475.684154 180.991964 
L 479.392927 175.933767 
L 482.547331 171.132964 
L 484.336221 168.076818 
L 485.873874 165.136183 
L 487.16029 162.31106 
L 488.195469 159.601449 
L 488.979412 157.007349 
L 489.512118 154.528761 
L 489.793587 152.165685 
L 489.823819 149.91812 
L 489.602815 147.786066 
L 489.130574 145.769525 
L 488.407096 143.868494 
L 487.432381 142.082976 
L 486.206429 140.412969 
L 484.729241 138.858473 
L 483.000816 137.419489 
L 481.021154 136.096017 
L 478.790255 134.888056 
L 476.308119 133.795607 
L 476.308119 133.795607 
" style="fill:none;stroke:#0000ff;stroke-linecap:square;"/>
   </g>
   <g id="patch_3">
    <path d="M 72 43.2 
L 518.4 43.2 
" style="fill:none;stroke:#000000;stroke-linecap:square;stroke-linejoin:miter;"/>
   </g>
   <g id="patch_4">
    <path d="M 518.4 388.8 
L 518.4 43.2 
" style="fill:none;stroke:#000000;stroke-linecap:square;stroke-linejoin:miter;"/>
   </g>
   <g id="patch_5">
    <path d="M 72 388.8 
L 518.4 388.8 
" style="fill:none;stroke:#000000;stroke-linecap:square;stroke-linejoin:miter;"/>
   </g>
   <g id="patch_6">
    <path d="M 72 388.8 
L 72 43.2 
" style="fill:none;stroke:#000000;stroke-linecap:square;stroke-linejoin:miter;"/>
   </g>
   <g id="matplotlib.axis_1">
    <g id="xtick_1">
     <g id="line2d_2">
      <defs>
       <path d="M 0 0 
L 0 -4 
" id="m71b0f16adc" style="stroke:#000000;stroke-width:0.5;"/>
      </defs>
      <g>
       <use style="stroke:#000000;stroke-width:0.5;" x="72.0" xlink:href="#m71b0f16adc" y="388.8"/>
      </g>
     </g>
     <g id="line2d_3">
      <defs>
       <path d="M 0 0 
L 0 4 
" id="m26904dd423" style="stroke:#000000;stroke-width:0.5;"/>
      </defs>
      <g>
       <use style="stroke:#000000;stroke-width:0.5;" x="72.0" xlink:href="#m26904dd423" y="43.2"/>
      </g>
     </g>
     <g id="text_1">
      <!-- −10 -->
      <defs>
       <path d="M 10.59375 35.5 
L 73.1875 35.5 
L 73.1875 27.203125 
L 10.59375 27.203125 
z
" id="BitstreamVeraSans-Roman-2212"/>
       <path d="M 31.78125 66.40625 
Q 24.171875 66.40625 20.328125 58.90625 
Q 16.5 51.421875 16.5 36.375 
Q 16.5 21.390625 20.328125 13.890625 
Q 24.171875 6.390625 31.78125 6.390625 
Q 39.453125 6.390625 43.28125 13.890625 
Q 47.125 21.390625 47.125 36.375 
Q 47.125 51.421875 43.28125 58.90625 
Q 39.453125 66.40625 31.78125 66.40625 
M 31.78125 74.21875 
Q 44.046875 74.21875 50.515625 64.515625 
Q 56.984375 54.828125 56.984375 36.375 
Q 56.984375 17.96875 50.515625 8.265625 
Q 44.046875 -1.421875 31.78125 -1.421875 
Q 19.53125 -1.421875 13.0625 8.265625 
Q 6.59375 17.96875 6.59375 36.375 
Q 6.59375 54.828125 13.0625 64.515625 
Q 19.53125 74.21875 31.78125 74.21875 
" id="BitstreamVeraSans-Roman-30"/>
       <path d="M 12.40625 8.296875 
L 28.515625 8.296875 
L 28.515625 63.921875 
L 10.984375 60.40625 
L 10.984375 69.390625 
L 28.421875 72.90625 
L 38.28125 72.90625 
L 38.28125 8.296875 
L 54.390625 8.296875 
L 54.390625 0 
L 12.40625 0 
z
" id="BitstreamVeraSans-Roman-31"/>
      </defs>
      <g transform="translate(59.3371875 401.918125)scale(0.12 -0.12)">
       <use xlink:href="#BitstreamVeraSans-Roman-2212"/>
       <use x="83.7890625" xlink:href="#BitstreamVeraSans-Roman-31"/>
       <use x="147.412109375" xlink:href="#BitstreamVeraSans-Roman-30"/>
      </g>
     </g>
    </g>
    <g id="xtick_2">
     <g id="line2d_4">
      <g>
       <use style="stroke:#000000;stroke-width:0.5;" x="183.6" xlink:href="#m71b0f16adc" y="388.8"/>
      </g>
     </g>
     <g id="line2d_5">
      <g>
       <use style="stroke:#000000;stroke-width:0.5;" x="183.6" xlink:href="#m26904dd423" y="43.2"/>
      </g>
     </g>
     <g id="text_2">
      <!-- −5 -->
      <defs>
       <path d="M 10.796875 72.90625 
L 49.515625 72.90625 
L 49.515625 64.59375 
L 19.828125 64.59375 
L 19.828125 46.734375 
Q 21.96875 47.46875 24.109375 47.828125 
Q 26.265625 48.1875 28.421875 48.1875 
Q 40.625 48.1875 47.75 41.5 
Q 54.890625 34.8125 54.890625 23.390625 
Q 54.890625 11.625 47.5625 5.09375 
Q 40.234375 -1.421875 26.90625 -1.421875 
Q 22.3125 -1.421875 17.546875 -0.640625 
Q 12.796875 0.140625 7.71875 1.703125 
L 7.71875 11.625 
Q 12.109375 9.234375 16.796875 8.0625 
Q 21.484375 6.890625 26.703125 6.890625 
Q 35.15625 6.890625 40.078125 11.328125 
Q 45.015625 15.765625 45.015625 23.390625 
Q 45.015625 31 40.078125 35.4375 
Q 35.15625 39.890625 26.703125 39.890625 
Q 22.75 39.890625 18.8125 39.015625 
Q 14.890625 38.140625 10.796875 36.28125 
z
" id="BitstreamVeraSans-Roman-35"/>
      </defs>
      <g transform="translate(174.7546875 401.918125)scale(0.12 -0.12)">
       <use xlink:href="#BitstreamVeraSans-Roman-2212"/>
       <use x="83.7890625" xlink:href="#BitstreamVeraSans-Roman-35"/>
      </g>
     </g>
    </g>
    <g id="xtick_3">
     <g id="line2d_6">
      <g>
       <use style="stroke:#000000;stroke-width:0.5;" x="295.2" xlink:href="#m71b0f16adc" y="388.8"/>
      </g>
     </g>
     <g id="line2d_7">
      <g>
       <use style="stroke:#000000;stroke-width:0.5;" x="295.2" xlink:href="#m26904dd423" y="43.2"/>
      </g>
     </g>
     <g id="text_3">
      <!-- 0 -->
      <g transform="translate(291.3825 401.918125)scale(0.12 -0.12)">
       <use xlink:href="#BitstreamVeraSans-Roman-30"/>
      </g>
     </g>
    </g>
    <g id="xtick_4">
     <g id="line2d_8">
      <g>
       <use style="stroke:#000000;stroke-width:0.5;" x="406.8" xlink:href="#m71b0f16adc" y="388.8"/>
      </g>
     </g>
     <g id="line2d_9">
      <g>
       <use style="stroke:#000000;stroke-width:0.5;" x="406.8" xlink:href="#m26904dd423" y="43.2"/>
      </g>
     </g>
     <g id="text_4">
      <!-- 5 -->
      <g transform="translate(402.9825 401.918125)scale(0.12 -0.12)">
       <use xlink:href="#BitstreamVeraSans-Roman-35"/>
      </g>
     </g>
    </g>
    <g id="xtick_5">
     <g id="line2d_10">
      <g>
       <use style="stroke:#000000;stroke-width:0.5;" x="518.4" xlink:href="#m71b0f16adc" y="388.8"/>
      </g>
     </g>
     <g id="line2d_11">
      <g>
       <use style="stroke:#000000;stroke-width:0.5;" x="518.4" xlink:href="#m26904dd423" y="43.2"/>
      </g>
     </g>
     <g id="text_5">
      <!-- 10 -->
      <g transform="translate(510.765 401.918125)scale(0.12 -0.12)">
       <use xlink:href="#BitstreamVeraSans-Roman-31"/>
       <use x="63.623046875" xlink:href="#BitstreamVeraSans-Roman-30"/>
      </g>
     </g>
    </g>
   </g>
   <g id="matplotlib.axis_2">
    <g id="ytick_1">
     <g id="line2d_12">
      <defs>
       <path d="M 0 0 
L 4 0 
" id="m0b58cdcefc" style="stroke:#000000;stroke-width:0.5;"/>
      </defs>
      <g>
       <use style="stroke:#000000;stroke-width:0.5;" x="72.0" xlink:href="#m0b58cdcefc" y="388.8"/>
      </g>
     </g>
     <g id="line2d_13">
      <defs>
       <path d="M 0 0 
L -4 0 
" id="m21f683e4b2" style="stroke:#000000;stroke-width:0.5;"/>
      </defs>
      <g>
       <use style="stroke:#000000;stroke-width:0.5;" x="518.4" xlink:href="#m21f683e4b2" y="388.8"/>
      </g>
     </g>
     <g id="text_6">
      <!-- −10 -->
      <g transform="translate(42.674375 392.11125)scale(0.12 -0.12)">
       <use xlink:href="#BitstreamVeraSans-Roman-2212"/>
       <use x="83.7890625" xlink:href="#BitstreamVeraSans-Roman-31"/>
       <use x="147.412109375" xlink:href="#BitstreamVeraSans-Roman-30"/>
      </g>
     </g>
    </g>
    <g id="ytick_2">
     <g id="line2d_14">
      <g>
       <use style="stroke:#000000;stroke-width:0.5;" x="72.0" xlink:href="#m0b58cdcefc" y="302.4"/>
      </g>
     </g>
     <g id="line2d_15">
      <g>
       <use style="stroke:#000000;stroke-width:0.5;" x="518.4" xlink:href="#m21f683e4b2" y="302.4"/>
      </g>
     </g>
     <g id="text_7">
      <!-- −5 -->
      <g transform="translate(50.309375 305.71125)scale(0.12 -0.12)">
       <use xlink:href="#BitstreamVeraSans-Roman-2212"/>
       <use x="83.7890625" xlink:href="#BitstreamVeraSans-Roman-35"/>
      </g>
     </g>
    </g>
    <g id="ytick_3">
     <g id="line2d_16">
      <g>
       <use style="stroke:#000000;stroke-width:0.5;" x="72.0" xlink:href="#m0b58cdcefc" y="216.0"/>
      </g>
     </g>
     <g id="line2d_17">
      <g>
       <use style="stroke:#000000;stroke-width:0.5;" x="518.4" xlink:href="#m21f683e4b2" y="216.0"/>
      </g>
     </g>
     <g id="text_8">
      <!-- 0 -->
      <g transform="translate(60.365 219.31125)scale(0.12 -0.12)">
       <use xlink:href="#BitstreamVeraSans-Roman-30"/>
      </g>
     </g>
    </g>
    <g id="ytick_4">
     <g id="line2d_18">
      <g>
       <use style="stroke:#000000;stroke-width:0.5;" x="72.0" xlink:href="#m0b58cdcefc" y="129.6"/>
      </g>
     </g>
     <g id="line2d_19">
      <g>
       <use style="stroke:#000000;stroke-width:0.5;" x="518.4" xlink:href="#m21f683e4b2" y="129.6"/>
      </g>
     </g>
     <g id="text_9">
      <!-- 5 -->
      <g transform="translate(60.365 132.91125)scale(0.12 -0.12)">
       <use xlink:href="#BitstreamVeraSans-Roman-35"/>
      </g>
     </g>
    </g>
    <g id="ytick_5">
     <g id="line2d_20">
      <g>
       <use style="stroke:#000000;stroke-width:0.5;" x="72.0" xlink:href="#m0b58cdcefc" y="43.2"/>
      </g>
     </g>
     <g id="line2d_21">
      <g>
       <use style="stroke:#000000;stroke-width:0.5;" x="518.4" xlink:href="#m21f683e4b2" y="43.2"/>
      </g>
     </g>
     <g id="text_10">
      <!-- 10 -->
      <g transform="translate(52.73 46.51125)scale(0.12 -0.12)">
       <use xlink:href="#BitstreamVeraSans-Roman-31"/>
       <use x="63.623046875" xlink:href="#BitstreamVeraSans-Roman-30"/>
      </g>
     </g>
    </g>
   </g>
  </g>
 </g>
 <defs>
  <clipPath id="pba5c4a0679">
   <rect height="345.6" width="446.4" x="72.0" y="43.2"/>
  </clipPath>
 </defs>
</svg>
