<?xml version="1.0" encoding="utf-8" standalone="no"?>
<!DOCTYPE svg PUBLIC "-//W3C//DTD SVG 1.1//EN"
  "http://www.w3.org/Graphics/SVG/1.1/DTD/svg11.dtd">
<!-- Created with matplotlib (http://matplotlib.org/) -->
<svg height="432pt" version="1.1" viewBox="0 0 576 432" width="576pt" xmlns="http://www.w3.org/2000/svg" xmlns:xlink="http://www.w3.org/1999/xlink">
 <defs>
  <style type="text/css">
*{stroke-linecap:butt;stroke-linejoin:round;stroke-miterlimit:100000;}
  </style>
 </defs>
 <g id="figure_1">
  <g id="patch_1">
   <path d="M 0 432 
L 576 432 
L 576 0 
L 0 0 
z
" style="fill:#ffffff;"/>
  </g>
  <g id="axes_1">
   <g id="patch_2">
    <path d="M 72 388.8 
L 518.4 388.8 
L 518.4 43.2 
L 72 43.2 
z
" style="fill:#ffffff;"/>
   </g>
   <g id="line2d_1">
    <path clip-path="url(#p2eb5403e48)" d="M 404.462939 116.816221 
L 402.45939 116.899974 
L 400.460356 116.946037 
L 396.475832 116.925092 
L 392.509365 116.753387 
L 388.560956 116.430921 
L 384.630606 115.957694 
L 380.718313 115.333707 
L 376.824078 114.558959 
L 372.947901 113.63345 
L 369.089781 112.557181 
L 365.24972 111.330151 
L 361.427717 109.95236 
L 355.72857 107.602998 
L 350.070054 104.914425 
L 344.452169 101.88664 
L 338.874913 98.519643 
L 333.338288 94.813435 
L 327.842293 90.768015 
L 320.52084 85.155138 
L 316.782936 82.690548 
L 312.985475 80.498024 
L 309.128454 78.577566 
L 305.211875 76.929174 
L 301.235737 75.552847 
L 297.200041 74.448586 
L 293.104786 73.616391 
L 288.949972 73.056262 
L 284.7356 72.768198 
L 280.461669 72.752201 
L 276.128179 73.008269 
L 271.735131 73.536403 
L 267.282524 74.336603 
L 262.770358 75.408868 
L 258.198634 76.7532 
L 253.567352 78.369597 
L 248.87651 80.25806 
L 244.12611 82.418589 
L 239.316152 84.851184 
L 232.123037 88.872355 
L 225.456773 92.823285 
L 219.371419 96.648154 
L 213.866977 100.346961 
L 208.943446 103.919706 
L 204.600826 107.366389 
L 200.839116 110.687011 
L 197.658318 113.881571 
L 195.860514 115.941243 
L 194.320893 117.944888 
L 193.039454 119.892505 
L 192.016198 121.784095 
L 191.251125 123.619658 
L 190.744234 125.399193 
L 190.495526 127.122701 
L 190.505 128.790181 
L 190.772658 130.401633 
L 191.197356 131.984393 
L 191.398801 133.641238 
L 191.340584 135.382007 
L 191.022702 137.206702 
L 190.445158 139.115322 
L 189.60795 141.107867 
L 188.511078 143.184337 
L 187.154543 145.344732 
L 185.538345 147.589052 
L 183.662483 149.917297 
L 180.361821 153.567025 
L 176.476916 157.405584 
L 172.007769 161.432975 
L 166.954379 165.649197 
L 161.316746 170.05425 
L 155.094871 174.648135 
L 148.288752 179.430852 
L 141.152389 184.373259 
L 136.876253 187.680631 
L 133.071966 190.988002 
L 129.739529 194.295374 
L 126.878942 197.602746 
L 124.490204 200.910117 
L 122.573315 204.217489 
L 121.128276 207.52486 
L 120.5827 209.178546 
L 120.155086 210.832232 
L 119.845435 212.485918 
L 119.653746 214.139603 
L 119.58002 215.793289 
L 119.624256 217.446975 
L 119.786454 219.100661 
L 120.066614 220.754347 
L 120.464737 222.408032 
L 120.980823 224.061718 
L 122.366881 227.36909 
L 124.224788 230.676461 
L 126.554545 233.983833 
L 129.356151 237.291205 
L 132.629607 240.598576 
L 136.374913 243.905948 
L 140.592068 247.213319 
L 145.280437 250.520618 
L 152.32999 255.382014 
L 158.7953 260.054579 
L 164.676367 264.538313 
L 169.973192 268.833214 
L 174.685773 272.939285 
L 178.814112 276.856524 
L 182.358209 280.584931 
L 185.318062 284.124507 
L 186.966719 286.379318 
L 188.355711 288.550203 
L 189.485041 290.637164 
L 190.354707 292.6402 
L 190.96471 294.55931 
L 191.315049 296.394495 
L 191.405724 298.145756 
L 191.236737 299.813091 
L 190.524338 303.005324 
L 190.482591 304.6658 
L 190.699026 306.382305 
L 191.173644 308.154836 
L 191.906444 309.983395 
L 192.897428 311.867982 
L 194.146593 313.808596 
L 195.653942 315.805237 
L 197.419473 317.857906 
L 199.443187 319.966603 
L 202.96285 323.234699 
L 207.063424 326.628856 
L 211.744909 330.149076 
L 217.007305 333.795357 
L 222.850612 337.5677 
L 229.27483 341.466104 
L 236.279959 345.490571 
L 241.126866 348.092922 
L 245.91449 350.423492 
L 250.642555 352.481996 
L 255.311062 354.268435 
L 259.92001 355.782807 
L 264.4694 357.025114 
L 268.959231 357.995355 
L 273.389503 358.69353 
L 277.760217 359.119639 
L 282.071372 359.273683 
L 286.322969 359.155661 
L 290.515006 358.765573 
L 294.647486 358.103419 
L 298.720406 357.169199 
L 302.733768 355.962913 
L 306.687572 354.484562 
L 310.581816 352.734145 
L 314.416502 350.711662 
L 318.19163 348.417113 
L 321.907199 345.850498 
L 327.386127 341.584415 
L 332.878736 337.510727 
L 338.411976 333.776252 
L 343.985845 330.380987 
L 349.600345 327.324935 
L 355.255476 324.608093 
L 360.951236 322.230464 
L 366.687627 320.192045 
L 370.53446 319.021551 
L 374.399351 318.001817 
L 378.2823 317.132843 
L 382.183306 316.414631 
L 386.102371 315.847178 
L 390.039494 315.430487 
L 393.994674 315.164556 
L 397.967912 315.049386 
L 401.959209 315.084977 
L 407.943991 315.269828 
L 411.851052 315.139194 
L 415.682077 314.76432 
L 419.437065 314.145206 
L 423.116016 313.281853 
L 426.718931 312.174259 
L 430.245809 310.822425 
L 433.696651 309.226352 
L 437.071456 307.386038 
L 440.370225 305.301484 
L 443.592957 302.972691 
L 446.739652 300.399657 
L 449.810311 297.582383 
L 452.804933 294.52087 
L 455.723519 291.215116 
L 458.566068 287.665123 
L 461.33258 283.870889 
L 464.023056 279.832415 
L 466.637496 275.549702 
L 469.175898 271.022748 
L 471.637717 266.252403 
L 473.93201 261.379442 
L 475.99249 256.506482 
L 477.819156 251.633522 
L 479.412009 246.760562 
L 480.771049 241.887601 
L 481.896276 237.014641 
L 482.787689 232.141681 
L 483.445289 227.268721 
L 483.869076 222.39576 
L 484.059049 217.5228 
L 484.015209 212.64984 
L 483.737556 207.77688 
L 483.226089 202.903919 
L 482.480809 198.030959 
L 481.501716 193.157999 
L 480.288809 188.285039 
L 478.842089 183.412078 
L 477.161556 178.539118 
L 475.24721 173.666158 
L 473.09905 168.793198 
L 470.723788 163.930626 
L 468.232908 159.251022 
L 465.665991 154.815659 
L 463.023038 150.624535 
L 460.304049 146.677652 
L 457.509023 142.975008 
L 454.63796 139.516604 
L 451.69086 136.302441 
L 448.667724 133.332517 
L 445.568552 130.606833 
L 442.393343 128.12539 
L 439.142097 125.888186 
L 435.814815 123.895222 
L 432.411496 122.146499 
L 428.932141 120.642015 
L 425.376749 119.381771 
L 421.74532 118.365768 
L 418.037855 117.594004 
L 414.254353 117.06648 
L 410.394815 116.783197 
L 406.45924 116.744153 
L 404.462939 116.816221 
L 404.462939 116.816221 
" style="fill:none;stroke:#0000ff;stroke-linecap:square;"/>
   </g>
   <g id="patch_3">
    <path d="M 72 43.2 
L 518.4 43.2 
" style="fill:none;stroke:#000000;stroke-linecap:square;stroke-linejoin:miter;"/>
   </g>
   <g id="patch_4">
    <path d="M 518.4 388.8 
L 518.4 43.2 
" style="fill:none;stroke:#000000;stroke-linecap:square;stroke-linejoin:miter;"/>
   </g>
   <g id="patch_5">
    <path d="M 72 388.8 
L 518.4 388.8 
" style="fill:none;stroke:#000000;stroke-linecap:square;stroke-linejoin:miter;"/>
   </g>
   <g id="patch_6">
    <path d="M 72 388.8 
L 72 43.2 
" style="fill:none;stroke:#000000;stroke-linecap:square;stroke-linejoin:miter;"/>
   </g>
   <g id="matplotlib.axis_1">
    <g id="xtick_1">
     <g id="line2d_2">
      <defs>
       <path d="M 0 0 
L 0 -4 
" id="m5fdebb710e" style="stroke:#000000;stroke-width:0.5;"/>
      </defs>
      <g>
       <use style="stroke:#000000;stroke-width:0.5;" x="72.0" xlink:href="#m5fdebb710e" y="388.8"/>
      </g>
     </g>
     <g id="line2d_3">
      <defs>
       <path d="M 0 0 
L 0 4 
" id="m91212b8c78" style="stroke:#000000;stroke-width:0.5;"/>
      </defs>
      <g>
       <use style="stroke:#000000;stroke-width:0.5;" x="72.0" xlink:href="#m91212b8c78" y="43.2"/>
      </g>
     </g>
     <g id="text_1">
      <!-- −15 -->
      <defs>
       <path d="M 10.59375 35.5 
L 73.1875 35.5 
L 73.1875 27.203125 
L 10.59375 27.203125 
z
" id="BitstreamVeraSans-Roman-2212"/>
       <path d="M 12.40625 8.296875 
L 28.515625 8.296875 
L 28.515625 63.921875 
L 10.984375 60.40625 
L 10.984375 69.390625 
L 28.421875 72.90625 
L 38.28125 72.90625 
L 38.28125 8.296875 
L 54.390625 8.296875 
L 54.390625 0 
L 12.40625 0 
z
" id="BitstreamVeraSans-Roman-31"/>
       <path d="M 10.796875 72.90625 
L 49.515625 72.90625 
L 49.515625 64.59375 
L 19.828125 64.59375 
L 19.828125 46.734375 
Q 21.96875 47.46875 24.109375 47.828125 
Q 26.265625 48.1875 28.421875 48.1875 
Q 40.625 48.1875 47.75 41.5 
Q 54.890625 34.8125 54.890625 23.390625 
Q 54.890625 11.625 47.5625 5.09375 
Q 40.234375 -1.421875 26.90625 -1.421875 
Q 22.3125 -1.421875 17.546875 -0.640625 
Q 12.796875 0.140625 7.71875 1.703125 
L 7.71875 11.625 
Q 12.109375 9.234375 16.796875 8.0625 
Q 21.484375 6.890625 26.703125 6.890625 
Q 35.15625 6.890625 40.078125 11.328125 
Q 45.015625 15.765625 45.015625 23.390625 
Q 45.015625 31 40.078125 35.4375 
Q 35.15625 39.890625 26.703125 39.890625 
Q 22.75 39.890625 18.8125 39.015625 
Q 14.890625 38.140625 10.796875 36.28125 
z
" id="BitstreamVeraSans-Roman-35"/>
      </defs>
      <g transform="translate(59.3371875 401.918125)scale(0.12 -0.12)">
       <use xlink:href="#BitstreamVeraSans-Roman-2212"/>
       <use x="83.7890625" xlink:href="#BitstreamVeraSans-Roman-31"/>
       <use x="147.412109375" xlink:href="#BitstreamVeraSans-Roman-35"/>
      </g>
     </g>
    </g>
    <g id="xtick_2">
     <g id="line2d_4">
      <g>
       <use style="stroke:#000000;stroke-width:0.5;" x="146.4" xlink:href="#m5fdebb710e" y="388.8"/>
      </g>
     </g>
     <g id="line2d_5">
      <g>
       <use style="stroke:#000000;stroke-width:0.5;" x="146.4" xlink:href="#m91212b8c78" y="43.2"/>
      </g>
     </g>
     <g id="text_2">
      <!-- −10 -->
      <defs>
       <path d="M 31.78125 66.40625 
Q 24.171875 66.40625 20.328125 58.90625 
Q 16.5 51.421875 16.5 36.375 
Q 16.5 21.390625 20.328125 13.890625 
Q 24.171875 6.390625 31.78125 6.390625 
Q 39.453125 6.390625 43.28125 13.890625 
Q 47.125 21.390625 47.125 36.375 
Q 47.125 51.421875 43.28125 58.90625 
Q 39.453125 66.40625 31.78125 66.40625 
M 31.78125 74.21875 
Q 44.046875 74.21875 50.515625 64.515625 
Q 56.984375 54.828125 56.984375 36.375 
Q 56.984375 17.96875 50.515625 8.265625 
Q 44.046875 -1.421875 31.78125 -1.421875 
Q 19.53125 -1.421875 13.0625 8.265625 
Q 6.59375 17.96875 6.59375 36.375 
Q 6.59375 54.828125 13.0625 64.515625 
Q 19.53125 74.21875 31.78125 74.21875 
" id="BitstreamVeraSans-Roman-30"/>
      </defs>
      <g transform="translate(133.7371875 401.918125)scale(0.12 -0.12)">
       <use xlink:href="#BitstreamVeraSans-Roman-2212"/>
       <use x="83.7890625" xlink:href="#BitstreamVeraSans-Roman-31"/>
       <use x="147.412109375" xlink:href="#BitstreamVeraSans-Roman-30"/>
      </g>
     </g>
    </g>
    <g id="xtick_3">
     <g id="line2d_6">
      <g>
       <use style="stroke:#000000;stroke-width:0.5;" x="220.8" xlink:href="#m5fdebb710e" y="388.8"/>
      </g>
     </g>
     <g id="line2d_7">
      <g>
       <use style="stroke:#000000;stroke-width:0.5;" x="220.8" xlink:href="#m91212b8c78" y="43.2"/>
      </g>
     </g>
     <g id="text_3">
      <!-- −5 -->
      <g transform="translate(211.9546875 401.918125)scale(0.12 -0.12)">
       <use xlink:href="#BitstreamVeraSans-Roman-2212"/>
       <use x="83.7890625" xlink:href="#BitstreamVeraSans-Roman-35"/>
      </g>
     </g>
    </g>
    <g id="xtick_4">
     <g id="line2d_8">
      <g>
       <use style="stroke:#000000;stroke-width:0.5;" x="295.2" xlink:href="#m5fdebb710e" y="388.8"/>
      </g>
     </g>
     <g id="line2d_9">
      <g>
       <use style="stroke:#000000;stroke-width:0.5;" x="295.2" xlink:href="#m91212b8c78" y="43.2"/>
      </g>
     </g>
     <g id="text_4">
      <!-- 0 -->
      <g transform="translate(291.3825 401.918125)scale(0.12 -0.12)">
       <use xlink:href="#BitstreamVeraSans-Roman-30"/>
      </g>
     </g>
    </g>
    <g id="xtick_5">
     <g id="line2d_10">
      <g>
       <use style="stroke:#000000;stroke-width:0.5;" x="369.6" xlink:href="#m5fdebb710e" y="388.8"/>
      </g>
     </g>
     <g id="line2d_11">
      <g>
       <use style="stroke:#000000;stroke-width:0.5;" x="369.6" xlink:href="#m91212b8c78" y="43.2"/>
      </g>
     </g>
     <g id="text_5">
      <!-- 5 -->
      <g transform="translate(365.7825 401.918125)scale(0.12 -0.12)">
       <use xlink:href="#BitstreamVeraSans-Roman-35"/>
      </g>
     </g>
    </g>
    <g id="xtick_6">
     <g id="line2d_12">
      <g>
       <use style="stroke:#000000;stroke-width:0.5;" x="444.0" xlink:href="#m5fdebb710e" y="388.8"/>
      </g>
     </g>
     <g id="line2d_13">
      <g>
       <use style="stroke:#000000;stroke-width:0.5;" x="444.0" xlink:href="#m91212b8c78" y="43.2"/>
      </g>
     </g>
     <g id="text_6">
      <!-- 10 -->
      <g transform="translate(436.365 401.918125)scale(0.12 -0.12)">
       <use xlink:href="#BitstreamVeraSans-Roman-31"/>
       <use x="63.623046875" xlink:href="#BitstreamVeraSans-Roman-30"/>
      </g>
     </g>
    </g>
    <g id="xtick_7">
     <g id="line2d_14">
      <g>
       <use style="stroke:#000000;stroke-width:0.5;" x="518.4" xlink:href="#m5fdebb710e" y="388.8"/>
      </g>
     </g>
     <g id="line2d_15">
      <g>
       <use style="stroke:#000000;stroke-width:0.5;" x="518.4" xlink:href="#m91212b8c78" y="43.2"/>
      </g>
     </g>
     <g id="text_7">
      <!-- 15 -->
      <g transform="translate(510.765 401.918125)scale(0.12 -0.12)">
       <use xlink:href="#BitstreamVeraSans-Roman-31"/>
       <use x="63.623046875" xlink:href="#BitstreamVeraSans-Roman-35"/>
      </g>
     </g>
    </g>
   </g>
   <g id="matplotlib.axis_2">
    <g id="ytick_1">
     <g id="line2d_16">
      <defs>
       <path d="M 0 0 
L 4 0 
" id="mb76bc271ed" style="stroke:#000000;stroke-width:0.5;"/>
      </defs>
      <g>
       <use style="stroke:#000000;stroke-width:0.5;" x="72.0" xlink:href="#mb76bc271ed" y="388.8"/>
      </g>
     </g>
     <g id="line2d_17">
      <defs>
       <path d="M 0 0 
L -4 0 
" id="m3ef5f30a00" style="stroke:#000000;stroke-width:0.5;"/>
      </defs>
      <g>
       <use style="stroke:#000000;stroke-width:0.5;" x="518.4" xlink:href="#m3ef5f30a00" y="388.8"/>
      </g>
     </g>
     <g id="text_8">
      <!-- −10 -->
      <g transform="translate(42.674375 392.11125)scale(0.12 -0.12)">
       <use xlink:href="#BitstreamVeraSans-Roman-2212"/>
       <use x="83.7890625" xlink:href="#BitstreamVeraSans-Roman-31"/>
       <use x="147.412109375" xlink:href="#BitstreamVeraSans-Roman-30"/>
      </g>
     </g>
    </g>
    <g id="ytick_2">
     <g id="line2d_18">
      <g>
       <use style="stroke:#000000;stroke-width:0.5;" x="72.0" xlink:href="#mb76bc271ed" y="302.4"/>
      </g>
     </g>
     <g id="line2d_19">
      <g>
       <use style="stroke:#000000;stroke-width:0.5;" x="518.4" xlink:href="#m3ef5f30a00" y="302.4"/>
      </g>
     </g>
     <g id="text_9">
      <!-- −5 -->
      <g transform="translate(50.309375 305.71125)scale(0.12 -0.12)">
       <use xlink:href="#BitstreamVeraSans-Roman-2212"/>
       <use x="83.7890625" xlink:href="#BitstreamVeraSans-Roman-35"/>
      </g>
     </g>
    </g>
    <g id="ytick_3">
     <g id="line2d_20">
      <g>
       <use style="stroke:#000000;stroke-width:0.5;" x="72.0" xlink:href="#mb76bc271ed" y="216.0"/>
      </g>
     </g>
     <g id="line2d_21">
      <g>
       <use style="stroke:#000000;stroke-width:0.5;" x="518.4" xlink:href="#m3ef5f30a00" y="216.0"/>
      </g>
     </g>
     <g id="text_10">
      <!-- 0 -->
      <g transform="translate(60.365 219.31125)scale(0.12 -0.12)">
       <use xlink:href="#BitstreamVeraSans-Roman-30"/>
      </g>
     </g>
    </g>
    <g id="ytick_4">
     <g id="line2d_22">
      <g>
       <use style="stroke:#000000;stroke-width:0.5;" x="72.0" xlink:href="#mb76bc271ed" y="129.6"/>
      </g>
     </g>
     <g id="line2d_23">
      <g>
       <use style="stroke:#000000;stroke-width:0.5;" x="518.4" xlink:href="#m3ef5f30a00" y="129.6"/>
      </g>
     </g>
     <g id="text_11">
      <!-- 5 -->
      <g transform="translate(60.365 132.91125)scale(0.12 -0.12)">
       <use xlink:href="#BitstreamVeraSans-Roman-35"/>
      </g>
     </g>
    </g>
    <g id="ytick_5">
     <g id="line2d_24">
      <g>
       <use style="stroke:#000000;stroke-width:0.5;" x="72.0" xlink:href="#mb76bc271ed" y="43.2"/>
      </g>
     </g>
     <g id="line2d_25">
      <g>
       <use style="stroke:#000000;stroke-width:0.5;" x="518.4" xlink:href="#m3ef5f30a00" y="43.2"/>
      </g>
     </g>
     <g id="text_12">
      <!-- 10 -->
      <g transform="translate(52.73 46.51125)scale(0.12 -0.12)">
       <use xlink:href="#BitstreamVeraSans-Roman-31"/>
       <use x="63.623046875" xlink:href="#BitstreamVeraSans-Roman-30"/>
      </g>
     </g>
    </g>
   </g>
  </g>
 </g>
 <defs>
  <clipPath id="p2eb5403e48">
   <rect height="345.6" width="446.4" x="72.0" y="43.2"/>
  </clipPath>
 </defs>
</svg>
