<?xml version="1.0" encoding="utf-8" standalone="no"?>
<!DOCTYPE svg PUBLIC "-//W3C//DTD SVG 1.1//EN"
  "http://www.w3.org/Graphics/SVG/1.1/DTD/svg11.dtd">
<!-- Created with matplotlib (http://matplotlib.org/) -->
<svg height="432pt" version="1.1" viewBox="0 0 576 432" width="576pt" xmlns="http://www.w3.org/2000/svg" xmlns:xlink="http://www.w3.org/1999/xlink">
 <defs>
  <style type="text/css">
*{stroke-linecap:butt;stroke-linejoin:round;stroke-miterlimit:100000;}
  </style>
 </defs>
 <g id="figure_1">
  <g id="patch_1">
   <path d="M 0 432 
L 576 432 
L 576 0 
L 0 0 
z
" style="fill:#ffffff;"/>
  </g>
  <g id="axes_1">
   <g id="patch_2">
    <path d="M 72 388.8 
L 518.4 388.8 
L 518.4 43.2 
L 72 43.2 
z
" style="fill:#ffffff;"/>
   </g>
   <g id="line2d_1">
    <path clip-path="url(#pc80ca046b2)" d="M 386.200473 119.507847 
L 383.734464 119.218733 
L 381.312239 118.893663 
L 376.599144 118.135656 
L 372.061189 117.233826 
L 367.698372 116.188174 
L 363.510695 114.998699 
L 359.498157 113.665401 
L 355.660757 112.188281 
L 351.998497 110.567338 
L 348.511377 108.802572 
L 345.199395 106.893984 
L 342.062552 104.841574 
L 339.100848 102.645341 
L 336.314284 100.305285 
L 333.702859 97.821406 
L 331.266572 95.193705 
L 329.005425 92.422182 
L 326.919417 89.506836 
L 325.008549 86.447667 
L 323.272819 83.244675 
L 321.712228 79.897861 
L 319.580888 74.725769 
L 317.88574 71.586778 
L 315.892017 68.773519 
L 313.599719 66.285993 
L 311.008845 64.124199 
L 308.119396 62.288138 
L 304.931371 60.777809 
L 301.444771 59.593213 
L 297.659596 58.734349 
L 293.575845 58.201218 
L 289.193519 57.99382 
L 284.512618 58.112154 
L 279.533141 58.55622 
L 274.255089 59.326019 
L 268.678462 60.421551 
L 262.803259 61.842815 
L 256.629481 63.589812 
L 250.157128 65.662541 
L 243.386199 68.061003 
L 236.316695 70.785198 
L 225.192452 75.42995 
L 217.797243 78.416315 
L 210.562442 81.126057 
L 203.488047 83.559175 
L 196.574059 85.715669 
L 189.820479 87.595538 
L 183.227305 89.198784 
L 176.794538 90.525406 
L 170.522178 91.575404 
L 164.410226 92.348778 
L 158.45868 92.845528 
L 152.667541 93.065655 
L 147.03681 93.009157 
L 141.566485 92.676035 
L 136.256567 92.066289 
L 131.107057 91.17992 
L 126.117953 90.016926 
L 121.289256 88.577308 
L 116.620967 86.861067 
L 112.113084 84.868201 
L 107.765608 82.598712 
L 103.611037 80.202704 
L 99.771561 78.244575 
L 96.25888 76.778361 
L 93.072994 75.804065 
L 90.213902 75.321684 
L 88.906903 75.264962 
L 87.681604 75.33122 
L 86.538003 75.520456 
L 85.476101 75.832672 
L 84.495897 76.267866 
L 83.597392 76.82604 
L 82.780586 77.507193 
L 82.045478 78.311325 
L 81.392069 79.238435 
L 80.820359 80.288525 
L 80.330347 81.461594 
L 79.922034 82.757643 
L 79.350504 85.718676 
L 79.105768 89.171626 
L 79.187827 93.116492 
L 79.59668 97.553275 
L 80.332328 102.481973 
L 81.39477 107.902588 
L 82.784007 113.81512 
L 84.500038 120.219567 
L 86.542864 127.115931 
L 93.664629 149.929828 
L 95.671354 157.646053 
L 97.429184 165.362277 
L 98.938117 173.078502 
L 100.198154 180.794726 
L 101.209295 188.51095 
L 101.97154 196.227175 
L 102.484888 203.943399 
L 102.74934 211.659624 
L 102.764896 219.375848 
L 102.531556 227.092073 
L 102.04932 234.808297 
L 101.318187 242.524522 
L 100.338158 250.240746 
L 99.109233 257.95697 
L 97.631412 265.673195 
L 95.904695 273.389419 
L 93.929081 281.105644 
L 91.704571 288.821868 
L 89.231665 296.537666 
L 86.821195 303.987435 
L 84.73752 310.945289 
L 82.980639 317.411226 
L 81.550553 323.385247 
L 80.447261 328.867352 
L 79.670764 333.85754 
L 79.221062 338.355812 
L 79.098154 342.362167 
L 79.30204 345.876607 
L 79.832721 348.89913 
L 80.22061 350.225923 
L 80.690197 351.429737 
L 81.241483 352.510571 
L 81.874467 353.468427 
L 82.58915 354.303304 
L 83.385532 355.015201 
L 84.263612 355.60412 
L 85.223391 356.070059 
L 86.264868 356.413019 
L 87.388044 356.633001 
L 88.592919 356.730003 
L 89.879493 356.704026 
L 91.247765 356.55507 
L 94.229405 355.888221 
L 97.537839 354.729455 
L 101.173069 353.078773 
L 105.135092 350.936175 
L 109.377114 348.517813 
L 113.784742 346.352057 
L 118.352778 344.462926 
L 123.08122 342.850418 
L 127.970069 341.514535 
L 133.019326 340.455275 
L 138.228989 339.672639 
L 143.599059 339.166628 
L 149.129536 338.93724 
L 154.820421 338.984476 
L 160.671712 339.308336 
L 166.68341 339.90882 
L 172.855516 340.785928 
L 179.188028 341.93966 
L 185.680947 343.370016 
L 192.334274 345.076996 
L 199.148007 347.0606 
L 206.122147 349.320827 
L 213.256694 351.857679 
L 220.551649 354.671155 
L 231.746634 359.34677 
L 239.002748 362.274547 
L 245.960286 364.876592 
L 252.619249 367.152904 
L 258.979637 369.103483 
L 265.041449 370.728331 
L 270.804686 372.027445 
L 276.269348 373.000827 
L 281.435434 373.648476 
L 286.302945 373.970393 
L 290.871881 373.966578 
L 295.142241 373.637029 
L 299.114026 372.981749 
L 302.787235 372.000735 
L 306.161869 370.69399 
L 309.237928 369.061511 
L 312.015412 367.1033 
L 314.49432 364.819357 
L 316.674653 362.209681 
L 318.55641 359.274272 
L 320.139592 356.013131 
L 322.276925 350.830229 
L 323.903193 347.537349 
L 325.7046 344.388291 
L 327.681146 341.383055 
L 329.832831 338.521643 
L 332.159656 335.804052 
L 334.661619 333.230285 
L 337.338722 330.80034 
L 340.190963 328.514218 
L 343.218344 326.371918 
L 346.420864 324.373441 
L 349.798523 322.518786 
L 353.351321 320.807954 
L 357.079258 319.240945 
L 360.982334 317.817758 
L 365.06055 316.538394 
L 369.313904 315.402853 
L 373.742398 314.411134 
L 378.346031 313.563237 
L 383.124803 312.859164 
L 393.026891 311.572506 
L 397.972323 310.685068 
L 402.901558 309.613542 
L 407.814594 308.357928 
L 412.711433 306.918226 
L 417.592074 305.294436 
L 422.456518 303.486558 
L 427.304763 301.494592 
L 432.13681 299.318538 
L 436.95266 296.958396 
L 441.752312 294.414167 
L 446.535766 291.685849 
L 451.303022 288.773443 
L 456.05408 285.67695 
L 460.788941 282.396368 
L 465.507604 278.931699 
L 470.210068 275.282942 
L 474.896335 271.450096 
L 479.566404 267.433163 
L 484.220276 263.232142 
L 488.784782 258.878353 
L 492.94038 254.508585 
L 496.649739 250.138816 
L 499.91286 245.769048 
L 502.729742 241.399279 
L 505.100385 237.029511 
L 507.024789 232.659742 
L 508.502955 228.289974 
L 509.534882 223.920205 
L 510.12057 219.550437 
L 510.246075 217.365553 
L 510.26002 215.180668 
L 510.162405 212.995784 
L 509.632497 208.626016 
L 508.65635 204.256247 
L 507.233964 199.886479 
L 505.365339 195.51671 
L 503.050476 191.146942 
L 500.289374 186.777173 
L 497.082033 182.407405 
L 493.428454 178.037636 
L 489.328636 173.667868 
L 484.80087 169.305929 
L 477.817027 163.038914 
L 473.140883 159.091014 
L 468.448542 155.327201 
L 463.740003 151.747477 
L 459.015266 148.351841 
L 454.274332 145.140292 
L 449.517199 142.112832 
L 444.743869 139.269459 
L 439.954341 136.610174 
L 435.148615 134.134978 
L 430.326691 131.843869 
L 425.488569 129.736848 
L 420.63425 127.813915 
L 415.763732 126.07507 
L 410.877017 124.520313 
L 405.974104 123.149644 
L 401.054993 121.963063 
L 396.119684 120.96057 
L 391.168177 120.142165 
L 386.200473 119.507847 
L 386.200473 119.507847 
" style="fill:none;stroke:#0000ff;stroke-linecap:square;"/>
   </g>
   <g id="patch_3">
    <path d="M 72 43.2 
L 518.4 43.2 
" style="fill:none;stroke:#000000;stroke-linecap:square;stroke-linejoin:miter;"/>
   </g>
   <g id="patch_4">
    <path d="M 518.4 388.8 
L 518.4 43.2 
" style="fill:none;stroke:#000000;stroke-linecap:square;stroke-linejoin:miter;"/>
   </g>
   <g id="patch_5">
    <path d="M 72 388.8 
L 518.4 388.8 
" style="fill:none;stroke:#000000;stroke-linecap:square;stroke-linejoin:miter;"/>
   </g>
   <g id="patch_6">
    <path d="M 72 388.8 
L 72 43.2 
" style="fill:none;stroke:#000000;stroke-linecap:square;stroke-linejoin:miter;"/>
   </g>
   <g id="matplotlib.axis_1">
    <g id="xtick_1">
     <g id="line2d_2">
      <defs>
       <path d="M 0 0 
L 0 -4 
" id="m1d0478e1b9" style="stroke:#000000;stroke-width:0.5;"/>
      </defs>
      <g>
       <use style="stroke:#000000;stroke-width:0.5;" x="72.0" xlink:href="#m1d0478e1b9" y="388.8"/>
      </g>
     </g>
     <g id="line2d_3">
      <defs>
       <path d="M 0 0 
L 0 4 
" id="m0231890210" style="stroke:#000000;stroke-width:0.5;"/>
      </defs>
      <g>
       <use style="stroke:#000000;stroke-width:0.5;" x="72.0" xlink:href="#m0231890210" y="43.2"/>
      </g>
     </g>
     <g id="text_1">
      <!-- −10 -->
      <defs>
       <path d="M 10.59375 35.5 
L 73.1875 35.5 
L 73.1875 27.203125 
L 10.59375 27.203125 
z
" id="BitstreamVeraSans-Roman-2212"/>
       <path d="M 31.78125 66.40625 
Q 24.171875 66.40625 20.328125 58.90625 
Q 16.5 51.421875 16.5 36.375 
Q 16.5 21.390625 20.328125 13.890625 
Q 24.171875 6.390625 31.78125 6.390625 
Q 39.453125 6.390625 43.28125 13.890625 
Q 47.125 21.390625 47.125 36.375 
Q 47.125 51.421875 43.28125 58.90625 
Q 39.453125 66.40625 31.78125 66.40625 
M 31.78125 74.21875 
Q 44.046875 74.21875 50.515625 64.515625 
Q 56.984375 54.828125 56.984375 36.375 
Q 56.984375 17.96875 50.515625 8.265625 
Q 44.046875 -1.421875 31.78125 -1.421875 
Q 19.53125 -1.421875 13.0625 8.265625 
Q 6.59375 17.96875 6.59375 36.375 
Q 6.59375 54.828125 13.0625 64.515625 
Q 19.53125 74.21875 31.78125 74.21875 
" id="BitstreamVeraSans-Roman-30"/>
       <path d="M 12.40625 8.296875 
L 28.515625 8.296875 
L 28.515625 63.921875 
L 10.984375 60.40625 
L 10.984375 69.390625 
L 28.421875 72.90625 
L 38.28125 72.90625 
L 38.28125 8.296875 
L 54.390625 8.296875 
L 54.390625 0 
L 12.40625 0 
z
" id="BitstreamVeraSans-Roman-31"/>
      </defs>
      <g transform="translate(59.3371875 401.918125)scale(0.12 -0.12)">
       <use xlink:href="#BitstreamVeraSans-Roman-2212"/>
       <use x="83.7890625" xlink:href="#BitstreamVeraSans-Roman-31"/>
       <use x="147.412109375" xlink:href="#BitstreamVeraSans-Roman-30"/>
      </g>
     </g>
    </g>
    <g id="xtick_2">
     <g id="line2d_4">
      <g>
       <use style="stroke:#000000;stroke-width:0.5;" x="183.6" xlink:href="#m1d0478e1b9" y="388.8"/>
      </g>
     </g>
     <g id="line2d_5">
      <g>
       <use style="stroke:#000000;stroke-width:0.5;" x="183.6" xlink:href="#m0231890210" y="43.2"/>
      </g>
     </g>
     <g id="text_2">
      <!-- −5 -->
      <defs>
       <path d="M 10.796875 72.90625 
L 49.515625 72.90625 
L 49.515625 64.59375 
L 19.828125 64.59375 
L 19.828125 46.734375 
Q 21.96875 47.46875 24.109375 47.828125 
Q 26.265625 48.1875 28.421875 48.1875 
Q 40.625 48.1875 47.75 41.5 
Q 54.890625 34.8125 54.890625 23.390625 
Q 54.890625 11.625 47.5625 5.09375 
Q 40.234375 -1.421875 26.90625 -1.421875 
Q 22.3125 -1.421875 17.546875 -0.640625 
Q 12.796875 0.140625 7.71875 1.703125 
L 7.71875 11.625 
Q 12.109375 9.234375 16.796875 8.0625 
Q 21.484375 6.890625 26.703125 6.890625 
Q 35.15625 6.890625 40.078125 11.328125 
Q 45.015625 15.765625 45.015625 23.390625 
Q 45.015625 31 40.078125 35.4375 
Q 35.15625 39.890625 26.703125 39.890625 
Q 22.75 39.890625 18.8125 39.015625 
Q 14.890625 38.140625 10.796875 36.28125 
z
" id="BitstreamVeraSans-Roman-35"/>
      </defs>
      <g transform="translate(174.7546875 401.918125)scale(0.12 -0.12)">
       <use xlink:href="#BitstreamVeraSans-Roman-2212"/>
       <use x="83.7890625" xlink:href="#BitstreamVeraSans-Roman-35"/>
      </g>
     </g>
    </g>
    <g id="xtick_3">
     <g id="line2d_6">
      <g>
       <use style="stroke:#000000;stroke-width:0.5;" x="295.2" xlink:href="#m1d0478e1b9" y="388.8"/>
      </g>
     </g>
     <g id="line2d_7">
      <g>
       <use style="stroke:#000000;stroke-width:0.5;" x="295.2" xlink:href="#m0231890210" y="43.2"/>
      </g>
     </g>
     <g id="text_3">
      <!-- 0 -->
      <g transform="translate(291.3825 401.918125)scale(0.12 -0.12)">
       <use xlink:href="#BitstreamVeraSans-Roman-30"/>
      </g>
     </g>
    </g>
    <g id="xtick_4">
     <g id="line2d_8">
      <g>
       <use style="stroke:#000000;stroke-width:0.5;" x="406.8" xlink:href="#m1d0478e1b9" y="388.8"/>
      </g>
     </g>
     <g id="line2d_9">
      <g>
       <use style="stroke:#000000;stroke-width:0.5;" x="406.8" xlink:href="#m0231890210" y="43.2"/>
      </g>
     </g>
     <g id="text_4">
      <!-- 5 -->
      <g transform="translate(402.9825 401.918125)scale(0.12 -0.12)">
       <use xlink:href="#BitstreamVeraSans-Roman-35"/>
      </g>
     </g>
    </g>
    <g id="xtick_5">
     <g id="line2d_10">
      <g>
       <use style="stroke:#000000;stroke-width:0.5;" x="518.4" xlink:href="#m1d0478e1b9" y="388.8"/>
      </g>
     </g>
     <g id="line2d_11">
      <g>
       <use style="stroke:#000000;stroke-width:0.5;" x="518.4" xlink:href="#m0231890210" y="43.2"/>
      </g>
     </g>
     <g id="text_5">
      <!-- 10 -->
      <g transform="translate(510.765 401.918125)scale(0.12 -0.12)">
       <use xlink:href="#BitstreamVeraSans-Roman-31"/>
       <use x="63.623046875" xlink:href="#BitstreamVeraSans-Roman-30"/>
      </g>
     </g>
    </g>
   </g>
   <g id="matplotlib.axis_2">
    <g id="ytick_1">
     <g id="line2d_12">
      <defs>
       <path d="M 0 0 
L 4 0 
" id="m748a556efb" style="stroke:#000000;stroke-width:0.5;"/>
      </defs>
      <g>
       <use style="stroke:#000000;stroke-width:0.5;" x="72.0" xlink:href="#m748a556efb" y="388.8"/>
      </g>
     </g>
     <g id="line2d_13">
      <defs>
       <path d="M 0 0 
L -4 0 
" id="ma2a6695a5f" style="stroke:#000000;stroke-width:0.5;"/>
      </defs>
      <g>
       <use style="stroke:#000000;stroke-width:0.5;" x="518.4" xlink:href="#ma2a6695a5f" y="388.8"/>
      </g>
     </g>
     <g id="text_6">
      <!-- −8 -->
      <defs>
       <path d="M 31.78125 34.625 
Q 24.75 34.625 20.71875 30.859375 
Q 16.703125 27.09375 16.703125 20.515625 
Q 16.703125 13.921875 20.71875 10.15625 
Q 24.75 6.390625 31.78125 6.390625 
Q 38.8125 6.390625 42.859375 10.171875 
Q 46.921875 13.96875 46.921875 20.515625 
Q 46.921875 27.09375 42.890625 30.859375 
Q 38.875 34.625 31.78125 34.625 
M 21.921875 38.8125 
Q 15.578125 40.375 12.03125 44.71875 
Q 8.5 49.078125 8.5 55.328125 
Q 8.5 64.0625 14.71875 69.140625 
Q 20.953125 74.21875 31.78125 74.21875 
Q 42.671875 74.21875 48.875 69.140625 
Q 55.078125 64.0625 55.078125 55.328125 
Q 55.078125 49.078125 51.53125 44.71875 
Q 48 40.375 41.703125 38.8125 
Q 48.828125 37.15625 52.796875 32.3125 
Q 56.78125 27.484375 56.78125 20.515625 
Q 56.78125 9.90625 50.3125 4.234375 
Q 43.84375 -1.421875 31.78125 -1.421875 
Q 19.734375 -1.421875 13.25 4.234375 
Q 6.78125 9.90625 6.78125 20.515625 
Q 6.78125 27.484375 10.78125 32.3125 
Q 14.796875 37.15625 21.921875 38.8125 
M 18.3125 54.390625 
Q 18.3125 48.734375 21.84375 45.5625 
Q 25.390625 42.390625 31.78125 42.390625 
Q 38.140625 42.390625 41.71875 45.5625 
Q 45.3125 48.734375 45.3125 54.390625 
Q 45.3125 60.0625 41.71875 63.234375 
Q 38.140625 66.40625 31.78125 66.40625 
Q 25.390625 66.40625 21.84375 63.234375 
Q 18.3125 60.0625 18.3125 54.390625 
" id="BitstreamVeraSans-Roman-38"/>
      </defs>
      <g transform="translate(50.309375 392.11125)scale(0.12 -0.12)">
       <use xlink:href="#BitstreamVeraSans-Roman-2212"/>
       <use x="83.7890625" xlink:href="#BitstreamVeraSans-Roman-38"/>
      </g>
     </g>
    </g>
    <g id="ytick_2">
     <g id="line2d_14">
      <g>
       <use style="stroke:#000000;stroke-width:0.5;" x="72.0" xlink:href="#m748a556efb" y="345.6"/>
      </g>
     </g>
     <g id="line2d_15">
      <g>
       <use style="stroke:#000000;stroke-width:0.5;" x="518.4" xlink:href="#ma2a6695a5f" y="345.6"/>
      </g>
     </g>
     <g id="text_7">
      <!-- −6 -->
      <defs>
       <path d="M 33.015625 40.375 
Q 26.375 40.375 22.484375 35.828125 
Q 18.609375 31.296875 18.609375 23.390625 
Q 18.609375 15.53125 22.484375 10.953125 
Q 26.375 6.390625 33.015625 6.390625 
Q 39.65625 6.390625 43.53125 10.953125 
Q 47.40625 15.53125 47.40625 23.390625 
Q 47.40625 31.296875 43.53125 35.828125 
Q 39.65625 40.375 33.015625 40.375 
M 52.59375 71.296875 
L 52.59375 62.3125 
Q 48.875 64.0625 45.09375 64.984375 
Q 41.3125 65.921875 37.59375 65.921875 
Q 27.828125 65.921875 22.671875 59.328125 
Q 17.53125 52.734375 16.796875 39.40625 
Q 19.671875 43.65625 24.015625 45.921875 
Q 28.375 48.1875 33.59375 48.1875 
Q 44.578125 48.1875 50.953125 41.515625 
Q 57.328125 34.859375 57.328125 23.390625 
Q 57.328125 12.15625 50.6875 5.359375 
Q 44.046875 -1.421875 33.015625 -1.421875 
Q 20.359375 -1.421875 13.671875 8.265625 
Q 6.984375 17.96875 6.984375 36.375 
Q 6.984375 53.65625 15.1875 63.9375 
Q 23.390625 74.21875 37.203125 74.21875 
Q 40.921875 74.21875 44.703125 73.484375 
Q 48.484375 72.75 52.59375 71.296875 
" id="BitstreamVeraSans-Roman-36"/>
      </defs>
      <g transform="translate(50.309375 348.91125)scale(0.12 -0.12)">
       <use xlink:href="#BitstreamVeraSans-Roman-2212"/>
       <use x="83.7890625" xlink:href="#BitstreamVeraSans-Roman-36"/>
      </g>
     </g>
    </g>
    <g id="ytick_3">
     <g id="line2d_16">
      <g>
       <use style="stroke:#000000;stroke-width:0.5;" x="72.0" xlink:href="#m748a556efb" y="302.4"/>
      </g>
     </g>
     <g id="line2d_17">
      <g>
       <use style="stroke:#000000;stroke-width:0.5;" x="518.4" xlink:href="#ma2a6695a5f" y="302.4"/>
      </g>
     </g>
     <g id="text_8">
      <!-- −4 -->
      <defs>
       <path d="M 37.796875 64.3125 
L 12.890625 25.390625 
L 37.796875 25.390625 
z
M 35.203125 72.90625 
L 47.609375 72.90625 
L 47.609375 25.390625 
L 58.015625 25.390625 
L 58.015625 17.1875 
L 47.609375 17.1875 
L 47.609375 0 
L 37.796875 0 
L 37.796875 17.1875 
L 4.890625 17.1875 
L 4.890625 26.703125 
z
" id="BitstreamVeraSans-Roman-34"/>
      </defs>
      <g transform="translate(50.309375 305.71125)scale(0.12 -0.12)">
       <use xlink:href="#BitstreamVeraSans-Roman-2212"/>
       <use x="83.7890625" xlink:href="#BitstreamVeraSans-Roman-34"/>
      </g>
     </g>
    </g>
    <g id="ytick_4">
     <g id="line2d_18">
      <g>
       <use style="stroke:#000000;stroke-width:0.5;" x="72.0" xlink:href="#m748a556efb" y="259.2"/>
      </g>
     </g>
     <g id="line2d_19">
      <g>
       <use style="stroke:#000000;stroke-width:0.5;" x="518.4" xlink:href="#ma2a6695a5f" y="259.2"/>
      </g>
     </g>
     <g id="text_9">
      <!-- −2 -->
      <defs>
       <path d="M 19.1875 8.296875 
L 53.609375 8.296875 
L 53.609375 0 
L 7.328125 0 
L 7.328125 8.296875 
Q 12.9375 14.109375 22.625 23.890625 
Q 32.328125 33.6875 34.8125 36.53125 
Q 39.546875 41.84375 41.421875 45.53125 
Q 43.3125 49.21875 43.3125 52.78125 
Q 43.3125 58.59375 39.234375 62.25 
Q 35.15625 65.921875 28.609375 65.921875 
Q 23.96875 65.921875 18.8125 64.3125 
Q 13.671875 62.703125 7.8125 59.421875 
L 7.8125 69.390625 
Q 13.765625 71.78125 18.9375 73 
Q 24.125 74.21875 28.421875 74.21875 
Q 39.75 74.21875 46.484375 68.546875 
Q 53.21875 62.890625 53.21875 53.421875 
Q 53.21875 48.921875 51.53125 44.890625 
Q 49.859375 40.875 45.40625 35.40625 
Q 44.1875 33.984375 37.640625 27.21875 
Q 31.109375 20.453125 19.1875 8.296875 
" id="BitstreamVeraSans-Roman-32"/>
      </defs>
      <g transform="translate(50.309375 262.51125)scale(0.12 -0.12)">
       <use xlink:href="#BitstreamVeraSans-Roman-2212"/>
       <use x="83.7890625" xlink:href="#BitstreamVeraSans-Roman-32"/>
      </g>
     </g>
    </g>
    <g id="ytick_5">
     <g id="line2d_20">
      <g>
       <use style="stroke:#000000;stroke-width:0.5;" x="72.0" xlink:href="#m748a556efb" y="216.0"/>
      </g>
     </g>
     <g id="line2d_21">
      <g>
       <use style="stroke:#000000;stroke-width:0.5;" x="518.4" xlink:href="#ma2a6695a5f" y="216.0"/>
      </g>
     </g>
     <g id="text_10">
      <!-- 0 -->
      <g transform="translate(60.365 219.31125)scale(0.12 -0.12)">
       <use xlink:href="#BitstreamVeraSans-Roman-30"/>
      </g>
     </g>
    </g>
    <g id="ytick_6">
     <g id="line2d_22">
      <g>
       <use style="stroke:#000000;stroke-width:0.5;" x="72.0" xlink:href="#m748a556efb" y="172.8"/>
      </g>
     </g>
     <g id="line2d_23">
      <g>
       <use style="stroke:#000000;stroke-width:0.5;" x="518.4" xlink:href="#ma2a6695a5f" y="172.8"/>
      </g>
     </g>
     <g id="text_11">
      <!-- 2 -->
      <g transform="translate(60.365 176.11125)scale(0.12 -0.12)">
       <use xlink:href="#BitstreamVeraSans-Roman-32"/>
      </g>
     </g>
    </g>
    <g id="ytick_7">
     <g id="line2d_24">
      <g>
       <use style="stroke:#000000;stroke-width:0.5;" x="72.0" xlink:href="#m748a556efb" y="129.6"/>
      </g>
     </g>
     <g id="line2d_25">
      <g>
       <use style="stroke:#000000;stroke-width:0.5;" x="518.4" xlink:href="#ma2a6695a5f" y="129.6"/>
      </g>
     </g>
     <g id="text_12">
      <!-- 4 -->
      <g transform="translate(60.365 132.91125)scale(0.12 -0.12)">
       <use xlink:href="#BitstreamVeraSans-Roman-34"/>
      </g>
     </g>
    </g>
    <g id="ytick_8">
     <g id="line2d_26">
      <g>
       <use style="stroke:#000000;stroke-width:0.5;" x="72.0" xlink:href="#m748a556efb" y="86.4"/>
      </g>
     </g>
     <g id="line2d_27">
      <g>
       <use style="stroke:#000000;stroke-width:0.5;" x="518.4" xlink:href="#ma2a6695a5f" y="86.4"/>
      </g>
     </g>
     <g id="text_13">
      <!-- 6 -->
      <g transform="translate(60.365 89.71125)scale(0.12 -0.12)">
       <use xlink:href="#BitstreamVeraSans-Roman-36"/>
      </g>
     </g>
    </g>
    <g id="ytick_9">
     <g id="line2d_28">
      <g>
       <use style="stroke:#000000;stroke-width:0.5;" x="72.0" xlink:href="#m748a556efb" y="43.2"/>
      </g>
     </g>
     <g id="line2d_29">
      <g>
       <use style="stroke:#000000;stroke-width:0.5;" x="518.4" xlink:href="#ma2a6695a5f" y="43.2"/>
      </g>
     </g>
     <g id="text_14">
      <!-- 8 -->
      <g transform="translate(60.365 46.51125)scale(0.12 -0.12)">
       <use xlink:href="#BitstreamVeraSans-Roman-38"/>
      </g>
     </g>
    </g>
   </g>
  </g>
 </g>
 <defs>
  <clipPath id="pc80ca046b2">
   <rect height="345.6" width="446.4" x="72.0" y="43.2"/>
  </clipPath>
 </defs>
</svg>
