<?xml version="1.0" encoding="utf-8" standalone="no"?>
<!DOCTYPE svg PUBLIC "-//W3C//DTD SVG 1.1//EN"
  "http://www.w3.org/Graphics/SVG/1.1/DTD/svg11.dtd">
<!-- Created with matplotlib (http://matplotlib.org/) -->
<svg height="432pt" version="1.1" viewBox="0 0 576 432" width="576pt" xmlns="http://www.w3.org/2000/svg" xmlns:xlink="http://www.w3.org/1999/xlink">
 <defs>
  <style type="text/css">
*{stroke-linecap:butt;stroke-linejoin:round;stroke-miterlimit:100000;}
  </style>
 </defs>
 <g id="figure_1">
  <g id="patch_1">
   <path d="M 0 432 
L 576 432 
L 576 0 
L 0 0 
z
" style="fill:#ffffff;"/>
  </g>
  <g id="axes_1">
   <g id="patch_2">
    <path d="M 72 388.8 
L 518.4 388.8 
L 518.4 43.2 
L 72 43.2 
z
" style="fill:#ffffff;"/>
   </g>
   <g id="line2d_1">
    <path clip-path="url(#pe331a1f942)" d="M 404.755767 147.98721 
L 400.091568 142.884834 
L 395.2332 138.045527 
L 390.180662 133.469288 
L 384.933955 129.156119 
L 379.493078 125.106018 
L 373.858032 121.318986 
L 368.028816 117.795022 
L 362.005431 114.534128 
L 355.787877 111.536302 
L 349.376153 108.801545 
L 342.770259 106.329857 
L 335.970196 104.121238 
L 328.975964 102.175687 
L 321.785785 100.489968 
L 283.546675 92.244902 
L 229.753224 80.887783 
L 182.392859 71.049059 
L 174.418513 69.639904 
L 166.838738 68.579204 
L 159.653534 67.866959 
L 152.862901 67.503169 
L 146.466839 67.487834 
L 140.465348 67.820954 
L 134.858427 68.502529 
L 129.646078 69.53256 
L 124.8283 70.911045 
L 122.567375 71.730959 
L 120.405093 72.637986 
L 118.341453 73.632127 
L 116.376456 74.713381 
L 114.510102 75.88175 
L 112.742391 77.137232 
L 111.073322 78.479828 
L 109.502897 79.909538 
L 108.031114 81.426362 
L 106.657973 83.030299 
L 105.383476 84.72135 
L 104.207621 86.499515 
L 103.130409 88.364794 
L 102.151839 90.317186 
L 101.271912 92.356692 
L 100.490629 94.483312 
L 99.807987 96.697046 
L 99.223989 98.997894 
L 98.738633 101.385855 
L 98.06385 106.423119 
L 97.78143 111.804902 
L 97.730098 119.875583 
L 97.930835 127.596715 
L 98.38364 134.968298 
L 99.088514 141.990333 
L 100.045457 148.662818 
L 101.254468 154.985755 
L 102.715548 160.959142 
L 103.82964 164.747207 
L 105.055762 168.379916 
L 106.393914 171.857271 
L 107.844097 175.17927 
L 109.406311 178.345914 
L 111.080555 181.357204 
L 112.86683 184.213138 
L 114.765135 186.913717 
L 116.775471 189.458941 
L 118.897837 191.84881 
L 122.004003 195.280416 
L 123.8136 197.566715 
L 125.411857 199.853014 
L 126.798775 202.139313 
L 127.974352 204.425612 
L 128.93859 206.711911 
L 129.691488 208.99821 
L 130.233046 211.284508 
L 130.563265 213.570807 
L 130.682143 215.857106 
L 130.589682 218.143405 
L 130.285881 220.429704 
L 129.770741 222.716003 
L 129.04426 225.002302 
L 128.10644 227.288601 
L 126.95728 229.5749 
L 125.59678 231.861199 
L 124.02494 234.147498 
L 122.24176 236.433797 
L 120.247241 238.720095 
L 117.03464 242.233829 
L 115.0103 244.759634 
L 113.097991 247.440794 
L 111.297713 250.277309 
L 109.609465 253.269178 
L 108.033247 256.416403 
L 106.56906 259.718983 
L 105.216904 263.176918 
L 103.976778 266.790208 
L 102.848683 270.558854 
L 101.832618 274.482854 
L 100.518578 280.660145 
L 99.456607 287.186985 
L 98.646704 294.063374 
L 98.08887 301.289312 
L 97.783105 308.864799 
L 97.729409 316.789834 
L 97.842479 322.251641 
L 98.270655 327.50669 
L 99.093402 332.413283 
L 99.65274 334.735909 
L 100.31072 336.971421 
L 101.067344 339.11982 
L 101.92261 341.181104 
L 102.876518 343.155275 
L 103.92907 345.042332 
L 105.080264 346.842276 
L 106.330101 348.555105 
L 107.678581 350.180821 
L 109.125703 351.719423 
L 110.671468 353.170911 
L 112.315876 354.535286 
L 114.058927 355.812546 
L 115.90062 357.002693 
L 117.840956 358.105727 
L 119.879935 359.121646 
L 122.017557 360.050452 
L 124.253821 360.892143 
L 126.588728 361.646721 
L 131.55447 362.894536 
L 136.914784 363.793896 
L 142.669668 364.344801 
L 148.819123 364.54725 
L 155.363149 364.401245 
L 162.301747 363.906784 
L 169.634915 363.063868 
L 177.362654 361.872497 
L 185.484964 360.332671 
L 253.760034 346.069337 
L 305.733113 334.995683 
L 326.004394 330.557317 
L 333.07953 328.721379 
L 339.960497 326.622371 
L 346.647294 324.260295 
L 353.139922 321.63515 
L 359.43838 318.746936 
L 365.542669 315.595654 
L 371.452789 312.181303 
L 377.168739 308.503882 
L 382.69052 304.563393 
L 388.018131 300.359836 
L 393.151572 295.893209 
L 398.090845 291.163514 
L 402.835947 286.17075 
L 414.904858 272.774134 
L 420.799357 266.621596 
L 426.60472 260.846661 
L 432.320945 255.449331 
L 437.948034 250.429604 
L 443.485987 245.787482 
L 448.934803 241.522964 
L 454.294482 237.636049 
L 459.565024 234.126739 
L 468.083475 228.689192 
L 470.023418 227.162673 
L 471.715049 225.636154 
L 473.158367 224.109634 
L 474.353372 222.583115 
L 475.300064 221.056595 
L 475.998444 219.530076 
L 476.44851 218.003557 
L 476.650265 216.477037 
L 476.603706 214.950518 
L 476.308835 213.423999 
L 475.76565 211.897479 
L 474.974154 210.37096 
L 473.934344 208.84444 
L 472.646222 207.317921 
L 471.109787 205.791402 
L 469.325039 204.264882 
L 467.291978 202.738363 
L 463.776801 200.448584 
L 458.583587 197.244028 
L 453.296332 193.663917 
L 447.919939 189.706202 
L 442.45441 185.370883 
L 436.899745 180.65796 
L 431.255943 175.567433 
L 425.523004 170.099301 
L 419.700928 164.253566 
L 413.789716 158.030227 
L 407.789367 151.429284 
L 404.755767 147.98721 
L 404.755767 147.98721 
" style="fill:none;stroke:#0000ff;stroke-linecap:square;"/>
   </g>
   <g id="patch_3">
    <path d="M 72 43.2 
L 518.4 43.2 
" style="fill:none;stroke:#000000;stroke-linecap:square;stroke-linejoin:miter;"/>
   </g>
   <g id="patch_4">
    <path d="M 518.4 388.8 
L 518.4 43.2 
" style="fill:none;stroke:#000000;stroke-linecap:square;stroke-linejoin:miter;"/>
   </g>
   <g id="patch_5">
    <path d="M 72 388.8 
L 518.4 388.8 
" style="fill:none;stroke:#000000;stroke-linecap:square;stroke-linejoin:miter;"/>
   </g>
   <g id="patch_6">
    <path d="M 72 388.8 
L 72 43.2 
" style="fill:none;stroke:#000000;stroke-linecap:square;stroke-linejoin:miter;"/>
   </g>
   <g id="matplotlib.axis_1">
    <g id="xtick_1">
     <g id="line2d_2">
      <defs>
       <path d="M 0 0 
L 0 -4 
" id="m3fccbfcfd2" style="stroke:#000000;stroke-width:0.5;"/>
      </defs>
      <g>
       <use style="stroke:#000000;stroke-width:0.5;" x="72.0" xlink:href="#m3fccbfcfd2" y="388.8"/>
      </g>
     </g>
     <g id="line2d_3">
      <defs>
       <path d="M 0 0 
L 0 4 
" id="me14697c9b5" style="stroke:#000000;stroke-width:0.5;"/>
      </defs>
      <g>
       <use style="stroke:#000000;stroke-width:0.5;" x="72.0" xlink:href="#me14697c9b5" y="43.2"/>
      </g>
     </g>
     <g id="text_1">
      <!-- −10 -->
      <defs>
       <path d="M 10.59375 35.5 
L 73.1875 35.5 
L 73.1875 27.203125 
L 10.59375 27.203125 
z
" id="BitstreamVeraSans-Roman-2212"/>
       <path d="M 31.78125 66.40625 
Q 24.171875 66.40625 20.328125 58.90625 
Q 16.5 51.421875 16.5 36.375 
Q 16.5 21.390625 20.328125 13.890625 
Q 24.171875 6.390625 31.78125 6.390625 
Q 39.453125 6.390625 43.28125 13.890625 
Q 47.125 21.390625 47.125 36.375 
Q 47.125 51.421875 43.28125 58.90625 
Q 39.453125 66.40625 31.78125 66.40625 
M 31.78125 74.21875 
Q 44.046875 74.21875 50.515625 64.515625 
Q 56.984375 54.828125 56.984375 36.375 
Q 56.984375 17.96875 50.515625 8.265625 
Q 44.046875 -1.421875 31.78125 -1.421875 
Q 19.53125 -1.421875 13.0625 8.265625 
Q 6.59375 17.96875 6.59375 36.375 
Q 6.59375 54.828125 13.0625 64.515625 
Q 19.53125 74.21875 31.78125 74.21875 
" id="BitstreamVeraSans-Roman-30"/>
       <path d="M 12.40625 8.296875 
L 28.515625 8.296875 
L 28.515625 63.921875 
L 10.984375 60.40625 
L 10.984375 69.390625 
L 28.421875 72.90625 
L 38.28125 72.90625 
L 38.28125 8.296875 
L 54.390625 8.296875 
L 54.390625 0 
L 12.40625 0 
z
" id="BitstreamVeraSans-Roman-31"/>
      </defs>
      <g transform="translate(59.3371875 401.918125)scale(0.12 -0.12)">
       <use xlink:href="#BitstreamVeraSans-Roman-2212"/>
       <use x="83.7890625" xlink:href="#BitstreamVeraSans-Roman-31"/>
       <use x="147.412109375" xlink:href="#BitstreamVeraSans-Roman-30"/>
      </g>
     </g>
    </g>
    <g id="xtick_2">
     <g id="line2d_4">
      <g>
       <use style="stroke:#000000;stroke-width:0.5;" x="161.28" xlink:href="#m3fccbfcfd2" y="388.8"/>
      </g>
     </g>
     <g id="line2d_5">
      <g>
       <use style="stroke:#000000;stroke-width:0.5;" x="161.28" xlink:href="#me14697c9b5" y="43.2"/>
      </g>
     </g>
     <g id="text_2">
      <!-- −5 -->
      <defs>
       <path d="M 10.796875 72.90625 
L 49.515625 72.90625 
L 49.515625 64.59375 
L 19.828125 64.59375 
L 19.828125 46.734375 
Q 21.96875 47.46875 24.109375 47.828125 
Q 26.265625 48.1875 28.421875 48.1875 
Q 40.625 48.1875 47.75 41.5 
Q 54.890625 34.8125 54.890625 23.390625 
Q 54.890625 11.625 47.5625 5.09375 
Q 40.234375 -1.421875 26.90625 -1.421875 
Q 22.3125 -1.421875 17.546875 -0.640625 
Q 12.796875 0.140625 7.71875 1.703125 
L 7.71875 11.625 
Q 12.109375 9.234375 16.796875 8.0625 
Q 21.484375 6.890625 26.703125 6.890625 
Q 35.15625 6.890625 40.078125 11.328125 
Q 45.015625 15.765625 45.015625 23.390625 
Q 45.015625 31 40.078125 35.4375 
Q 35.15625 39.890625 26.703125 39.890625 
Q 22.75 39.890625 18.8125 39.015625 
Q 14.890625 38.140625 10.796875 36.28125 
z
" id="BitstreamVeraSans-Roman-35"/>
      </defs>
      <g transform="translate(152.4346875 401.918125)scale(0.12 -0.12)">
       <use xlink:href="#BitstreamVeraSans-Roman-2212"/>
       <use x="83.7890625" xlink:href="#BitstreamVeraSans-Roman-35"/>
      </g>
     </g>
    </g>
    <g id="xtick_3">
     <g id="line2d_6">
      <g>
       <use style="stroke:#000000;stroke-width:0.5;" x="250.56" xlink:href="#m3fccbfcfd2" y="388.8"/>
      </g>
     </g>
     <g id="line2d_7">
      <g>
       <use style="stroke:#000000;stroke-width:0.5;" x="250.56" xlink:href="#me14697c9b5" y="43.2"/>
      </g>
     </g>
     <g id="text_3">
      <!-- 0 -->
      <g transform="translate(246.7425 401.918125)scale(0.12 -0.12)">
       <use xlink:href="#BitstreamVeraSans-Roman-30"/>
      </g>
     </g>
    </g>
    <g id="xtick_4">
     <g id="line2d_8">
      <g>
       <use style="stroke:#000000;stroke-width:0.5;" x="339.84" xlink:href="#m3fccbfcfd2" y="388.8"/>
      </g>
     </g>
     <g id="line2d_9">
      <g>
       <use style="stroke:#000000;stroke-width:0.5;" x="339.84" xlink:href="#me14697c9b5" y="43.2"/>
      </g>
     </g>
     <g id="text_4">
      <!-- 5 -->
      <g transform="translate(336.0225 401.918125)scale(0.12 -0.12)">
       <use xlink:href="#BitstreamVeraSans-Roman-35"/>
      </g>
     </g>
    </g>
    <g id="xtick_5">
     <g id="line2d_10">
      <g>
       <use style="stroke:#000000;stroke-width:0.5;" x="429.12" xlink:href="#m3fccbfcfd2" y="388.8"/>
      </g>
     </g>
     <g id="line2d_11">
      <g>
       <use style="stroke:#000000;stroke-width:0.5;" x="429.12" xlink:href="#me14697c9b5" y="43.2"/>
      </g>
     </g>
     <g id="text_5">
      <!-- 10 -->
      <g transform="translate(421.485 401.918125)scale(0.12 -0.12)">
       <use xlink:href="#BitstreamVeraSans-Roman-31"/>
       <use x="63.623046875" xlink:href="#BitstreamVeraSans-Roman-30"/>
      </g>
     </g>
    </g>
    <g id="xtick_6">
     <g id="line2d_12">
      <g>
       <use style="stroke:#000000;stroke-width:0.5;" x="518.4" xlink:href="#m3fccbfcfd2" y="388.8"/>
      </g>
     </g>
     <g id="line2d_13">
      <g>
       <use style="stroke:#000000;stroke-width:0.5;" x="518.4" xlink:href="#me14697c9b5" y="43.2"/>
      </g>
     </g>
     <g id="text_6">
      <!-- 15 -->
      <g transform="translate(510.765 401.918125)scale(0.12 -0.12)">
       <use xlink:href="#BitstreamVeraSans-Roman-31"/>
       <use x="63.623046875" xlink:href="#BitstreamVeraSans-Roman-35"/>
      </g>
     </g>
    </g>
   </g>
   <g id="matplotlib.axis_2">
    <g id="ytick_1">
     <g id="line2d_14">
      <defs>
       <path d="M 0 0 
L 4 0 
" id="mfb395b6c92" style="stroke:#000000;stroke-width:0.5;"/>
      </defs>
      <g>
       <use style="stroke:#000000;stroke-width:0.5;" x="72.0" xlink:href="#mfb395b6c92" y="388.8"/>
      </g>
     </g>
     <g id="line2d_15">
      <defs>
       <path d="M 0 0 
L -4 0 
" id="m92a8cf0388" style="stroke:#000000;stroke-width:0.5;"/>
      </defs>
      <g>
       <use style="stroke:#000000;stroke-width:0.5;" x="518.4" xlink:href="#m92a8cf0388" y="388.8"/>
      </g>
     </g>
     <g id="text_7">
      <!-- −10 -->
      <g transform="translate(42.674375 392.11125)scale(0.12 -0.12)">
       <use xlink:href="#BitstreamVeraSans-Roman-2212"/>
       <use x="83.7890625" xlink:href="#BitstreamVeraSans-Roman-31"/>
       <use x="147.412109375" xlink:href="#BitstreamVeraSans-Roman-30"/>
      </g>
     </g>
    </g>
    <g id="ytick_2">
     <g id="line2d_16">
      <g>
       <use style="stroke:#000000;stroke-width:0.5;" x="72.0" xlink:href="#mfb395b6c92" y="302.4"/>
      </g>
     </g>
     <g id="line2d_17">
      <g>
       <use style="stroke:#000000;stroke-width:0.5;" x="518.4" xlink:href="#m92a8cf0388" y="302.4"/>
      </g>
     </g>
     <g id="text_8">
      <!-- −5 -->
      <g transform="translate(50.309375 305.71125)scale(0.12 -0.12)">
       <use xlink:href="#BitstreamVeraSans-Roman-2212"/>
       <use x="83.7890625" xlink:href="#BitstreamVeraSans-Roman-35"/>
      </g>
     </g>
    </g>
    <g id="ytick_3">
     <g id="line2d_18">
      <g>
       <use style="stroke:#000000;stroke-width:0.5;" x="72.0" xlink:href="#mfb395b6c92" y="216.0"/>
      </g>
     </g>
     <g id="line2d_19">
      <g>
       <use style="stroke:#000000;stroke-width:0.5;" x="518.4" xlink:href="#m92a8cf0388" y="216.0"/>
      </g>
     </g>
     <g id="text_9">
      <!-- 0 -->
      <g transform="translate(60.365 219.31125)scale(0.12 -0.12)">
       <use xlink:href="#BitstreamVeraSans-Roman-30"/>
      </g>
     </g>
    </g>
    <g id="ytick_4">
     <g id="line2d_20">
      <g>
       <use style="stroke:#000000;stroke-width:0.5;" x="72.0" xlink:href="#mfb395b6c92" y="129.6"/>
      </g>
     </g>
     <g id="line2d_21">
      <g>
       <use style="stroke:#000000;stroke-width:0.5;" x="518.4" xlink:href="#m92a8cf0388" y="129.6"/>
      </g>
     </g>
     <g id="text_10">
      <!-- 5 -->
      <g transform="translate(60.365 132.91125)scale(0.12 -0.12)">
       <use xlink:href="#BitstreamVeraSans-Roman-35"/>
      </g>
     </g>
    </g>
    <g id="ytick_5">
     <g id="line2d_22">
      <g>
       <use style="stroke:#000000;stroke-width:0.5;" x="72.0" xlink:href="#mfb395b6c92" y="43.2"/>
      </g>
     </g>
     <g id="line2d_23">
      <g>
       <use style="stroke:#000000;stroke-width:0.5;" x="518.4" xlink:href="#m92a8cf0388" y="43.2"/>
      </g>
     </g>
     <g id="text_11">
      <!-- 10 -->
      <g transform="translate(52.73 46.51125)scale(0.12 -0.12)">
       <use xlink:href="#BitstreamVeraSans-Roman-31"/>
       <use x="63.623046875" xlink:href="#BitstreamVeraSans-Roman-30"/>
      </g>
     </g>
    </g>
   </g>
  </g>
 </g>
 <defs>
  <clipPath id="pe331a1f942">
   <rect height="345.6" width="446.4" x="72.0" y="43.2"/>
  </clipPath>
 </defs>
</svg>
