<?xml version="1.0" encoding="utf-8" standalone="no"?>
<!DOCTYPE svg PUBLIC "-//W3C//DTD SVG 1.1//EN"
  "http://www.w3.org/Graphics/SVG/1.1/DTD/svg11.dtd">
<!-- Created with matplotlib (http://matplotlib.org/) -->
<svg height="432pt" version="1.1" viewBox="0 0 576 432" width="576pt" xmlns="http://www.w3.org/2000/svg" xmlns:xlink="http://www.w3.org/1999/xlink">
 <defs>
  <style type="text/css">
*{stroke-linecap:butt;stroke-linejoin:round;stroke-miterlimit:100000;}
  </style>
 </defs>
 <g id="figure_1">
  <g id="patch_1">
   <path d="M 0 432 
L 576 432 
L 576 0 
L 0 0 
z
" style="fill:#ffffff;"/>
  </g>
  <g id="axes_1">
   <g id="patch_2">
    <path d="M 72 388.8 
L 518.4 388.8 
L 518.4 43.2 
L 72 43.2 
z
" style="fill:#ffffff;"/>
   </g>
   <g id="line2d_1">
    <path clip-path="url(#pf1904ed4d8)" d="M 474.530745 139.68339 
L 467.920317 136.58878 
L 459.845218 132.564077 
L 448.221734 126.506712 
L 434.489123 119.110014 
L 415.802043 108.787765 
L 390.930169 94.758687 
L 366.473195 80.915562 
L 359.742404 77.417531 
L 353.300151 74.298759 
L 347.146436 71.559247 
L 341.281259 69.198995 
L 335.70462 67.218002 
L 330.416518 65.616269 
L 325.416954 64.393796 
L 320.705928 63.550582 
L 316.28344 63.086628 
L 312.14949 63.001934 
L 308.304077 63.296499 
L 304.747202 63.970324 
L 301.478865 65.023408 
L 299.952898 65.692172 
L 298.499065 66.455752 
L 297.117367 67.314146 
L 295.807804 68.267356 
L 294.570375 69.31538 
L 293.40508 70.458219 
L 292.31192 71.695873 
L 291.290894 73.028342 
L 290.342002 74.455626 
L 288.660623 77.594638 
L 287.267781 81.11291 
L 285.308033 86.697918 
L 283.076258 92.232898 
L 280.571034 97.716453 
L 277.792361 103.148583 
L 274.740238 108.529288 
L 271.414666 113.858568 
L 267.815644 119.136423 
L 263.943173 124.362853 
L 259.797252 129.537859 
L 255.377882 134.661439 
L 250.685063 139.733595 
L 245.718794 144.754325 
L 240.479075 149.723631 
L 234.967291 154.640967 
L 225.779933 162.483341 
L 216.940122 169.746839 
L 208.447858 176.431462 
L 200.30314 182.537208 
L 192.505969 188.064078 
L 186.518466 192.068784 
L 180.753393 195.703009 
L 175.210749 198.966753 
L 169.890536 201.860016 
L 166.21882 203.869165 
L 163.106102 205.877027 
L 160.555078 207.88489 
L 159.166448 209.223465 
L 158.027458 210.56204 
L 157.13811 211.900614 
L 156.498404 213.239189 
L 156.108339 214.577764 
L 155.967916 215.916339 
L 156.077134 217.254914 
L 156.435994 218.593489 
L 157.044495 219.932064 
L 157.902638 221.270639 
L 159.010422 222.609214 
L 160.367847 223.947788 
L 161.974914 225.286363 
L 163.831623 226.624938 
L 167.084764 228.632801 
L 180.400461 236.082153 
L 186.151632 239.693223 
L 192.125234 243.674774 
L 198.321265 248.026805 
L 206.379096 253.987832 
L 214.784474 260.527735 
L 223.537398 267.646515 
L 232.637869 275.34417 
L 240.030089 281.864582 
L 245.292595 286.829602 
L 250.281651 291.846047 
L 254.997258 296.913917 
L 259.439416 302.033212 
L 263.608124 307.203932 
L 267.503382 312.426077 
L 271.125192 317.699647 
L 274.473551 323.024641 
L 277.548462 328.401061 
L 280.349922 333.828905 
L 282.877934 339.308175 
L 285.132496 344.838869 
L 287.113608 350.420988 
L 288.470738 353.986319 
L 290.116051 357.172739 
L 291.046908 358.623726 
L 292.049901 359.979899 
L 293.125027 361.241256 
L 294.272288 362.407799 
L 295.491684 363.479527 
L 296.783214 364.45644 
L 298.146878 365.338538 
L 299.582677 366.125822 
L 301.09061 366.81829 
L 302.670678 367.415943 
L 304.32288 367.918782 
L 307.843688 368.640014 
L 311.653034 368.981986 
L 315.750917 368.944699 
L 320.137338 368.528153 
L 324.812297 367.732346 
L 329.775793 366.557281 
L 335.027828 365.002955 
L 340.5684 363.06937 
L 346.39751 360.756525 
L 352.515158 358.064421 
L 358.921343 354.993056 
L 365.616066 351.542433 
L 372.599327 347.712549 
L 412.162976 325.247325 
L 433.87116 313.227247 
L 449.790012 304.662872 
L 461.149856 298.772924 
L 470.400573 294.222309 
L 477.544221 290.775199 
L 479.460137 289.534644 
L 481.143881 288.193433 
L 482.595455 286.751567 
L 483.814856 285.209045 
L 484.802087 283.565867 
L 485.557146 281.822033 
L 486.080034 279.977544 
L 486.370751 278.032399 
L 486.429296 275.986598 
L 486.25567 273.840142 
L 485.849873 271.59303 
L 485.211904 269.245262 
L 484.341764 266.796838 
L 483.239453 264.247759 
L 481.904971 261.598024 
L 480.338317 258.847633 
L 477.553015 254.533318 
L 474.245327 249.992527 
L 470.691254 245.284326 
L 468.592368 242.1397 
L 466.731653 238.995075 
L 465.10911 235.850449 
L 463.724738 232.705823 
L 462.578537 229.561198 
L 461.670508 226.416572 
L 461.000651 223.271947 
L 460.568965 220.127321 
L 460.375451 216.982695 
L 460.420108 213.83807 
L 460.702936 210.693444 
L 461.223937 207.548819 
L 461.983108 204.404193 
L 462.980452 201.259568 
L 464.215966 198.114942 
L 465.689653 194.970316 
L 467.40151 191.825691 
L 469.35154 188.681065 
L 471.539741 185.53644 
L 477.297326 177.836431 
L 480.12616 173.503243 
L 481.721836 170.74027 
L 483.08534 168.077953 
L 484.216672 165.516292 
L 485.115834 163.055287 
L 485.782824 160.694937 
L 486.217642 158.435243 
L 486.42029 156.276204 
L 486.390766 154.217822 
L 486.129071 152.260095 
L 485.635204 150.403023 
L 484.909166 148.646608 
L 483.950957 146.990848 
L 482.760577 145.435744 
L 481.338025 143.981295 
L 479.683302 142.627503 
L 477.796408 141.374366 
L 475.677342 140.221885 
L 474.530745 139.68339 
L 474.530745 139.68339 
" style="fill:none;stroke:#0000ff;stroke-linecap:square;"/>
   </g>
   <g id="patch_3">
    <path d="M 72 43.2 
L 518.4 43.2 
" style="fill:none;stroke:#000000;stroke-linecap:square;stroke-linejoin:miter;"/>
   </g>
   <g id="patch_4">
    <path d="M 518.4 388.8 
L 518.4 43.2 
" style="fill:none;stroke:#000000;stroke-linecap:square;stroke-linejoin:miter;"/>
   </g>
   <g id="patch_5">
    <path d="M 72 388.8 
L 518.4 388.8 
" style="fill:none;stroke:#000000;stroke-linecap:square;stroke-linejoin:miter;"/>
   </g>
   <g id="patch_6">
    <path d="M 72 388.8 
L 72 43.2 
" style="fill:none;stroke:#000000;stroke-linecap:square;stroke-linejoin:miter;"/>
   </g>
   <g id="matplotlib.axis_1">
    <g id="xtick_1">
     <g id="line2d_2">
      <defs>
       <path d="M 0 0 
L 0 -4 
" id="ma61646d310" style="stroke:#000000;stroke-width:0.5;"/>
      </defs>
      <g>
       <use style="stroke:#000000;stroke-width:0.5;" x="72.0" xlink:href="#ma61646d310" y="388.8"/>
      </g>
     </g>
     <g id="line2d_3">
      <defs>
       <path d="M 0 0 
L 0 4 
" id="md982cb3ca3" style="stroke:#000000;stroke-width:0.5;"/>
      </defs>
      <g>
       <use style="stroke:#000000;stroke-width:0.5;" x="72.0" xlink:href="#md982cb3ca3" y="43.2"/>
      </g>
     </g>
     <g id="text_1">
      <!-- −15 -->
      <defs>
       <path d="M 10.59375 35.5 
L 73.1875 35.5 
L 73.1875 27.203125 
L 10.59375 27.203125 
z
" id="BitstreamVeraSans-Roman-2212"/>
       <path d="M 12.40625 8.296875 
L 28.515625 8.296875 
L 28.515625 63.921875 
L 10.984375 60.40625 
L 10.984375 69.390625 
L 28.421875 72.90625 
L 38.28125 72.90625 
L 38.28125 8.296875 
L 54.390625 8.296875 
L 54.390625 0 
L 12.40625 0 
z
" id="BitstreamVeraSans-Roman-31"/>
       <path d="M 10.796875 72.90625 
L 49.515625 72.90625 
L 49.515625 64.59375 
L 19.828125 64.59375 
L 19.828125 46.734375 
Q 21.96875 47.46875 24.109375 47.828125 
Q 26.265625 48.1875 28.421875 48.1875 
Q 40.625 48.1875 47.75 41.5 
Q 54.890625 34.8125 54.890625 23.390625 
Q 54.890625 11.625 47.5625 5.09375 
Q 40.234375 -1.421875 26.90625 -1.421875 
Q 22.3125 -1.421875 17.546875 -0.640625 
Q 12.796875 0.140625 7.71875 1.703125 
L 7.71875 11.625 
Q 12.109375 9.234375 16.796875 8.0625 
Q 21.484375 6.890625 26.703125 6.890625 
Q 35.15625 6.890625 40.078125 11.328125 
Q 45.015625 15.765625 45.015625 23.390625 
Q 45.015625 31 40.078125 35.4375 
Q 35.15625 39.890625 26.703125 39.890625 
Q 22.75 39.890625 18.8125 39.015625 
Q 14.890625 38.140625 10.796875 36.28125 
z
" id="BitstreamVeraSans-Roman-35"/>
      </defs>
      <g transform="translate(59.3371875 401.918125)scale(0.12 -0.12)">
       <use xlink:href="#BitstreamVeraSans-Roman-2212"/>
       <use x="83.7890625" xlink:href="#BitstreamVeraSans-Roman-31"/>
       <use x="147.412109375" xlink:href="#BitstreamVeraSans-Roman-35"/>
      </g>
     </g>
    </g>
    <g id="xtick_2">
     <g id="line2d_4">
      <g>
       <use style="stroke:#000000;stroke-width:0.5;" x="161.28" xlink:href="#ma61646d310" y="388.8"/>
      </g>
     </g>
     <g id="line2d_5">
      <g>
       <use style="stroke:#000000;stroke-width:0.5;" x="161.28" xlink:href="#md982cb3ca3" y="43.2"/>
      </g>
     </g>
     <g id="text_2">
      <!-- −10 -->
      <defs>
       <path d="M 31.78125 66.40625 
Q 24.171875 66.40625 20.328125 58.90625 
Q 16.5 51.421875 16.5 36.375 
Q 16.5 21.390625 20.328125 13.890625 
Q 24.171875 6.390625 31.78125 6.390625 
Q 39.453125 6.390625 43.28125 13.890625 
Q 47.125 21.390625 47.125 36.375 
Q 47.125 51.421875 43.28125 58.90625 
Q 39.453125 66.40625 31.78125 66.40625 
M 31.78125 74.21875 
Q 44.046875 74.21875 50.515625 64.515625 
Q 56.984375 54.828125 56.984375 36.375 
Q 56.984375 17.96875 50.515625 8.265625 
Q 44.046875 -1.421875 31.78125 -1.421875 
Q 19.53125 -1.421875 13.0625 8.265625 
Q 6.59375 17.96875 6.59375 36.375 
Q 6.59375 54.828125 13.0625 64.515625 
Q 19.53125 74.21875 31.78125 74.21875 
" id="BitstreamVeraSans-Roman-30"/>
      </defs>
      <g transform="translate(148.6171875 401.918125)scale(0.12 -0.12)">
       <use xlink:href="#BitstreamVeraSans-Roman-2212"/>
       <use x="83.7890625" xlink:href="#BitstreamVeraSans-Roman-31"/>
       <use x="147.412109375" xlink:href="#BitstreamVeraSans-Roman-30"/>
      </g>
     </g>
    </g>
    <g id="xtick_3">
     <g id="line2d_6">
      <g>
       <use style="stroke:#000000;stroke-width:0.5;" x="250.56" xlink:href="#ma61646d310" y="388.8"/>
      </g>
     </g>
     <g id="line2d_7">
      <g>
       <use style="stroke:#000000;stroke-width:0.5;" x="250.56" xlink:href="#md982cb3ca3" y="43.2"/>
      </g>
     </g>
     <g id="text_3">
      <!-- −5 -->
      <g transform="translate(241.7146875 401.918125)scale(0.12 -0.12)">
       <use xlink:href="#BitstreamVeraSans-Roman-2212"/>
       <use x="83.7890625" xlink:href="#BitstreamVeraSans-Roman-35"/>
      </g>
     </g>
    </g>
    <g id="xtick_4">
     <g id="line2d_8">
      <g>
       <use style="stroke:#000000;stroke-width:0.5;" x="339.84" xlink:href="#ma61646d310" y="388.8"/>
      </g>
     </g>
     <g id="line2d_9">
      <g>
       <use style="stroke:#000000;stroke-width:0.5;" x="339.84" xlink:href="#md982cb3ca3" y="43.2"/>
      </g>
     </g>
     <g id="text_4">
      <!-- 0 -->
      <g transform="translate(336.0225 401.918125)scale(0.12 -0.12)">
       <use xlink:href="#BitstreamVeraSans-Roman-30"/>
      </g>
     </g>
    </g>
    <g id="xtick_5">
     <g id="line2d_10">
      <g>
       <use style="stroke:#000000;stroke-width:0.5;" x="429.12" xlink:href="#ma61646d310" y="388.8"/>
      </g>
     </g>
     <g id="line2d_11">
      <g>
       <use style="stroke:#000000;stroke-width:0.5;" x="429.12" xlink:href="#md982cb3ca3" y="43.2"/>
      </g>
     </g>
     <g id="text_5">
      <!-- 5 -->
      <g transform="translate(425.3025 401.918125)scale(0.12 -0.12)">
       <use xlink:href="#BitstreamVeraSans-Roman-35"/>
      </g>
     </g>
    </g>
    <g id="xtick_6">
     <g id="line2d_12">
      <g>
       <use style="stroke:#000000;stroke-width:0.5;" x="518.4" xlink:href="#ma61646d310" y="388.8"/>
      </g>
     </g>
     <g id="line2d_13">
      <g>
       <use style="stroke:#000000;stroke-width:0.5;" x="518.4" xlink:href="#md982cb3ca3" y="43.2"/>
      </g>
     </g>
     <g id="text_6">
      <!-- 10 -->
      <g transform="translate(510.765 401.918125)scale(0.12 -0.12)">
       <use xlink:href="#BitstreamVeraSans-Roman-31"/>
       <use x="63.623046875" xlink:href="#BitstreamVeraSans-Roman-30"/>
      </g>
     </g>
    </g>
   </g>
   <g id="matplotlib.axis_2">
    <g id="ytick_1">
     <g id="line2d_14">
      <defs>
       <path d="M 0 0 
L 4 0 
" id="m15d169a6ec" style="stroke:#000000;stroke-width:0.5;"/>
      </defs>
      <g>
       <use style="stroke:#000000;stroke-width:0.5;" x="72.0" xlink:href="#m15d169a6ec" y="388.8"/>
      </g>
     </g>
     <g id="line2d_15">
      <defs>
       <path d="M 0 0 
L -4 0 
" id="m9981b52bc0" style="stroke:#000000;stroke-width:0.5;"/>
      </defs>
      <g>
       <use style="stroke:#000000;stroke-width:0.5;" x="518.4" xlink:href="#m9981b52bc0" y="388.8"/>
      </g>
     </g>
     <g id="text_7">
      <!-- −10 -->
      <g transform="translate(42.674375 392.11125)scale(0.12 -0.12)">
       <use xlink:href="#BitstreamVeraSans-Roman-2212"/>
       <use x="83.7890625" xlink:href="#BitstreamVeraSans-Roman-31"/>
       <use x="147.412109375" xlink:href="#BitstreamVeraSans-Roman-30"/>
      </g>
     </g>
    </g>
    <g id="ytick_2">
     <g id="line2d_16">
      <g>
       <use style="stroke:#000000;stroke-width:0.5;" x="72.0" xlink:href="#m15d169a6ec" y="302.4"/>
      </g>
     </g>
     <g id="line2d_17">
      <g>
       <use style="stroke:#000000;stroke-width:0.5;" x="518.4" xlink:href="#m9981b52bc0" y="302.4"/>
      </g>
     </g>
     <g id="text_8">
      <!-- −5 -->
      <g transform="translate(50.309375 305.71125)scale(0.12 -0.12)">
       <use xlink:href="#BitstreamVeraSans-Roman-2212"/>
       <use x="83.7890625" xlink:href="#BitstreamVeraSans-Roman-35"/>
      </g>
     </g>
    </g>
    <g id="ytick_3">
     <g id="line2d_18">
      <g>
       <use style="stroke:#000000;stroke-width:0.5;" x="72.0" xlink:href="#m15d169a6ec" y="216.0"/>
      </g>
     </g>
     <g id="line2d_19">
      <g>
       <use style="stroke:#000000;stroke-width:0.5;" x="518.4" xlink:href="#m9981b52bc0" y="216.0"/>
      </g>
     </g>
     <g id="text_9">
      <!-- 0 -->
      <g transform="translate(60.365 219.31125)scale(0.12 -0.12)">
       <use xlink:href="#BitstreamVeraSans-Roman-30"/>
      </g>
     </g>
    </g>
    <g id="ytick_4">
     <g id="line2d_20">
      <g>
       <use style="stroke:#000000;stroke-width:0.5;" x="72.0" xlink:href="#m15d169a6ec" y="129.6"/>
      </g>
     </g>
     <g id="line2d_21">
      <g>
       <use style="stroke:#000000;stroke-width:0.5;" x="518.4" xlink:href="#m9981b52bc0" y="129.6"/>
      </g>
     </g>
     <g id="text_10">
      <!-- 5 -->
      <g transform="translate(60.365 132.91125)scale(0.12 -0.12)">
       <use xlink:href="#BitstreamVeraSans-Roman-35"/>
      </g>
     </g>
    </g>
    <g id="ytick_5">
     <g id="line2d_22">
      <g>
       <use style="stroke:#000000;stroke-width:0.5;" x="72.0" xlink:href="#m15d169a6ec" y="43.2"/>
      </g>
     </g>
     <g id="line2d_23">
      <g>
       <use style="stroke:#000000;stroke-width:0.5;" x="518.4" xlink:href="#m9981b52bc0" y="43.2"/>
      </g>
     </g>
     <g id="text_11">
      <!-- 10 -->
      <g transform="translate(52.73 46.51125)scale(0.12 -0.12)">
       <use xlink:href="#BitstreamVeraSans-Roman-31"/>
       <use x="63.623046875" xlink:href="#BitstreamVeraSans-Roman-30"/>
      </g>
     </g>
    </g>
   </g>
  </g>
 </g>
 <defs>
  <clipPath id="pf1904ed4d8">
   <rect height="345.6" width="446.4" x="72.0" y="43.2"/>
  </clipPath>
 </defs>
</svg>
