<?xml version="1.0" encoding="utf-8" standalone="no"?>
<!DOCTYPE svg PUBLIC "-//W3C//DTD SVG 1.1//EN"
  "http://www.w3.org/Graphics/SVG/1.1/DTD/svg11.dtd">
<!-- Created with matplotlib (http://matplotlib.org/) -->
<svg height="432pt" version="1.1" viewBox="0 0 576 432" width="576pt" xmlns="http://www.w3.org/2000/svg" xmlns:xlink="http://www.w3.org/1999/xlink">
 <defs>
  <style type="text/css">
*{stroke-linecap:butt;stroke-linejoin:round;stroke-miterlimit:100000;}
  </style>
 </defs>
 <g id="figure_1">
  <g id="patch_1">
   <path d="M 0 432 
L 576 432 
L 576 0 
L 0 0 
z
" style="fill:#ffffff;"/>
  </g>
  <g id="axes_1">
   <g id="patch_2">
    <path d="M 72 388.8 
L 518.4 388.8 
L 518.4 43.2 
L 72 43.2 
z
" style="fill:#ffffff;"/>
   </g>
   <g id="line2d_1">
    <path clip-path="url(#p48d5beca2c)" d="M 437.006504 135.469691 
L 411.572593 128.225716 
L 387.768503 121.215065 
L 365.594233 114.437736 
L 347.030886 108.537632 
L 337.276946 105.431962 
L 331.581106 103.90642 
L 325.996795 102.68081 
L 320.524011 101.755134 
L 315.162755 101.129389 
L 309.913026 100.803577 
L 304.774826 100.777698 
L 299.748154 101.051751 
L 294.833009 101.625737 
L 290.029392 102.499655 
L 285.337303 103.673506 
L 280.756742 105.14729 
L 276.287709 106.921005 
L 271.930204 108.994654 
L 267.614178 111.373623 
L 263.252861 114.064588 
L 258.846009 117.067567 
L 254.393622 120.38256 
L 249.8957 124.009568 
L 245.352244 127.94859 
L 240.763254 132.199626 
L 236.128729 136.762677 
L 231.448669 141.637741 
L 226.723075 146.82482 
L 221.951946 152.323914 
L 215.519609 160.141394 
L 209.006322 168.513566 
L 202.509669 176.980489 
L 197.774173 182.798629 
L 193.15944 188.144978 
L 188.665471 193.019537 
L 184.292265 197.422304 
L 180.039823 201.353281 
L 175.908144 204.812468 
L 171.897229 207.799863 
L 168.007077 210.315468 
L 165.480734 211.730432 
L 163.008063 212.935711 
L 160.589064 213.931305 
L 158.223739 214.717215 
L 155.912086 215.29344 
L 153.654106 215.65998 
L 151.449798 215.816835 
L 139.816223 215.998933 
L 140.435492 216.041597 
L 147.240925 216.143989 
L 153.375632 216.308946 
L 155.626903 216.649276 
L 157.931847 217.19929 
L 160.290464 217.958989 
L 162.702753 218.928373 
L 165.168715 220.107441 
L 167.688349 221.496194 
L 170.261656 223.094632 
L 174.222253 225.885448 
L 178.303614 229.148055 
L 182.505738 232.882453 
L 186.828626 237.088641 
L 191.272277 241.76662 
L 195.836692 246.91639 
L 200.52187 252.537951 
L 205.327812 258.631302 
L 215.1149 271.351596 
L 221.552297 279.203745 
L 226.32722 284.728839 
L 231.056609 289.941919 
L 235.740463 294.842985 
L 240.378783 299.432037 
L 244.971568 303.709074 
L 249.518818 307.674097 
L 254.020534 311.327106 
L 258.476715 314.668101 
L 262.887362 317.697081 
L 267.252474 320.414047 
L 271.572052 322.818999 
L 275.920324 324.917646 
L 280.380063 326.716357 
L 284.95133 328.215134 
L 289.634125 329.413979 
L 294.428448 330.312892 
L 299.334299 330.911872 
L 304.351677 331.21092 
L 309.480583 331.210035 
L 314.721018 330.909218 
L 320.07298 330.308468 
L 325.53647 329.407785 
L 331.111487 328.20717 
L 336.798033 326.706623 
L 342.596323 324.907865 
L 360.829631 319.055008 
L 380.383094 313.01316 
L 401.256711 306.78232 
L 425.997948 299.637507 
L 441.444625 295.211542 
L 446.136136 293.629304 
L 450.421645 291.966985 
L 454.301152 290.224586 
L 457.774656 288.402106 
L 460.842158 286.499545 
L 463.503658 284.516904 
L 465.759156 282.454181 
L 467.608652 280.311379 
L 469.052145 278.088495 
L 470.089636 275.785531 
L 470.721125 273.402487 
L 470.946612 270.939361 
L 470.766096 268.396155 
L 470.179578 265.772868 
L 469.187058 263.069501 
L 467.788536 260.286053 
L 465.984011 257.422524 
L 463.773484 254.478915 
L 461.156955 251.455225 
L 452.418706 242.077457 
L 450.020135 238.940319 
L 447.928581 235.803181 
L 446.144044 232.666044 
L 444.666524 229.528906 
L 443.496021 226.391768 
L 442.632535 223.254631 
L 442.076067 220.117493 
L 441.826616 216.980356 
L 441.884181 213.843218 
L 442.248764 210.70608 
L 442.920364 207.568943 
L 443.898981 204.431805 
L 445.184615 201.294667 
L 446.777267 198.15753 
L 448.676935 195.020392 
L 450.883621 191.883254 
L 453.397323 188.746117 
L 456.218043 185.608979 
L 462.185732 179.401507 
L 464.65001 176.407847 
L 466.708286 173.494268 
L 468.36056 170.66077 
L 469.606831 167.907352 
L 470.447101 165.234015 
L 470.881368 162.640758 
L 470.909632 160.127582 
L 470.531895 157.694487 
L 469.748155 155.341473 
L 468.558413 153.068539 
L 466.962669 150.875686 
L 464.960923 148.762913 
L 462.553174 146.730221 
L 459.739423 144.77761 
L 456.51967 142.90508 
L 452.893915 141.11263 
L 448.862158 139.400261 
L 444.424398 137.767972 
L 439.580636 136.215764 
L 437.006504 135.469691 
L 437.006504 135.469691 
" style="fill:none;stroke:#0000ff;stroke-linecap:square;"/>
   </g>
   <g id="patch_3">
    <path d="M 72 43.2 
L 518.4 43.2 
" style="fill:none;stroke:#000000;stroke-linecap:square;stroke-linejoin:miter;"/>
   </g>
   <g id="patch_4">
    <path d="M 518.4 388.8 
L 518.4 43.2 
" style="fill:none;stroke:#000000;stroke-linecap:square;stroke-linejoin:miter;"/>
   </g>
   <g id="patch_5">
    <path d="M 72 388.8 
L 518.4 388.8 
" style="fill:none;stroke:#000000;stroke-linecap:square;stroke-linejoin:miter;"/>
   </g>
   <g id="patch_6">
    <path d="M 72 388.8 
L 72 43.2 
" style="fill:none;stroke:#000000;stroke-linecap:square;stroke-linejoin:miter;"/>
   </g>
   <g id="matplotlib.axis_1">
    <g id="xtick_1">
     <g id="line2d_2">
      <defs>
       <path d="M 0 0 
L 0 -4 
" id="m47226121cd" style="stroke:#000000;stroke-width:0.5;"/>
      </defs>
      <g>
       <use style="stroke:#000000;stroke-width:0.5;" x="72.0" xlink:href="#m47226121cd" y="388.8"/>
      </g>
     </g>
     <g id="line2d_3">
      <defs>
       <path d="M 0 0 
L 0 4 
" id="mc1e09e295d" style="stroke:#000000;stroke-width:0.5;"/>
      </defs>
      <g>
       <use style="stroke:#000000;stroke-width:0.5;" x="72.0" xlink:href="#mc1e09e295d" y="43.2"/>
      </g>
     </g>
     <g id="text_1">
      <!-- −15 -->
      <defs>
       <path d="M 10.59375 35.5 
L 73.1875 35.5 
L 73.1875 27.203125 
L 10.59375 27.203125 
z
" id="BitstreamVeraSans-Roman-2212"/>
       <path d="M 12.40625 8.296875 
L 28.515625 8.296875 
L 28.515625 63.921875 
L 10.984375 60.40625 
L 10.984375 69.390625 
L 28.421875 72.90625 
L 38.28125 72.90625 
L 38.28125 8.296875 
L 54.390625 8.296875 
L 54.390625 0 
L 12.40625 0 
z
" id="BitstreamVeraSans-Roman-31"/>
       <path d="M 10.796875 72.90625 
L 49.515625 72.90625 
L 49.515625 64.59375 
L 19.828125 64.59375 
L 19.828125 46.734375 
Q 21.96875 47.46875 24.109375 47.828125 
Q 26.265625 48.1875 28.421875 48.1875 
Q 40.625 48.1875 47.75 41.5 
Q 54.890625 34.8125 54.890625 23.390625 
Q 54.890625 11.625 47.5625 5.09375 
Q 40.234375 -1.421875 26.90625 -1.421875 
Q 22.3125 -1.421875 17.546875 -0.640625 
Q 12.796875 0.140625 7.71875 1.703125 
L 7.71875 11.625 
Q 12.109375 9.234375 16.796875 8.0625 
Q 21.484375 6.890625 26.703125 6.890625 
Q 35.15625 6.890625 40.078125 11.328125 
Q 45.015625 15.765625 45.015625 23.390625 
Q 45.015625 31 40.078125 35.4375 
Q 35.15625 39.890625 26.703125 39.890625 
Q 22.75 39.890625 18.8125 39.015625 
Q 14.890625 38.140625 10.796875 36.28125 
z
" id="BitstreamVeraSans-Roman-35"/>
      </defs>
      <g transform="translate(59.3371875 401.918125)scale(0.12 -0.12)">
       <use xlink:href="#BitstreamVeraSans-Roman-2212"/>
       <use x="83.7890625" xlink:href="#BitstreamVeraSans-Roman-31"/>
       <use x="147.412109375" xlink:href="#BitstreamVeraSans-Roman-35"/>
      </g>
     </g>
    </g>
    <g id="xtick_2">
     <g id="line2d_4">
      <g>
       <use style="stroke:#000000;stroke-width:0.5;" x="146.4" xlink:href="#m47226121cd" y="388.8"/>
      </g>
     </g>
     <g id="line2d_5">
      <g>
       <use style="stroke:#000000;stroke-width:0.5;" x="146.4" xlink:href="#mc1e09e295d" y="43.2"/>
      </g>
     </g>
     <g id="text_2">
      <!-- −10 -->
      <defs>
       <path d="M 31.78125 66.40625 
Q 24.171875 66.40625 20.328125 58.90625 
Q 16.5 51.421875 16.5 36.375 
Q 16.5 21.390625 20.328125 13.890625 
Q 24.171875 6.390625 31.78125 6.390625 
Q 39.453125 6.390625 43.28125 13.890625 
Q 47.125 21.390625 47.125 36.375 
Q 47.125 51.421875 43.28125 58.90625 
Q 39.453125 66.40625 31.78125 66.40625 
M 31.78125 74.21875 
Q 44.046875 74.21875 50.515625 64.515625 
Q 56.984375 54.828125 56.984375 36.375 
Q 56.984375 17.96875 50.515625 8.265625 
Q 44.046875 -1.421875 31.78125 -1.421875 
Q 19.53125 -1.421875 13.0625 8.265625 
Q 6.59375 17.96875 6.59375 36.375 
Q 6.59375 54.828125 13.0625 64.515625 
Q 19.53125 74.21875 31.78125 74.21875 
" id="BitstreamVeraSans-Roman-30"/>
      </defs>
      <g transform="translate(133.7371875 401.918125)scale(0.12 -0.12)">
       <use xlink:href="#BitstreamVeraSans-Roman-2212"/>
       <use x="83.7890625" xlink:href="#BitstreamVeraSans-Roman-31"/>
       <use x="147.412109375" xlink:href="#BitstreamVeraSans-Roman-30"/>
      </g>
     </g>
    </g>
    <g id="xtick_3">
     <g id="line2d_6">
      <g>
       <use style="stroke:#000000;stroke-width:0.5;" x="220.8" xlink:href="#m47226121cd" y="388.8"/>
      </g>
     </g>
     <g id="line2d_7">
      <g>
       <use style="stroke:#000000;stroke-width:0.5;" x="220.8" xlink:href="#mc1e09e295d" y="43.2"/>
      </g>
     </g>
     <g id="text_3">
      <!-- −5 -->
      <g transform="translate(211.9546875 401.918125)scale(0.12 -0.12)">
       <use xlink:href="#BitstreamVeraSans-Roman-2212"/>
       <use x="83.7890625" xlink:href="#BitstreamVeraSans-Roman-35"/>
      </g>
     </g>
    </g>
    <g id="xtick_4">
     <g id="line2d_8">
      <g>
       <use style="stroke:#000000;stroke-width:0.5;" x="295.2" xlink:href="#m47226121cd" y="388.8"/>
      </g>
     </g>
     <g id="line2d_9">
      <g>
       <use style="stroke:#000000;stroke-width:0.5;" x="295.2" xlink:href="#mc1e09e295d" y="43.2"/>
      </g>
     </g>
     <g id="text_4">
      <!-- 0 -->
      <g transform="translate(291.3825 401.918125)scale(0.12 -0.12)">
       <use xlink:href="#BitstreamVeraSans-Roman-30"/>
      </g>
     </g>
    </g>
    <g id="xtick_5">
     <g id="line2d_10">
      <g>
       <use style="stroke:#000000;stroke-width:0.5;" x="369.6" xlink:href="#m47226121cd" y="388.8"/>
      </g>
     </g>
     <g id="line2d_11">
      <g>
       <use style="stroke:#000000;stroke-width:0.5;" x="369.6" xlink:href="#mc1e09e295d" y="43.2"/>
      </g>
     </g>
     <g id="text_5">
      <!-- 5 -->
      <g transform="translate(365.7825 401.918125)scale(0.12 -0.12)">
       <use xlink:href="#BitstreamVeraSans-Roman-35"/>
      </g>
     </g>
    </g>
    <g id="xtick_6">
     <g id="line2d_12">
      <g>
       <use style="stroke:#000000;stroke-width:0.5;" x="444.0" xlink:href="#m47226121cd" y="388.8"/>
      </g>
     </g>
     <g id="line2d_13">
      <g>
       <use style="stroke:#000000;stroke-width:0.5;" x="444.0" xlink:href="#mc1e09e295d" y="43.2"/>
      </g>
     </g>
     <g id="text_6">
      <!-- 10 -->
      <g transform="translate(436.365 401.918125)scale(0.12 -0.12)">
       <use xlink:href="#BitstreamVeraSans-Roman-31"/>
       <use x="63.623046875" xlink:href="#BitstreamVeraSans-Roman-30"/>
      </g>
     </g>
    </g>
    <g id="xtick_7">
     <g id="line2d_14">
      <g>
       <use style="stroke:#000000;stroke-width:0.5;" x="518.4" xlink:href="#m47226121cd" y="388.8"/>
      </g>
     </g>
     <g id="line2d_15">
      <g>
       <use style="stroke:#000000;stroke-width:0.5;" x="518.4" xlink:href="#mc1e09e295d" y="43.2"/>
      </g>
     </g>
     <g id="text_7">
      <!-- 15 -->
      <g transform="translate(510.765 401.918125)scale(0.12 -0.12)">
       <use xlink:href="#BitstreamVeraSans-Roman-31"/>
       <use x="63.623046875" xlink:href="#BitstreamVeraSans-Roman-35"/>
      </g>
     </g>
    </g>
   </g>
   <g id="matplotlib.axis_2">
    <g id="ytick_1">
     <g id="line2d_16">
      <defs>
       <path d="M 0 0 
L 4 0 
" id="m627a925a92" style="stroke:#000000;stroke-width:0.5;"/>
      </defs>
      <g>
       <use style="stroke:#000000;stroke-width:0.5;" x="72.0" xlink:href="#m627a925a92" y="388.8"/>
      </g>
     </g>
     <g id="line2d_17">
      <defs>
       <path d="M 0 0 
L -4 0 
" id="md64dc0d8d8" style="stroke:#000000;stroke-width:0.5;"/>
      </defs>
      <g>
       <use style="stroke:#000000;stroke-width:0.5;" x="518.4" xlink:href="#md64dc0d8d8" y="388.8"/>
      </g>
     </g>
     <g id="text_8">
      <!-- −15 -->
      <g transform="translate(42.674375 392.11125)scale(0.12 -0.12)">
       <use xlink:href="#BitstreamVeraSans-Roman-2212"/>
       <use x="83.7890625" xlink:href="#BitstreamVeraSans-Roman-31"/>
       <use x="147.412109375" xlink:href="#BitstreamVeraSans-Roman-35"/>
      </g>
     </g>
    </g>
    <g id="ytick_2">
     <g id="line2d_18">
      <g>
       <use style="stroke:#000000;stroke-width:0.5;" x="72.0" xlink:href="#m627a925a92" y="331.2"/>
      </g>
     </g>
     <g id="line2d_19">
      <g>
       <use style="stroke:#000000;stroke-width:0.5;" x="518.4" xlink:href="#md64dc0d8d8" y="331.2"/>
      </g>
     </g>
     <g id="text_9">
      <!-- −10 -->
      <g transform="translate(42.674375 334.51125)scale(0.12 -0.12)">
       <use xlink:href="#BitstreamVeraSans-Roman-2212"/>
       <use x="83.7890625" xlink:href="#BitstreamVeraSans-Roman-31"/>
       <use x="147.412109375" xlink:href="#BitstreamVeraSans-Roman-30"/>
      </g>
     </g>
    </g>
    <g id="ytick_3">
     <g id="line2d_20">
      <g>
       <use style="stroke:#000000;stroke-width:0.5;" x="72.0" xlink:href="#m627a925a92" y="273.6"/>
      </g>
     </g>
     <g id="line2d_21">
      <g>
       <use style="stroke:#000000;stroke-width:0.5;" x="518.4" xlink:href="#md64dc0d8d8" y="273.6"/>
      </g>
     </g>
     <g id="text_10">
      <!-- −5 -->
      <g transform="translate(50.309375 276.91125)scale(0.12 -0.12)">
       <use xlink:href="#BitstreamVeraSans-Roman-2212"/>
       <use x="83.7890625" xlink:href="#BitstreamVeraSans-Roman-35"/>
      </g>
     </g>
    </g>
    <g id="ytick_4">
     <g id="line2d_22">
      <g>
       <use style="stroke:#000000;stroke-width:0.5;" x="72.0" xlink:href="#m627a925a92" y="216.0"/>
      </g>
     </g>
     <g id="line2d_23">
      <g>
       <use style="stroke:#000000;stroke-width:0.5;" x="518.4" xlink:href="#md64dc0d8d8" y="216.0"/>
      </g>
     </g>
     <g id="text_11">
      <!-- 0 -->
      <g transform="translate(60.365 219.31125)scale(0.12 -0.12)">
       <use xlink:href="#BitstreamVeraSans-Roman-30"/>
      </g>
     </g>
    </g>
    <g id="ytick_5">
     <g id="line2d_24">
      <g>
       <use style="stroke:#000000;stroke-width:0.5;" x="72.0" xlink:href="#m627a925a92" y="158.4"/>
      </g>
     </g>
     <g id="line2d_25">
      <g>
       <use style="stroke:#000000;stroke-width:0.5;" x="518.4" xlink:href="#md64dc0d8d8" y="158.4"/>
      </g>
     </g>
     <g id="text_12">
      <!-- 5 -->
      <g transform="translate(60.365 161.71125)scale(0.12 -0.12)">
       <use xlink:href="#BitstreamVeraSans-Roman-35"/>
      </g>
     </g>
    </g>
    <g id="ytick_6">
     <g id="line2d_26">
      <g>
       <use style="stroke:#000000;stroke-width:0.5;" x="72.0" xlink:href="#m627a925a92" y="100.8"/>
      </g>
     </g>
     <g id="line2d_27">
      <g>
       <use style="stroke:#000000;stroke-width:0.5;" x="518.4" xlink:href="#md64dc0d8d8" y="100.8"/>
      </g>
     </g>
     <g id="text_13">
      <!-- 10 -->
      <g transform="translate(52.73 104.11125)scale(0.12 -0.12)">
       <use xlink:href="#BitstreamVeraSans-Roman-31"/>
       <use x="63.623046875" xlink:href="#BitstreamVeraSans-Roman-30"/>
      </g>
     </g>
    </g>
    <g id="ytick_7">
     <g id="line2d_28">
      <g>
       <use style="stroke:#000000;stroke-width:0.5;" x="72.0" xlink:href="#m627a925a92" y="43.2"/>
      </g>
     </g>
     <g id="line2d_29">
      <g>
       <use style="stroke:#000000;stroke-width:0.5;" x="518.4" xlink:href="#md64dc0d8d8" y="43.2"/>
      </g>
     </g>
     <g id="text_14">
      <!-- 15 -->
      <g transform="translate(52.73 46.51125)scale(0.12 -0.12)">
       <use xlink:href="#BitstreamVeraSans-Roman-31"/>
       <use x="63.623046875" xlink:href="#BitstreamVeraSans-Roman-35"/>
      </g>
     </g>
    </g>
   </g>
  </g>
 </g>
 <defs>
  <clipPath id="p48d5beca2c">
   <rect height="345.6" width="446.4" x="72.0" y="43.2"/>
  </clipPath>
 </defs>
</svg>
