<?xml version="1.0" encoding="utf-8" standalone="no"?>
<!DOCTYPE svg PUBLIC "-//W3C//DTD SVG 1.1//EN"
  "http://www.w3.org/Graphics/SVG/1.1/DTD/svg11.dtd">
<!-- Created with matplotlib (http://matplotlib.org/) -->
<svg height="432pt" version="1.1" viewBox="0 0 576 432" width="576pt" xmlns="http://www.w3.org/2000/svg" xmlns:xlink="http://www.w3.org/1999/xlink">
 <defs>
  <style type="text/css">
*{stroke-linecap:butt;stroke-linejoin:round;stroke-miterlimit:100000;}
  </style>
 </defs>
 <g id="figure_1">
  <g id="patch_1">
   <path d="M 0 432 
L 576 432 
L 576 0 
L 0 0 
z
" style="fill:#ffffff;"/>
  </g>
  <g id="axes_1">
   <g id="patch_2">
    <path d="M 72 388.8 
L 518.4 388.8 
L 518.4 43.2 
L 72 43.2 
z
" style="fill:#ffffff;"/>
   </g>
   <g id="line2d_1">
    <path clip-path="url(#p88f184e6a8)" d="M 375.598427 147.968434 
L 374.633258 146.113657 
L 373.420374 144.231031 
L 371.959774 142.320555 
L 370.251459 140.382228 
L 368.295427 138.416052 
L 364.896913 135.41457 
L 360.941038 132.350425 
L 356.427803 129.223618 
L 351.357207 126.034149 
L 345.729251 122.782018 
L 339.543934 119.467225 
L 332.801257 116.089769 
L 325.501219 112.649651 
L 317.643821 109.146871 
L 306.300284 104.379024 
L 297.459996 100.880827 
L 289.022754 97.775942 
L 281.007065 95.073154 
L 273.412927 92.772463 
L 266.240342 90.873869 
L 259.489309 89.377372 
L 253.159828 88.282972 
L 249.17437 87.77676 
L 245.376269 87.449257 
L 241.765523 87.300463 
L 238.342135 87.33038 
L 235.106103 87.539006 
L 232.057427 87.926342 
L 229.196108 88.492388 
L 226.522145 89.237144 
L 224.035539 90.160609 
L 221.73629 91.262785 
L 219.615232 92.539093 
L 217.593911 93.950355 
L 215.654364 95.4876 
L 213.79659 97.150829 
L 211.163255 99.88189 
L 208.713911 102.896414 
L 206.448557 106.1944 
L 204.367194 109.775849 
L 202.469822 113.640759 
L 200.75644 117.789132 
L 199.227049 122.220968 
L 197.881649 126.936265 
L 196.720239 131.935025 
L 195.742819 137.217247 
L 194.949391 142.782932 
L 193.986079 150.488554 
L 193.230844 154.207268 
L 192.254584 157.805079 
L 191.057301 161.281988 
L 189.638992 164.637996 
L 187.99966 167.873101 
L 186.139302 170.987305 
L 184.057921 173.980606 
L 181.755515 176.853005 
L 179.232084 179.604503 
L 176.487629 182.235098 
L 173.52215 184.744792 
L 170.335646 187.133583 
L 166.928118 189.401473 
L 163.299566 191.54846 
L 159.449989 193.574546 
L 155.379387 195.479729 
L 151.087761 197.26401 
L 146.575111 198.92739 
L 141.841436 200.469867 
L 130.218627 204.000297 
L 126.347435 205.401722 
L 122.956391 206.803148 
L 120.045495 208.204573 
L 117.614747 209.605998 
L 115.664146 211.007423 
L 114.193694 212.408848 
L 113.203389 213.810273 
L 112.693232 215.211698 
L 112.618209 215.912411 
L 112.663223 216.613123 
L 112.828273 217.313836 
L 113.113361 218.014549 
L 114.043648 219.415974 
L 115.454082 220.817399 
L 117.344664 222.218824 
L 119.715393 223.620249 
L 122.566271 225.021674 
L 125.897296 226.423099 
L 129.70847 227.824525 
L 133.999791 229.22595 
L 145.995489 232.873189 
L 150.535767 234.521455 
L 154.855021 236.290624 
L 158.953251 238.180695 
L 162.830456 240.191667 
L 166.486636 242.323542 
L 169.921793 244.576319 
L 173.135924 246.949997 
L 176.129032 249.444578 
L 178.901115 252.060061 
L 181.452173 254.796446 
L 183.782207 257.653732 
L 185.891217 260.631921 
L 187.779202 263.731012 
L 189.446163 266.951004 
L 190.892099 270.291899 
L 192.117011 273.753696 
L 193.120899 277.336394 
L 193.903762 281.039995 
L 194.465601 284.864498 
L 195.130499 290.635064 
L 195.969925 296.129883 
L 196.993342 301.341239 
L 198.20075 306.269134 
L 199.592148 310.913566 
L 201.167537 315.274536 
L 202.926916 319.352043 
L 204.870286 323.146088 
L 206.997647 326.656671 
L 209.308998 329.883792 
L 211.80434 332.82745 
L 214.483672 335.487646 
L 216.372111 337.103631 
L 218.342323 338.593632 
L 220.394309 339.957651 
L 222.576553 341.171474 
L 224.946061 342.206633 
L 227.502925 343.063082 
L 230.247147 343.740822 
L 233.178724 344.239851 
L 236.297659 344.560171 
L 239.60395 344.701781 
L 243.097597 344.664682 
L 246.778601 344.448872 
L 250.646961 344.054353 
L 254.702678 343.481124 
L 261.137547 342.2862 
L 267.993968 340.689179 
L 275.271941 338.69006 
L 282.971467 336.288845 
L 291.092544 333.485533 
L 299.635174 330.280124 
L 308.502673 326.718519 
L 319.660423 321.971559 
L 327.378481 318.484445 
L 334.539178 315.059992 
L 341.142516 311.698202 
L 347.188492 308.399074 
L 352.677108 305.162609 
L 357.608364 301.988805 
L 361.982259 298.877664 
L 365.798794 295.829185 
L 369.057968 292.843368 
L 370.921106 290.887636 
L 372.536528 288.959753 
L 373.904235 287.059721 
L 375.024226 285.187538 
L 376.980837 281.477172 
L 378.269635 279.590258 
L 379.797094 277.678777 
L 381.563212 275.74273 
L 383.567991 273.782116 
L 387.022646 270.795132 
L 391.014287 267.752874 
L 395.542914 264.65534 
L 400.608525 261.502531 
L 406.211122 258.294448 
L 412.350705 255.031089 
L 419.027272 251.712456 
L 426.240825 248.338547 
L 433.991363 244.909363 
L 445.157958 240.251221 
L 450.635766 237.899587 
L 455.555326 235.547954 
L 459.916638 233.19632 
L 463.719702 230.844687 
L 466.964518 228.493053 
L 469.651086 226.141419 
L 471.779406 223.789786 
L 472.634223 222.613969 
L 473.349479 221.438152 
L 473.925172 220.262336 
L 474.361303 219.086519 
L 474.657872 217.910702 
L 474.814879 216.734885 
L 474.832325 215.559069 
L 474.710208 214.383252 
L 474.448529 213.207435 
L 474.047288 212.031618 
L 473.506486 210.855802 
L 472.826121 209.679985 
L 472.006194 208.504168 
L 469.947655 206.152535 
L 467.330868 203.800901 
L 464.155833 201.449268 
L 460.42255 199.097634 
L 456.131019 196.746001 
L 451.28124 194.394367 
L 445.873213 192.042734 
L 434.66148 187.378897 
L 424.387095 182.812794 
L 417.307788 179.452704 
L 410.765467 176.147889 
L 404.760131 172.898349 
L 399.29178 169.704084 
L 394.360415 166.565095 
L 389.966035 163.48138 
L 386.10864 160.45294 
L 382.788231 157.479775 
L 380.87295 155.528373 
L 379.196329 153.601538 
L 377.758368 151.69927 
L 376.559067 149.821569 
L 375.598427 147.968434 
L 375.598427 147.968434 
" style="fill:none;stroke:#0000ff;stroke-linecap:square;"/>
   </g>
   <g id="patch_3">
    <path d="M 72 43.2 
L 518.4 43.2 
" style="fill:none;stroke:#000000;stroke-linecap:square;stroke-linejoin:miter;"/>
   </g>
   <g id="patch_4">
    <path d="M 518.4 388.8 
L 518.4 43.2 
" style="fill:none;stroke:#000000;stroke-linecap:square;stroke-linejoin:miter;"/>
   </g>
   <g id="patch_5">
    <path d="M 72 388.8 
L 518.4 388.8 
" style="fill:none;stroke:#000000;stroke-linecap:square;stroke-linejoin:miter;"/>
   </g>
   <g id="patch_6">
    <path d="M 72 388.8 
L 72 43.2 
" style="fill:none;stroke:#000000;stroke-linecap:square;stroke-linejoin:miter;"/>
   </g>
   <g id="matplotlib.axis_1">
    <g id="xtick_1">
     <g id="line2d_2">
      <defs>
       <path d="M 0 0 
L 0 -4 
" id="mdc2f1a14fb" style="stroke:#000000;stroke-width:0.5;"/>
      </defs>
      <g>
       <use style="stroke:#000000;stroke-width:0.5;" x="72.0" xlink:href="#mdc2f1a14fb" y="388.8"/>
      </g>
     </g>
     <g id="line2d_3">
      <defs>
       <path d="M 0 0 
L 0 4 
" id="m9cf9879213" style="stroke:#000000;stroke-width:0.5;"/>
      </defs>
      <g>
       <use style="stroke:#000000;stroke-width:0.5;" x="72.0" xlink:href="#m9cf9879213" y="43.2"/>
      </g>
     </g>
     <g id="text_1">
      <!-- −15 -->
      <defs>
       <path d="M 10.59375 35.5 
L 73.1875 35.5 
L 73.1875 27.203125 
L 10.59375 27.203125 
z
" id="BitstreamVeraSans-Roman-2212"/>
       <path d="M 12.40625 8.296875 
L 28.515625 8.296875 
L 28.515625 63.921875 
L 10.984375 60.40625 
L 10.984375 69.390625 
L 28.421875 72.90625 
L 38.28125 72.90625 
L 38.28125 8.296875 
L 54.390625 8.296875 
L 54.390625 0 
L 12.40625 0 
z
" id="BitstreamVeraSans-Roman-31"/>
       <path d="M 10.796875 72.90625 
L 49.515625 72.90625 
L 49.515625 64.59375 
L 19.828125 64.59375 
L 19.828125 46.734375 
Q 21.96875 47.46875 24.109375 47.828125 
Q 26.265625 48.1875 28.421875 48.1875 
Q 40.625 48.1875 47.75 41.5 
Q 54.890625 34.8125 54.890625 23.390625 
Q 54.890625 11.625 47.5625 5.09375 
Q 40.234375 -1.421875 26.90625 -1.421875 
Q 22.3125 -1.421875 17.546875 -0.640625 
Q 12.796875 0.140625 7.71875 1.703125 
L 7.71875 11.625 
Q 12.109375 9.234375 16.796875 8.0625 
Q 21.484375 6.890625 26.703125 6.890625 
Q 35.15625 6.890625 40.078125 11.328125 
Q 45.015625 15.765625 45.015625 23.390625 
Q 45.015625 31 40.078125 35.4375 
Q 35.15625 39.890625 26.703125 39.890625 
Q 22.75 39.890625 18.8125 39.015625 
Q 14.890625 38.140625 10.796875 36.28125 
z
" id="BitstreamVeraSans-Roman-35"/>
      </defs>
      <g transform="translate(59.3371875 401.918125)scale(0.12 -0.12)">
       <use xlink:href="#BitstreamVeraSans-Roman-2212"/>
       <use x="83.7890625" xlink:href="#BitstreamVeraSans-Roman-31"/>
       <use x="147.412109375" xlink:href="#BitstreamVeraSans-Roman-35"/>
      </g>
     </g>
    </g>
    <g id="xtick_2">
     <g id="line2d_4">
      <g>
       <use style="stroke:#000000;stroke-width:0.5;" x="146.4" xlink:href="#mdc2f1a14fb" y="388.8"/>
      </g>
     </g>
     <g id="line2d_5">
      <g>
       <use style="stroke:#000000;stroke-width:0.5;" x="146.4" xlink:href="#m9cf9879213" y="43.2"/>
      </g>
     </g>
     <g id="text_2">
      <!-- −10 -->
      <defs>
       <path d="M 31.78125 66.40625 
Q 24.171875 66.40625 20.328125 58.90625 
Q 16.5 51.421875 16.5 36.375 
Q 16.5 21.390625 20.328125 13.890625 
Q 24.171875 6.390625 31.78125 6.390625 
Q 39.453125 6.390625 43.28125 13.890625 
Q 47.125 21.390625 47.125 36.375 
Q 47.125 51.421875 43.28125 58.90625 
Q 39.453125 66.40625 31.78125 66.40625 
M 31.78125 74.21875 
Q 44.046875 74.21875 50.515625 64.515625 
Q 56.984375 54.828125 56.984375 36.375 
Q 56.984375 17.96875 50.515625 8.265625 
Q 44.046875 -1.421875 31.78125 -1.421875 
Q 19.53125 -1.421875 13.0625 8.265625 
Q 6.59375 17.96875 6.59375 36.375 
Q 6.59375 54.828125 13.0625 64.515625 
Q 19.53125 74.21875 31.78125 74.21875 
" id="BitstreamVeraSans-Roman-30"/>
      </defs>
      <g transform="translate(133.7371875 401.918125)scale(0.12 -0.12)">
       <use xlink:href="#BitstreamVeraSans-Roman-2212"/>
       <use x="83.7890625" xlink:href="#BitstreamVeraSans-Roman-31"/>
       <use x="147.412109375" xlink:href="#BitstreamVeraSans-Roman-30"/>
      </g>
     </g>
    </g>
    <g id="xtick_3">
     <g id="line2d_6">
      <g>
       <use style="stroke:#000000;stroke-width:0.5;" x="220.8" xlink:href="#mdc2f1a14fb" y="388.8"/>
      </g>
     </g>
     <g id="line2d_7">
      <g>
       <use style="stroke:#000000;stroke-width:0.5;" x="220.8" xlink:href="#m9cf9879213" y="43.2"/>
      </g>
     </g>
     <g id="text_3">
      <!-- −5 -->
      <g transform="translate(211.9546875 401.918125)scale(0.12 -0.12)">
       <use xlink:href="#BitstreamVeraSans-Roman-2212"/>
       <use x="83.7890625" xlink:href="#BitstreamVeraSans-Roman-35"/>
      </g>
     </g>
    </g>
    <g id="xtick_4">
     <g id="line2d_8">
      <g>
       <use style="stroke:#000000;stroke-width:0.5;" x="295.2" xlink:href="#mdc2f1a14fb" y="388.8"/>
      </g>
     </g>
     <g id="line2d_9">
      <g>
       <use style="stroke:#000000;stroke-width:0.5;" x="295.2" xlink:href="#m9cf9879213" y="43.2"/>
      </g>
     </g>
     <g id="text_4">
      <!-- 0 -->
      <g transform="translate(291.3825 401.918125)scale(0.12 -0.12)">
       <use xlink:href="#BitstreamVeraSans-Roman-30"/>
      </g>
     </g>
    </g>
    <g id="xtick_5">
     <g id="line2d_10">
      <g>
       <use style="stroke:#000000;stroke-width:0.5;" x="369.6" xlink:href="#mdc2f1a14fb" y="388.8"/>
      </g>
     </g>
     <g id="line2d_11">
      <g>
       <use style="stroke:#000000;stroke-width:0.5;" x="369.6" xlink:href="#m9cf9879213" y="43.2"/>
      </g>
     </g>
     <g id="text_5">
      <!-- 5 -->
      <g transform="translate(365.7825 401.918125)scale(0.12 -0.12)">
       <use xlink:href="#BitstreamVeraSans-Roman-35"/>
      </g>
     </g>
    </g>
    <g id="xtick_6">
     <g id="line2d_12">
      <g>
       <use style="stroke:#000000;stroke-width:0.5;" x="444.0" xlink:href="#mdc2f1a14fb" y="388.8"/>
      </g>
     </g>
     <g id="line2d_13">
      <g>
       <use style="stroke:#000000;stroke-width:0.5;" x="444.0" xlink:href="#m9cf9879213" y="43.2"/>
      </g>
     </g>
     <g id="text_6">
      <!-- 10 -->
      <g transform="translate(436.365 401.918125)scale(0.12 -0.12)">
       <use xlink:href="#BitstreamVeraSans-Roman-31"/>
       <use x="63.623046875" xlink:href="#BitstreamVeraSans-Roman-30"/>
      </g>
     </g>
    </g>
    <g id="xtick_7">
     <g id="line2d_14">
      <g>
       <use style="stroke:#000000;stroke-width:0.5;" x="518.4" xlink:href="#mdc2f1a14fb" y="388.8"/>
      </g>
     </g>
     <g id="line2d_15">
      <g>
       <use style="stroke:#000000;stroke-width:0.5;" x="518.4" xlink:href="#m9cf9879213" y="43.2"/>
      </g>
     </g>
     <g id="text_7">
      <!-- 15 -->
      <g transform="translate(510.765 401.918125)scale(0.12 -0.12)">
       <use xlink:href="#BitstreamVeraSans-Roman-31"/>
       <use x="63.623046875" xlink:href="#BitstreamVeraSans-Roman-35"/>
      </g>
     </g>
    </g>
   </g>
   <g id="matplotlib.axis_2">
    <g id="ytick_1">
     <g id="line2d_16">
      <defs>
       <path d="M 0 0 
L 4 0 
" id="m83881e5ac5" style="stroke:#000000;stroke-width:0.5;"/>
      </defs>
      <g>
       <use style="stroke:#000000;stroke-width:0.5;" x="72.0" xlink:href="#m83881e5ac5" y="388.8"/>
      </g>
     </g>
     <g id="line2d_17">
      <defs>
       <path d="M 0 0 
L -4 0 
" id="mb06c8b75eb" style="stroke:#000000;stroke-width:0.5;"/>
      </defs>
      <g>
       <use style="stroke:#000000;stroke-width:0.5;" x="518.4" xlink:href="#mb06c8b75eb" y="388.8"/>
      </g>
     </g>
     <g id="text_8">
      <!-- −15 -->
      <g transform="translate(42.674375 392.11125)scale(0.12 -0.12)">
       <use xlink:href="#BitstreamVeraSans-Roman-2212"/>
       <use x="83.7890625" xlink:href="#BitstreamVeraSans-Roman-31"/>
       <use x="147.412109375" xlink:href="#BitstreamVeraSans-Roman-35"/>
      </g>
     </g>
    </g>
    <g id="ytick_2">
     <g id="line2d_18">
      <g>
       <use style="stroke:#000000;stroke-width:0.5;" x="72.0" xlink:href="#m83881e5ac5" y="331.2"/>
      </g>
     </g>
     <g id="line2d_19">
      <g>
       <use style="stroke:#000000;stroke-width:0.5;" x="518.4" xlink:href="#mb06c8b75eb" y="331.2"/>
      </g>
     </g>
     <g id="text_9">
      <!-- −10 -->
      <g transform="translate(42.674375 334.51125)scale(0.12 -0.12)">
       <use xlink:href="#BitstreamVeraSans-Roman-2212"/>
       <use x="83.7890625" xlink:href="#BitstreamVeraSans-Roman-31"/>
       <use x="147.412109375" xlink:href="#BitstreamVeraSans-Roman-30"/>
      </g>
     </g>
    </g>
    <g id="ytick_3">
     <g id="line2d_20">
      <g>
       <use style="stroke:#000000;stroke-width:0.5;" x="72.0" xlink:href="#m83881e5ac5" y="273.6"/>
      </g>
     </g>
     <g id="line2d_21">
      <g>
       <use style="stroke:#000000;stroke-width:0.5;" x="518.4" xlink:href="#mb06c8b75eb" y="273.6"/>
      </g>
     </g>
     <g id="text_10">
      <!-- −5 -->
      <g transform="translate(50.309375 276.91125)scale(0.12 -0.12)">
       <use xlink:href="#BitstreamVeraSans-Roman-2212"/>
       <use x="83.7890625" xlink:href="#BitstreamVeraSans-Roman-35"/>
      </g>
     </g>
    </g>
    <g id="ytick_4">
     <g id="line2d_22">
      <g>
       <use style="stroke:#000000;stroke-width:0.5;" x="72.0" xlink:href="#m83881e5ac5" y="216.0"/>
      </g>
     </g>
     <g id="line2d_23">
      <g>
       <use style="stroke:#000000;stroke-width:0.5;" x="518.4" xlink:href="#mb06c8b75eb" y="216.0"/>
      </g>
     </g>
     <g id="text_11">
      <!-- 0 -->
      <g transform="translate(60.365 219.31125)scale(0.12 -0.12)">
       <use xlink:href="#BitstreamVeraSans-Roman-30"/>
      </g>
     </g>
    </g>
    <g id="ytick_5">
     <g id="line2d_24">
      <g>
       <use style="stroke:#000000;stroke-width:0.5;" x="72.0" xlink:href="#m83881e5ac5" y="158.4"/>
      </g>
     </g>
     <g id="line2d_25">
      <g>
       <use style="stroke:#000000;stroke-width:0.5;" x="518.4" xlink:href="#mb06c8b75eb" y="158.4"/>
      </g>
     </g>
     <g id="text_12">
      <!-- 5 -->
      <g transform="translate(60.365 161.71125)scale(0.12 -0.12)">
       <use xlink:href="#BitstreamVeraSans-Roman-35"/>
      </g>
     </g>
    </g>
    <g id="ytick_6">
     <g id="line2d_26">
      <g>
       <use style="stroke:#000000;stroke-width:0.5;" x="72.0" xlink:href="#m83881e5ac5" y="100.8"/>
      </g>
     </g>
     <g id="line2d_27">
      <g>
       <use style="stroke:#000000;stroke-width:0.5;" x="518.4" xlink:href="#mb06c8b75eb" y="100.8"/>
      </g>
     </g>
     <g id="text_13">
      <!-- 10 -->
      <g transform="translate(52.73 104.11125)scale(0.12 -0.12)">
       <use xlink:href="#BitstreamVeraSans-Roman-31"/>
       <use x="63.623046875" xlink:href="#BitstreamVeraSans-Roman-30"/>
      </g>
     </g>
    </g>
    <g id="ytick_7">
     <g id="line2d_28">
      <g>
       <use style="stroke:#000000;stroke-width:0.5;" x="72.0" xlink:href="#m83881e5ac5" y="43.2"/>
      </g>
     </g>
     <g id="line2d_29">
      <g>
       <use style="stroke:#000000;stroke-width:0.5;" x="518.4" xlink:href="#mb06c8b75eb" y="43.2"/>
      </g>
     </g>
     <g id="text_14">
      <!-- 15 -->
      <g transform="translate(52.73 46.51125)scale(0.12 -0.12)">
       <use xlink:href="#BitstreamVeraSans-Roman-31"/>
       <use x="63.623046875" xlink:href="#BitstreamVeraSans-Roman-35"/>
      </g>
     </g>
    </g>
   </g>
  </g>
 </g>
 <defs>
  <clipPath id="p88f184e6a8">
   <rect height="345.6" width="446.4" x="72.0" y="43.2"/>
  </clipPath>
 </defs>
</svg>
