<?xml version="1.0" encoding="utf-8" standalone="no"?>
<!DOCTYPE svg PUBLIC "-//W3C//DTD SVG 1.1//EN"
  "http://www.w3.org/Graphics/SVG/1.1/DTD/svg11.dtd">
<!-- Created with matplotlib (http://matplotlib.org/) -->
<svg height="432pt" version="1.1" viewBox="0 0 576 432" width="576pt" xmlns="http://www.w3.org/2000/svg" xmlns:xlink="http://www.w3.org/1999/xlink">
 <defs>
  <style type="text/css">
*{stroke-linecap:butt;stroke-linejoin:round;stroke-miterlimit:100000;}
  </style>
 </defs>
 <g id="figure_1">
  <g id="patch_1">
   <path d="M 0 432 
L 576 432 
L 576 0 
L 0 0 
z
" style="fill:#ffffff;"/>
  </g>
  <g id="axes_1">
   <g id="patch_2">
    <path d="M 72 388.8 
L 518.4 388.8 
L 518.4 43.2 
L 72 43.2 
z
" style="fill:#ffffff;"/>
   </g>
   <g id="line2d_1">
    <path clip-path="url(#p6d1a62873e)" d="M 436.94945 111.339405 
L 430.703361 109.855396 
L 424.694277 108.146768 
L 418.922199 106.213521 
L 413.387126 104.055656 
L 408.08906 101.673173 
L 403.027999 99.066071 
L 398.203944 96.234351 
L 393.616895 93.178012 
L 389.266852 89.897055 
L 385.153814 86.391479 
L 381.277782 82.661285 
L 377.638757 78.706473 
L 374.236736 74.527042 
L 371.068281 70.129322 
L 368.977629 67.275112 
L 366.833755 64.612756 
L 364.636657 62.142255 
L 362.386338 59.863609 
L 360.082795 57.776818 
L 357.72603 55.881882 
L 355.316042 54.178801 
L 352.852832 52.667574 
L 350.336399 51.348203 
L 347.766743 50.220686 
L 345.143865 49.285024 
L 342.467764 48.541217 
L 339.73844 47.989265 
L 336.955894 47.629167 
L 334.120125 47.460925 
L 331.231134 47.484537 
L 328.28892 47.700004 
L 325.293483 48.107326 
L 322.244824 48.706503 
L 319.142942 49.497535 
L 314.317486 51.004455 
L 303.196055 54.712906 
L 287.643538 60.156265 
L 269.315236 66.802366 
L 244.969684 75.870656 
L 213.247315 87.950234 
L 197.841718 93.951116 
L 190.67271 97.067224 
L 184.127536 100.25075 
L 178.206196 103.501692 
L 172.90869 106.820052 
L 168.235019 110.205829 
L 166.13212 111.923999 
L 164.185181 113.659023 
L 162.3942 115.410902 
L 160.759177 117.179634 
L 159.280113 118.965221 
L 157.957007 120.767663 
L 156.78986 122.586958 
L 155.778671 124.423108 
L 154.923441 126.276112 
L 154.22417 128.145971 
L 153.680856 130.032683 
L 153.293502 131.93625 
L 153.062106 133.856672 
L 152.986668 135.793947 
L 153.067189 137.748077 
L 153.303668 139.719061 
L 153.696106 141.7069 
L 154.244503 143.711592 
L 154.948858 145.733139 
L 155.809171 147.77154 
L 156.825443 149.826796 
L 157.997673 151.898906 
L 159.325862 153.98787 
L 160.81001 156.093688 
L 162.450115 158.216361 
L 166.198203 162.512269 
L 170.570124 166.875594 
L 180.194901 175.74457 
L 184.395278 180.186548 
L 188.1051 184.628527 
L 191.324367 189.070505 
L 194.053079 193.512484 
L 196.291236 197.954462 
L 197.226356 200.175451 
L 198.038838 202.396441 
L 198.728681 204.61743 
L 199.295885 206.838419 
L 199.74045 209.059409 
L 200.062377 211.280398 
L 200.261665 213.501387 
L 200.338314 215.722376 
L 200.292325 217.943366 
L 200.123696 220.164355 
L 199.832429 222.385344 
L 199.418524 224.606333 
L 198.881979 226.827323 
L 198.222796 229.048312 
L 197.440974 231.269301 
L 196.536513 233.49029 
L 195.509414 235.71128 
L 193.087299 240.153258 
L 190.174629 244.595237 
L 186.771403 249.037215 
L 182.877623 253.479194 
L 178.493288 257.921172 
L 173.619366 262.363092 
L 168.857548 266.768553 
L 164.719564 271.106597 
L 161.205415 275.377224 
L 159.682278 277.487256 
L 158.315099 279.580433 
L 157.103879 281.656757 
L 156.048618 283.716226 
L 155.149315 285.758841 
L 154.40597 287.784601 
L 153.818584 289.793507 
L 153.387157 291.785559 
L 153.111688 293.760757 
L 152.992177 295.7191 
L 153.028625 297.660589 
L 153.221032 299.585224 
L 153.569397 301.493005 
L 154.07372 303.383931 
L 154.734002 305.258003 
L 155.550243 307.115221 
L 156.522442 308.955584 
L 157.650599 310.779093 
L 158.934715 312.585748 
L 160.37479 314.375549 
L 161.970823 316.148495 
L 163.722814 317.904587 
L 165.630764 319.643825 
L 167.694673 321.366208 
L 172.290365 324.760412 
L 177.509892 328.087199 
L 183.353253 331.346569 
L 189.820447 334.538522 
L 196.911476 337.663058 
L 204.599763 340.719215 
L 237.469267 353.295844 
L 265.75023 363.884266 
L 287.036753 371.627085 
L 302.688406 377.113398 
L 315.564273 381.396969 
L 320.312385 382.821585 
L 323.394308 383.540671 
L 326.423009 384.067902 
L 329.398487 384.403279 
L 332.320743 384.546801 
L 335.189776 384.498467 
L 338.005586 384.258279 
L 340.768174 383.826236 
L 343.477539 383.202339 
L 346.133681 382.386586 
L 348.736601 381.378978 
L 351.286298 380.179516 
L 353.782773 378.788199 
L 356.226025 377.205027 
L 358.616054 375.43 
L 360.95286 373.463118 
L 363.236444 371.304381 
L 365.466806 368.95379 
L 367.643945 366.411343 
L 369.767861 363.677042 
L 375.065022 356.407043 
L 378.526294 352.283766 
L 382.224571 348.385108 
L 386.159854 344.711069 
L 390.332143 341.261648 
L 394.741438 338.036845 
L 399.387739 335.036661 
L 404.271045 332.261096 
L 409.391357 329.710148 
L 414.748675 327.38382 
L 420.342999 325.282109 
L 426.174328 323.405017 
L 432.242664 321.752544 
L 442.633041 319.236703 
L 446.577352 317.991989 
L 450.36233 316.571142 
L 453.987975 314.974164 
L 457.454286 313.201054 
L 460.761264 311.251813 
L 463.908909 309.126439 
L 466.89722 306.824933 
L 469.726197 304.347296 
L 472.395842 301.693526 
L 474.906152 298.863625 
L 477.25713 295.857592 
L 479.448774 292.675427 
L 481.481084 289.31713 
L 483.354061 285.782701 
L 485.067705 282.07214 
L 486.622015 278.185447 
L 488.016992 274.122623 
L 489.252636 269.883666 
L 490.328946 265.468578 
L 491.685649 258.619053 
L 492.834951 251.754239 
L 493.782916 244.889425 
L 494.529543 238.024611 
L 495.074832 231.159797 
L 495.418784 224.294983 
L 495.561398 217.43017 
L 495.502675 210.565356 
L 495.242613 203.700542 
L 494.781215 196.835728 
L 494.118478 189.970914 
L 493.254404 183.1061 
L 492.188993 176.241286 
L 490.922244 169.376472 
L 489.944001 164.855124 
L 488.807941 160.506085 
L 487.512548 156.333178 
L 486.057821 152.336402 
L 484.443761 148.515759 
L 482.670367 144.871248 
L 480.73764 141.402868 
L 478.645579 138.110621 
L 476.394185 134.994505 
L 473.983458 132.054522 
L 471.413397 129.29067 
L 468.684003 126.70295 
L 465.795275 124.291362 
L 462.747214 122.055905 
L 459.539819 119.996581 
L 456.173091 118.113389 
L 452.64703 116.406328 
L 448.961635 114.8754 
L 445.116907 113.520603 
L 441.112846 112.341938 
L 436.94945 111.339405 
L 436.94945 111.339405 
" style="fill:none;stroke:#0000ff;stroke-linecap:square;"/>
   </g>
   <g id="patch_3">
    <path d="M 72 43.2 
L 518.4 43.2 
" style="fill:none;stroke:#000000;stroke-linecap:square;stroke-linejoin:miter;"/>
   </g>
   <g id="patch_4">
    <path d="M 518.4 388.8 
L 518.4 43.2 
" style="fill:none;stroke:#000000;stroke-linecap:square;stroke-linejoin:miter;"/>
   </g>
   <g id="patch_5">
    <path d="M 72 388.8 
L 518.4 388.8 
" style="fill:none;stroke:#000000;stroke-linecap:square;stroke-linejoin:miter;"/>
   </g>
   <g id="patch_6">
    <path d="M 72 388.8 
L 72 43.2 
" style="fill:none;stroke:#000000;stroke-linecap:square;stroke-linejoin:miter;"/>
   </g>
   <g id="matplotlib.axis_1">
    <g id="xtick_1">
     <g id="line2d_2">
      <defs>
       <path d="M 0 0 
L 0 -4 
" id="m2db39e59e9" style="stroke:#000000;stroke-width:0.5;"/>
      </defs>
      <g>
       <use style="stroke:#000000;stroke-width:0.5;" x="72.0" xlink:href="#m2db39e59e9" y="388.8"/>
      </g>
     </g>
     <g id="line2d_3">
      <defs>
       <path d="M 0 0 
L 0 4 
" id="ma4e8d9fd9b" style="stroke:#000000;stroke-width:0.5;"/>
      </defs>
      <g>
       <use style="stroke:#000000;stroke-width:0.5;" x="72.0" xlink:href="#ma4e8d9fd9b" y="43.2"/>
      </g>
     </g>
     <g id="text_1">
      <!-- −15 -->
      <defs>
       <path d="M 10.59375 35.5 
L 73.1875 35.5 
L 73.1875 27.203125 
L 10.59375 27.203125 
z
" id="BitstreamVeraSans-Roman-2212"/>
       <path d="M 12.40625 8.296875 
L 28.515625 8.296875 
L 28.515625 63.921875 
L 10.984375 60.40625 
L 10.984375 69.390625 
L 28.421875 72.90625 
L 38.28125 72.90625 
L 38.28125 8.296875 
L 54.390625 8.296875 
L 54.390625 0 
L 12.40625 0 
z
" id="BitstreamVeraSans-Roman-31"/>
       <path d="M 10.796875 72.90625 
L 49.515625 72.90625 
L 49.515625 64.59375 
L 19.828125 64.59375 
L 19.828125 46.734375 
Q 21.96875 47.46875 24.109375 47.828125 
Q 26.265625 48.1875 28.421875 48.1875 
Q 40.625 48.1875 47.75 41.5 
Q 54.890625 34.8125 54.890625 23.390625 
Q 54.890625 11.625 47.5625 5.09375 
Q 40.234375 -1.421875 26.90625 -1.421875 
Q 22.3125 -1.421875 17.546875 -0.640625 
Q 12.796875 0.140625 7.71875 1.703125 
L 7.71875 11.625 
Q 12.109375 9.234375 16.796875 8.0625 
Q 21.484375 6.890625 26.703125 6.890625 
Q 35.15625 6.890625 40.078125 11.328125 
Q 45.015625 15.765625 45.015625 23.390625 
Q 45.015625 31 40.078125 35.4375 
Q 35.15625 39.890625 26.703125 39.890625 
Q 22.75 39.890625 18.8125 39.015625 
Q 14.890625 38.140625 10.796875 36.28125 
z
" id="BitstreamVeraSans-Roman-35"/>
      </defs>
      <g transform="translate(59.3371875 401.918125)scale(0.12 -0.12)">
       <use xlink:href="#BitstreamVeraSans-Roman-2212"/>
       <use x="83.7890625" xlink:href="#BitstreamVeraSans-Roman-31"/>
       <use x="147.412109375" xlink:href="#BitstreamVeraSans-Roman-35"/>
      </g>
     </g>
    </g>
    <g id="xtick_2">
     <g id="line2d_4">
      <g>
       <use style="stroke:#000000;stroke-width:0.5;" x="161.28" xlink:href="#m2db39e59e9" y="388.8"/>
      </g>
     </g>
     <g id="line2d_5">
      <g>
       <use style="stroke:#000000;stroke-width:0.5;" x="161.28" xlink:href="#ma4e8d9fd9b" y="43.2"/>
      </g>
     </g>
     <g id="text_2">
      <!-- −10 -->
      <defs>
       <path d="M 31.78125 66.40625 
Q 24.171875 66.40625 20.328125 58.90625 
Q 16.5 51.421875 16.5 36.375 
Q 16.5 21.390625 20.328125 13.890625 
Q 24.171875 6.390625 31.78125 6.390625 
Q 39.453125 6.390625 43.28125 13.890625 
Q 47.125 21.390625 47.125 36.375 
Q 47.125 51.421875 43.28125 58.90625 
Q 39.453125 66.40625 31.78125 66.40625 
M 31.78125 74.21875 
Q 44.046875 74.21875 50.515625 64.515625 
Q 56.984375 54.828125 56.984375 36.375 
Q 56.984375 17.96875 50.515625 8.265625 
Q 44.046875 -1.421875 31.78125 -1.421875 
Q 19.53125 -1.421875 13.0625 8.265625 
Q 6.59375 17.96875 6.59375 36.375 
Q 6.59375 54.828125 13.0625 64.515625 
Q 19.53125 74.21875 31.78125 74.21875 
" id="BitstreamVeraSans-Roman-30"/>
      </defs>
      <g transform="translate(148.6171875 401.918125)scale(0.12 -0.12)">
       <use xlink:href="#BitstreamVeraSans-Roman-2212"/>
       <use x="83.7890625" xlink:href="#BitstreamVeraSans-Roman-31"/>
       <use x="147.412109375" xlink:href="#BitstreamVeraSans-Roman-30"/>
      </g>
     </g>
    </g>
    <g id="xtick_3">
     <g id="line2d_6">
      <g>
       <use style="stroke:#000000;stroke-width:0.5;" x="250.56" xlink:href="#m2db39e59e9" y="388.8"/>
      </g>
     </g>
     <g id="line2d_7">
      <g>
       <use style="stroke:#000000;stroke-width:0.5;" x="250.56" xlink:href="#ma4e8d9fd9b" y="43.2"/>
      </g>
     </g>
     <g id="text_3">
      <!-- −5 -->
      <g transform="translate(241.7146875 401.918125)scale(0.12 -0.12)">
       <use xlink:href="#BitstreamVeraSans-Roman-2212"/>
       <use x="83.7890625" xlink:href="#BitstreamVeraSans-Roman-35"/>
      </g>
     </g>
    </g>
    <g id="xtick_4">
     <g id="line2d_8">
      <g>
       <use style="stroke:#000000;stroke-width:0.5;" x="339.84" xlink:href="#m2db39e59e9" y="388.8"/>
      </g>
     </g>
     <g id="line2d_9">
      <g>
       <use style="stroke:#000000;stroke-width:0.5;" x="339.84" xlink:href="#ma4e8d9fd9b" y="43.2"/>
      </g>
     </g>
     <g id="text_4">
      <!-- 0 -->
      <g transform="translate(336.0225 401.918125)scale(0.12 -0.12)">
       <use xlink:href="#BitstreamVeraSans-Roman-30"/>
      </g>
     </g>
    </g>
    <g id="xtick_5">
     <g id="line2d_10">
      <g>
       <use style="stroke:#000000;stroke-width:0.5;" x="429.12" xlink:href="#m2db39e59e9" y="388.8"/>
      </g>
     </g>
     <g id="line2d_11">
      <g>
       <use style="stroke:#000000;stroke-width:0.5;" x="429.12" xlink:href="#ma4e8d9fd9b" y="43.2"/>
      </g>
     </g>
     <g id="text_5">
      <!-- 5 -->
      <g transform="translate(425.3025 401.918125)scale(0.12 -0.12)">
       <use xlink:href="#BitstreamVeraSans-Roman-35"/>
      </g>
     </g>
    </g>
    <g id="xtick_6">
     <g id="line2d_12">
      <g>
       <use style="stroke:#000000;stroke-width:0.5;" x="518.4" xlink:href="#m2db39e59e9" y="388.8"/>
      </g>
     </g>
     <g id="line2d_13">
      <g>
       <use style="stroke:#000000;stroke-width:0.5;" x="518.4" xlink:href="#ma4e8d9fd9b" y="43.2"/>
      </g>
     </g>
     <g id="text_6">
      <!-- 10 -->
      <g transform="translate(510.765 401.918125)scale(0.12 -0.12)">
       <use xlink:href="#BitstreamVeraSans-Roman-31"/>
       <use x="63.623046875" xlink:href="#BitstreamVeraSans-Roman-30"/>
      </g>
     </g>
    </g>
   </g>
   <g id="matplotlib.axis_2">
    <g id="ytick_1">
     <g id="line2d_14">
      <defs>
       <path d="M 0 0 
L 4 0 
" id="m6291921b0e" style="stroke:#000000;stroke-width:0.5;"/>
      </defs>
      <g>
       <use style="stroke:#000000;stroke-width:0.5;" x="72.0" xlink:href="#m6291921b0e" y="388.8"/>
      </g>
     </g>
     <g id="line2d_15">
      <defs>
       <path d="M 0 0 
L -4 0 
" id="me8a98d2f36" style="stroke:#000000;stroke-width:0.5;"/>
      </defs>
      <g>
       <use style="stroke:#000000;stroke-width:0.5;" x="518.4" xlink:href="#me8a98d2f36" y="388.8"/>
      </g>
     </g>
     <g id="text_7">
      <!-- −10 -->
      <g transform="translate(42.674375 392.11125)scale(0.12 -0.12)">
       <use xlink:href="#BitstreamVeraSans-Roman-2212"/>
       <use x="83.7890625" xlink:href="#BitstreamVeraSans-Roman-31"/>
       <use x="147.412109375" xlink:href="#BitstreamVeraSans-Roman-30"/>
      </g>
     </g>
    </g>
    <g id="ytick_2">
     <g id="line2d_16">
      <g>
       <use style="stroke:#000000;stroke-width:0.5;" x="72.0" xlink:href="#m6291921b0e" y="302.4"/>
      </g>
     </g>
     <g id="line2d_17">
      <g>
       <use style="stroke:#000000;stroke-width:0.5;" x="518.4" xlink:href="#me8a98d2f36" y="302.4"/>
      </g>
     </g>
     <g id="text_8">
      <!-- −5 -->
      <g transform="translate(50.309375 305.71125)scale(0.12 -0.12)">
       <use xlink:href="#BitstreamVeraSans-Roman-2212"/>
       <use x="83.7890625" xlink:href="#BitstreamVeraSans-Roman-35"/>
      </g>
     </g>
    </g>
    <g id="ytick_3">
     <g id="line2d_18">
      <g>
       <use style="stroke:#000000;stroke-width:0.5;" x="72.0" xlink:href="#m6291921b0e" y="216.0"/>
      </g>
     </g>
     <g id="line2d_19">
      <g>
       <use style="stroke:#000000;stroke-width:0.5;" x="518.4" xlink:href="#me8a98d2f36" y="216.0"/>
      </g>
     </g>
     <g id="text_9">
      <!-- 0 -->
      <g transform="translate(60.365 219.31125)scale(0.12 -0.12)">
       <use xlink:href="#BitstreamVeraSans-Roman-30"/>
      </g>
     </g>
    </g>
    <g id="ytick_4">
     <g id="line2d_20">
      <g>
       <use style="stroke:#000000;stroke-width:0.5;" x="72.0" xlink:href="#m6291921b0e" y="129.6"/>
      </g>
     </g>
     <g id="line2d_21">
      <g>
       <use style="stroke:#000000;stroke-width:0.5;" x="518.4" xlink:href="#me8a98d2f36" y="129.6"/>
      </g>
     </g>
     <g id="text_10">
      <!-- 5 -->
      <g transform="translate(60.365 132.91125)scale(0.12 -0.12)">
       <use xlink:href="#BitstreamVeraSans-Roman-35"/>
      </g>
     </g>
    </g>
    <g id="ytick_5">
     <g id="line2d_22">
      <g>
       <use style="stroke:#000000;stroke-width:0.5;" x="72.0" xlink:href="#m6291921b0e" y="43.2"/>
      </g>
     </g>
     <g id="line2d_23">
      <g>
       <use style="stroke:#000000;stroke-width:0.5;" x="518.4" xlink:href="#me8a98d2f36" y="43.2"/>
      </g>
     </g>
     <g id="text_11">
      <!-- 10 -->
      <g transform="translate(52.73 46.51125)scale(0.12 -0.12)">
       <use xlink:href="#BitstreamVeraSans-Roman-31"/>
       <use x="63.623046875" xlink:href="#BitstreamVeraSans-Roman-30"/>
      </g>
     </g>
    </g>
   </g>
  </g>
 </g>
 <defs>
  <clipPath id="p6d1a62873e">
   <rect height="345.6" width="446.4" x="72.0" y="43.2"/>
  </clipPath>
 </defs>
</svg>
