<?xml version="1.0" encoding="utf-8" standalone="no"?>
<!DOCTYPE svg PUBLIC "-//W3C//DTD SVG 1.1//EN"
  "http://www.w3.org/Graphics/SVG/1.1/DTD/svg11.dtd">
<!-- Created with matplotlib (http://matplotlib.org/) -->
<svg height="432pt" version="1.1" viewBox="0 0 576 432" width="576pt" xmlns="http://www.w3.org/2000/svg" xmlns:xlink="http://www.w3.org/1999/xlink">
 <defs>
  <style type="text/css">
*{stroke-linecap:butt;stroke-linejoin:round;stroke-miterlimit:100000;}
  </style>
 </defs>
 <g id="figure_1">
  <g id="patch_1">
   <path d="M 0 432 
L 576 432 
L 576 0 
L 0 0 
z
" style="fill:#ffffff;"/>
  </g>
  <g id="axes_1">
   <g id="patch_2">
    <path d="M 72 388.8 
L 518.4 388.8 
L 518.4 43.2 
L 72 43.2 
z
" style="fill:#ffffff;"/>
   </g>
   <g id="line2d_1">
    <path clip-path="url(#p87a8ba4bae)" d="M 400.694706 160.76752 
L 391.087469 157.644013 
L 384.989372 155.464253 
L 379.136656 153.206557 
L 373.529323 150.870924 
L 368.167371 148.457355 
L 363.050802 145.965849 
L 358.179614 143.396406 
L 353.553808 140.749027 
L 349.173384 138.023711 
L 345.038342 135.220458 
L 341.148683 132.339269 
L 337.504405 129.380143 
L 334.105508 126.34308 
L 330.951994 123.228081 
L 328.043862 120.035145 
L 325.381112 116.764272 
L 322.963744 113.415463 
L 320.791757 109.988717 
L 318.865153 106.484035 
L 317.18393 102.901415 
L 315.586087 99.291442 
L 313.615322 95.796587 
L 311.244169 92.425427 
L 308.472628 89.177961 
L 305.300698 86.05419 
L 301.728379 83.054114 
L 297.755673 80.177732 
L 293.382577 77.425045 
L 288.609094 74.796052 
L 283.435222 72.290754 
L 277.860961 69.90915 
L 271.886312 67.651241 
L 265.511274 65.517027 
L 258.735848 63.506507 
L 251.560034 61.619682 
L 243.983831 59.856551 
L 236.00724 58.217115 
L 227.63026 56.701373 
L 218.852892 55.309327 
L 209.675135 54.040974 
L 200.09699 52.896317 
L 190.505345 51.94691 
L 181.430975 51.290924 
L 172.877075 50.928949 
L 164.843647 50.860985 
L 157.330689 51.087033 
L 150.338203 51.607092 
L 143.866189 52.421163 
L 137.914645 53.529245 
L 132.483573 54.931339 
L 127.572972 56.627444 
L 125.312848 57.58575 
L 123.182842 58.61756 
L 121.182954 59.722872 
L 119.313183 60.901688 
L 117.573531 62.154006 
L 115.963996 63.479827 
L 114.484579 64.879151 
L 113.13528 66.351978 
L 111.916098 67.898307 
L 110.827035 69.51814 
L 109.868089 71.211475 
L 109.039261 72.978313 
L 108.340551 74.818654 
L 107.771958 76.732498 
L 107.333484 78.719845 
L 107.025127 80.780694 
L 106.846888 82.915046 
L 106.798767 85.122902 
L 106.880763 87.40426 
L 107.092878 89.759121 
L 107.43511 92.187485 
L 109.241483 102.140099 
L 110.279752 109.410275 
L 111.017155 116.496945 
L 111.453693 123.400108 
L 111.589366 130.119765 
L 111.424174 136.655916 
L 110.958117 143.008561 
L 110.191194 149.1777 
L 109.123406 155.163333 
L 107.754753 160.965459 
L 106.67517 164.731595 
L 105.46187 168.416174 
L 104.114851 172.019193 
L 102.634115 175.540655 
L 101.019661 178.980558 
L 97.659841 185.688186 
L 96.201608 189.032938 
L 94.913679 192.37769 
L 93.796055 195.722442 
L 92.848736 199.067194 
L 92.071721 202.411945 
L 91.465011 205.756697 
L 91.028605 209.101449 
L 90.762504 212.446201 
L 90.666708 215.790953 
L 90.741216 219.135705 
L 90.986029 222.480457 
L 91.401146 225.825209 
L 91.986569 229.169961 
L 92.742295 232.514712 
L 93.668327 235.859464 
L 94.764663 239.204216 
L 96.031303 242.548968 
L 97.468248 245.89372 
L 99.075498 249.238472 
L 101.640751 254.299848 
L 103.205061 257.770336 
L 104.635653 261.322381 
L 105.932528 264.955986 
L 107.095684 268.671148 
L 108.125122 272.467869 
L 109.020843 276.346148 
L 110.113703 282.316488 
L 110.905698 288.470335 
L 111.396827 294.807688 
L 111.587092 301.328547 
L 111.476491 308.032912 
L 111.065025 314.920783 
L 110.352693 321.99216 
L 109.339497 329.247044 
L 108.025435 336.685434 
L 107.166237 341.640679 
L 106.921593 344.013916 
L 106.807067 346.31365 
L 106.822659 348.539881 
L 106.968369 350.692609 
L 107.244196 352.771834 
L 107.650141 354.777556 
L 108.186204 356.709776 
L 108.852385 358.568493 
L 109.648683 360.353707 
L 110.5751 362.065418 
L 111.631634 363.703626 
L 112.818286 365.268331 
L 114.135055 366.759533 
L 115.581943 368.177233 
L 117.158948 369.52143 
L 118.866072 370.792124 
L 120.703313 371.989315 
L 122.670671 373.113003 
L 124.768148 374.163188 
L 126.995742 375.139871 
L 129.353454 376.04305 
L 134.459232 377.628901 
L 140.085481 378.92074 
L 146.232201 379.918568 
L 152.899393 380.622384 
L 160.087056 381.032189 
L 167.79519 381.147983 
L 176.023795 380.969765 
L 184.772871 380.497536 
L 194.042418 379.731295 
L 203.735715 378.688932 
L 213.163714 377.497889 
L 222.191325 376.183151 
L 230.818548 374.744719 
L 239.045382 373.182592 
L 246.871828 371.49677 
L 254.297885 369.687254 
L 261.323554 367.754044 
L 267.948834 365.697138 
L 274.173726 363.516538 
L 279.998229 361.212244 
L 285.422344 358.784255 
L 290.446071 356.232571 
L 295.069409 353.557193 
L 299.292358 350.75812 
L 303.114919 347.835353 
L 306.537092 344.788891 
L 309.558876 341.618734 
L 312.180272 338.324883 
L 314.401279 334.907338 
L 316.221898 331.366097 
L 317.785633 327.745969 
L 319.558874 324.192576 
L 321.577496 320.71712 
L 323.841501 317.3196 
L 326.350888 314.000017 
L 329.105656 310.758371 
L 332.105806 307.594661 
L 335.351339 304.508888 
L 338.842253 301.501052 
L 342.578549 298.571152 
L 346.560227 295.719189 
L 350.787288 292.945162 
L 355.25973 290.249073 
L 359.977554 287.630919 
L 364.940759 285.090703 
L 370.149347 282.628423 
L 375.603317 280.24408 
L 381.302669 277.937674 
L 387.247402 275.709204 
L 393.437518 273.558671 
L 403.128473 270.474805 
L 412.12241 267.469766 
L 417.459587 265.489213 
L 422.269739 263.526906 
L 426.552866 261.582844 
L 430.308968 259.657029 
L 433.538044 257.749458 
L 436.240096 255.860134 
L 438.415123 253.989055 
L 440.063125 252.136222 
L 441.184102 250.301634 
L 441.546957 249.391182 
L 441.778054 248.485292 
L 441.877396 247.583963 
L 441.844982 246.687196 
L 441.680811 245.79499 
L 441.384884 244.907345 
L 440.9572 244.024262 
L 440.397761 243.14574 
L 438.883613 241.402381 
L 436.84244 239.677267 
L 434.274242 237.970399 
L 431.179019 236.281776 
L 427.556771 234.611399 
L 415.5836 229.670147 
L 412.300384 228.025618 
L 409.437419 226.381089 
L 406.994706 224.73656 
L 404.972245 223.092031 
L 403.370035 221.447502 
L 402.188077 219.802973 
L 401.426371 218.158444 
L 401.084916 216.513915 
L 401.163714 214.869386 
L 401.662763 213.224857 
L 402.582063 211.580329 
L 403.921615 209.9358 
L 405.681419 208.291271 
L 407.861475 206.646742 
L 410.461782 205.002213 
L 413.482341 203.357684 
L 416.923152 201.713155 
L 420.784215 200.068626 
L 428.976875 196.764348 
L 432.401488 195.087129 
L 435.299077 193.391664 
L 437.66964 191.677954 
L 439.513179 189.945998 
L 440.829693 188.195796 
L 441.290315 187.313853 
L 441.619181 186.427349 
L 441.816291 185.536283 
L 441.881645 184.640656 
L 441.815242 183.740468 
L 441.617083 182.835718 
L 441.287168 181.926406 
L 440.825497 181.012534 
L 439.506885 179.171104 
L 437.661249 177.311429 
L 435.288588 175.433508 
L 432.388901 173.537341 
L 428.96219 171.622929 
L 425.008454 169.690271 
L 420.527692 167.739367 
L 415.519906 165.770218 
L 409.985095 163.782823 
L 403.923259 161.777183 
L 400.694706 160.76752 
L 400.694706 160.76752 
" style="fill:none;stroke:#0000ff;stroke-linecap:square;"/>
   </g>
   <g id="patch_3">
    <path d="M 72 43.2 
L 518.4 43.2 
" style="fill:none;stroke:#000000;stroke-linecap:square;stroke-linejoin:miter;"/>
   </g>
   <g id="patch_4">
    <path d="M 518.4 388.8 
L 518.4 43.2 
" style="fill:none;stroke:#000000;stroke-linecap:square;stroke-linejoin:miter;"/>
   </g>
   <g id="patch_5">
    <path d="M 72 388.8 
L 518.4 388.8 
" style="fill:none;stroke:#000000;stroke-linecap:square;stroke-linejoin:miter;"/>
   </g>
   <g id="patch_6">
    <path d="M 72 388.8 
L 72 43.2 
" style="fill:none;stroke:#000000;stroke-linecap:square;stroke-linejoin:miter;"/>
   </g>
   <g id="matplotlib.axis_1">
    <g id="xtick_1">
     <g id="line2d_2">
      <defs>
       <path d="M 0 0 
L 0 -4 
" id="mdc0b0c1042" style="stroke:#000000;stroke-width:0.5;"/>
      </defs>
      <g>
       <use style="stroke:#000000;stroke-width:0.5;" x="72.0" xlink:href="#mdc0b0c1042" y="388.8"/>
      </g>
     </g>
     <g id="line2d_3">
      <defs>
       <path d="M 0 0 
L 0 4 
" id="m1c1a186f39" style="stroke:#000000;stroke-width:0.5;"/>
      </defs>
      <g>
       <use style="stroke:#000000;stroke-width:0.5;" x="72.0" xlink:href="#m1c1a186f39" y="43.2"/>
      </g>
     </g>
     <g id="text_1">
      <!-- −10 -->
      <defs>
       <path d="M 10.59375 35.5 
L 73.1875 35.5 
L 73.1875 27.203125 
L 10.59375 27.203125 
z
" id="BitstreamVeraSans-Roman-2212"/>
       <path d="M 31.78125 66.40625 
Q 24.171875 66.40625 20.328125 58.90625 
Q 16.5 51.421875 16.5 36.375 
Q 16.5 21.390625 20.328125 13.890625 
Q 24.171875 6.390625 31.78125 6.390625 
Q 39.453125 6.390625 43.28125 13.890625 
Q 47.125 21.390625 47.125 36.375 
Q 47.125 51.421875 43.28125 58.90625 
Q 39.453125 66.40625 31.78125 66.40625 
M 31.78125 74.21875 
Q 44.046875 74.21875 50.515625 64.515625 
Q 56.984375 54.828125 56.984375 36.375 
Q 56.984375 17.96875 50.515625 8.265625 
Q 44.046875 -1.421875 31.78125 -1.421875 
Q 19.53125 -1.421875 13.0625 8.265625 
Q 6.59375 17.96875 6.59375 36.375 
Q 6.59375 54.828125 13.0625 64.515625 
Q 19.53125 74.21875 31.78125 74.21875 
" id="BitstreamVeraSans-Roman-30"/>
       <path d="M 12.40625 8.296875 
L 28.515625 8.296875 
L 28.515625 63.921875 
L 10.984375 60.40625 
L 10.984375 69.390625 
L 28.421875 72.90625 
L 38.28125 72.90625 
L 38.28125 8.296875 
L 54.390625 8.296875 
L 54.390625 0 
L 12.40625 0 
z
" id="BitstreamVeraSans-Roman-31"/>
      </defs>
      <g transform="translate(59.3371875 401.918125)scale(0.12 -0.12)">
       <use xlink:href="#BitstreamVeraSans-Roman-2212"/>
       <use x="83.7890625" xlink:href="#BitstreamVeraSans-Roman-31"/>
       <use x="147.412109375" xlink:href="#BitstreamVeraSans-Roman-30"/>
      </g>
     </g>
    </g>
    <g id="xtick_2">
     <g id="line2d_4">
      <g>
       <use style="stroke:#000000;stroke-width:0.5;" x="161.28" xlink:href="#mdc0b0c1042" y="388.8"/>
      </g>
     </g>
     <g id="line2d_5">
      <g>
       <use style="stroke:#000000;stroke-width:0.5;" x="161.28" xlink:href="#m1c1a186f39" y="43.2"/>
      </g>
     </g>
     <g id="text_2">
      <!-- −5 -->
      <defs>
       <path d="M 10.796875 72.90625 
L 49.515625 72.90625 
L 49.515625 64.59375 
L 19.828125 64.59375 
L 19.828125 46.734375 
Q 21.96875 47.46875 24.109375 47.828125 
Q 26.265625 48.1875 28.421875 48.1875 
Q 40.625 48.1875 47.75 41.5 
Q 54.890625 34.8125 54.890625 23.390625 
Q 54.890625 11.625 47.5625 5.09375 
Q 40.234375 -1.421875 26.90625 -1.421875 
Q 22.3125 -1.421875 17.546875 -0.640625 
Q 12.796875 0.140625 7.71875 1.703125 
L 7.71875 11.625 
Q 12.109375 9.234375 16.796875 8.0625 
Q 21.484375 6.890625 26.703125 6.890625 
Q 35.15625 6.890625 40.078125 11.328125 
Q 45.015625 15.765625 45.015625 23.390625 
Q 45.015625 31 40.078125 35.4375 
Q 35.15625 39.890625 26.703125 39.890625 
Q 22.75 39.890625 18.8125 39.015625 
Q 14.890625 38.140625 10.796875 36.28125 
z
" id="BitstreamVeraSans-Roman-35"/>
      </defs>
      <g transform="translate(152.4346875 401.918125)scale(0.12 -0.12)">
       <use xlink:href="#BitstreamVeraSans-Roman-2212"/>
       <use x="83.7890625" xlink:href="#BitstreamVeraSans-Roman-35"/>
      </g>
     </g>
    </g>
    <g id="xtick_3">
     <g id="line2d_6">
      <g>
       <use style="stroke:#000000;stroke-width:0.5;" x="250.56" xlink:href="#mdc0b0c1042" y="388.8"/>
      </g>
     </g>
     <g id="line2d_7">
      <g>
       <use style="stroke:#000000;stroke-width:0.5;" x="250.56" xlink:href="#m1c1a186f39" y="43.2"/>
      </g>
     </g>
     <g id="text_3">
      <!-- 0 -->
      <g transform="translate(246.7425 401.918125)scale(0.12 -0.12)">
       <use xlink:href="#BitstreamVeraSans-Roman-30"/>
      </g>
     </g>
    </g>
    <g id="xtick_4">
     <g id="line2d_8">
      <g>
       <use style="stroke:#000000;stroke-width:0.5;" x="339.84" xlink:href="#mdc0b0c1042" y="388.8"/>
      </g>
     </g>
     <g id="line2d_9">
      <g>
       <use style="stroke:#000000;stroke-width:0.5;" x="339.84" xlink:href="#m1c1a186f39" y="43.2"/>
      </g>
     </g>
     <g id="text_4">
      <!-- 5 -->
      <g transform="translate(336.0225 401.918125)scale(0.12 -0.12)">
       <use xlink:href="#BitstreamVeraSans-Roman-35"/>
      </g>
     </g>
    </g>
    <g id="xtick_5">
     <g id="line2d_10">
      <g>
       <use style="stroke:#000000;stroke-width:0.5;" x="429.12" xlink:href="#mdc0b0c1042" y="388.8"/>
      </g>
     </g>
     <g id="line2d_11">
      <g>
       <use style="stroke:#000000;stroke-width:0.5;" x="429.12" xlink:href="#m1c1a186f39" y="43.2"/>
      </g>
     </g>
     <g id="text_5">
      <!-- 10 -->
      <g transform="translate(421.485 401.918125)scale(0.12 -0.12)">
       <use xlink:href="#BitstreamVeraSans-Roman-31"/>
       <use x="63.623046875" xlink:href="#BitstreamVeraSans-Roman-30"/>
      </g>
     </g>
    </g>
    <g id="xtick_6">
     <g id="line2d_12">
      <g>
       <use style="stroke:#000000;stroke-width:0.5;" x="518.4" xlink:href="#mdc0b0c1042" y="388.8"/>
      </g>
     </g>
     <g id="line2d_13">
      <g>
       <use style="stroke:#000000;stroke-width:0.5;" x="518.4" xlink:href="#m1c1a186f39" y="43.2"/>
      </g>
     </g>
     <g id="text_6">
      <!-- 15 -->
      <g transform="translate(510.765 401.918125)scale(0.12 -0.12)">
       <use xlink:href="#BitstreamVeraSans-Roman-31"/>
       <use x="63.623046875" xlink:href="#BitstreamVeraSans-Roman-35"/>
      </g>
     </g>
    </g>
   </g>
   <g id="matplotlib.axis_2">
    <g id="ytick_1">
     <g id="line2d_14">
      <defs>
       <path d="M 0 0 
L 4 0 
" id="m03025fed62" style="stroke:#000000;stroke-width:0.5;"/>
      </defs>
      <g>
       <use style="stroke:#000000;stroke-width:0.5;" x="72.0" xlink:href="#m03025fed62" y="388.8"/>
      </g>
     </g>
     <g id="line2d_15">
      <defs>
       <path d="M 0 0 
L -4 0 
" id="m84f8a9ee11" style="stroke:#000000;stroke-width:0.5;"/>
      </defs>
      <g>
       <use style="stroke:#000000;stroke-width:0.5;" x="518.4" xlink:href="#m84f8a9ee11" y="388.8"/>
      </g>
     </g>
     <g id="text_7">
      <!-- −10 -->
      <g transform="translate(42.674375 392.11125)scale(0.12 -0.12)">
       <use xlink:href="#BitstreamVeraSans-Roman-2212"/>
       <use x="83.7890625" xlink:href="#BitstreamVeraSans-Roman-31"/>
       <use x="147.412109375" xlink:href="#BitstreamVeraSans-Roman-30"/>
      </g>
     </g>
    </g>
    <g id="ytick_2">
     <g id="line2d_16">
      <g>
       <use style="stroke:#000000;stroke-width:0.5;" x="72.0" xlink:href="#m03025fed62" y="302.4"/>
      </g>
     </g>
     <g id="line2d_17">
      <g>
       <use style="stroke:#000000;stroke-width:0.5;" x="518.4" xlink:href="#m84f8a9ee11" y="302.4"/>
      </g>
     </g>
     <g id="text_8">
      <!-- −5 -->
      <g transform="translate(50.309375 305.71125)scale(0.12 -0.12)">
       <use xlink:href="#BitstreamVeraSans-Roman-2212"/>
       <use x="83.7890625" xlink:href="#BitstreamVeraSans-Roman-35"/>
      </g>
     </g>
    </g>
    <g id="ytick_3">
     <g id="line2d_18">
      <g>
       <use style="stroke:#000000;stroke-width:0.5;" x="72.0" xlink:href="#m03025fed62" y="216.0"/>
      </g>
     </g>
     <g id="line2d_19">
      <g>
       <use style="stroke:#000000;stroke-width:0.5;" x="518.4" xlink:href="#m84f8a9ee11" y="216.0"/>
      </g>
     </g>
     <g id="text_9">
      <!-- 0 -->
      <g transform="translate(60.365 219.31125)scale(0.12 -0.12)">
       <use xlink:href="#BitstreamVeraSans-Roman-30"/>
      </g>
     </g>
    </g>
    <g id="ytick_4">
     <g id="line2d_20">
      <g>
       <use style="stroke:#000000;stroke-width:0.5;" x="72.0" xlink:href="#m03025fed62" y="129.6"/>
      </g>
     </g>
     <g id="line2d_21">
      <g>
       <use style="stroke:#000000;stroke-width:0.5;" x="518.4" xlink:href="#m84f8a9ee11" y="129.6"/>
      </g>
     </g>
     <g id="text_10">
      <!-- 5 -->
      <g transform="translate(60.365 132.91125)scale(0.12 -0.12)">
       <use xlink:href="#BitstreamVeraSans-Roman-35"/>
      </g>
     </g>
    </g>
    <g id="ytick_5">
     <g id="line2d_22">
      <g>
       <use style="stroke:#000000;stroke-width:0.5;" x="72.0" xlink:href="#m03025fed62" y="43.2"/>
      </g>
     </g>
     <g id="line2d_23">
      <g>
       <use style="stroke:#000000;stroke-width:0.5;" x="518.4" xlink:href="#m84f8a9ee11" y="43.2"/>
      </g>
     </g>
     <g id="text_11">
      <!-- 10 -->
      <g transform="translate(52.73 46.51125)scale(0.12 -0.12)">
       <use xlink:href="#BitstreamVeraSans-Roman-31"/>
       <use x="63.623046875" xlink:href="#BitstreamVeraSans-Roman-30"/>
      </g>
     </g>
    </g>
   </g>
  </g>
 </g>
 <defs>
  <clipPath id="p87a8ba4bae">
   <rect height="345.6" width="446.4" x="72.0" y="43.2"/>
  </clipPath>
 </defs>
</svg>
