<?xml version="1.0" encoding="utf-8" standalone="no"?>
<!DOCTYPE svg PUBLIC "-//W3C//DTD SVG 1.1//EN"
  "http://www.w3.org/Graphics/SVG/1.1/DTD/svg11.dtd">
<!-- Created with matplotlib (http://matplotlib.org/) -->
<svg height="432pt" version="1.1" viewBox="0 0 576 432" width="576pt" xmlns="http://www.w3.org/2000/svg" xmlns:xlink="http://www.w3.org/1999/xlink">
 <defs>
  <style type="text/css">
*{stroke-linecap:butt;stroke-linejoin:round;stroke-miterlimit:100000;}
  </style>
 </defs>
 <g id="figure_1">
  <g id="patch_1">
   <path d="M 0 432 
L 576 432 
L 576 0 
L 0 0 
z
" style="fill:#ffffff;"/>
  </g>
  <g id="axes_1">
   <g id="patch_2">
    <path d="M 72 388.8 
L 518.4 388.8 
L 518.4 43.2 
L 72 43.2 
z
" style="fill:#ffffff;"/>
   </g>
   <g id="line2d_1">
    <path clip-path="url(#p68cf0c41d6)" d="M 450.97772 81.80618 
L 446.878573 79.320619 
L 442.651697 77.032946 
L 438.297092 74.943161 
L 433.814759 73.051262 
L 429.204698 71.357251 
L 424.466908 69.861127 
L 419.60139 68.562891 
L 414.608143 67.462542 
L 409.487168 66.56008 
L 404.238464 65.855506 
L 398.862032 65.348819 
L 393.357871 65.040019 
L 387.725982 64.929107 
L 381.966365 65.016082 
L 376.079019 65.300944 
L 370.063944 65.783694 
L 363.921142 66.464331 
L 357.65061 67.342855 
L 351.252351 68.419267 
L 344.726363 69.693566 
L 334.750105 71.931413 
L 318.416359 75.853808 
L 302.585186 79.900845 
L 287.256583 84.072524 
L 272.430553 88.368846 
L 258.107094 92.789809 
L 244.286207 97.335414 
L 233.591349 101.061641 
L 223.218138 104.867639 
L 208.342564 110.613509 
L 183.935574 120.245606 
L 163.297612 128.624993 
L 147.80647 135.155555 
L 138.832224 139.138807 
L 136.637115 140.336226 
L 134.649487 141.634886 
L 132.86934 143.034787 
L 131.296674 144.53593 
L 129.931489 146.138313 
L 128.773786 147.841936 
L 127.823563 149.646801 
L 127.080821 151.552907 
L 126.545561 153.560254 
L 126.217781 155.668841 
L 126.097483 157.87867 
L 126.184665 160.18974 
L 126.479329 162.60205 
L 126.981474 165.115602 
L 127.6911 167.730394 
L 128.608207 170.446427 
L 129.732795 173.263701 
L 131.064864 176.182217 
L 133.451994 180.749816 
L 137.015385 187.1043 
L 138.56825 190.292791 
L 139.939759 193.481282 
L 141.129911 196.669773 
L 142.138706 199.858264 
L 142.966145 203.046755 
L 143.612227 206.235246 
L 144.076953 209.423737 
L 144.360323 212.612228 
L 144.462336 215.800719 
L 144.382993 218.98921 
L 144.122293 222.177701 
L 143.680236 225.366192 
L 143.056823 228.554683 
L 142.252054 231.743174 
L 141.265928 234.931665 
L 140.098445 238.120156 
L 138.749607 241.308647 
L 137.219411 244.497138 
L 135.507859 247.685629 
L 132.002768 253.9423 
L 129.887957 258.377021 
L 128.737434 261.20695 
L 127.794391 263.935639 
L 127.058831 266.563086 
L 126.530751 269.089293 
L 126.210152 271.514258 
L 126.097034 273.837983 
L 126.191397 276.060467 
L 126.493242 278.181709 
L 127.002567 280.201711 
L 127.719374 282.120472 
L 128.643661 283.937992 
L 129.77543 285.654271 
L 131.114679 287.269309 
L 132.66141 288.783106 
L 134.415622 290.195663 
L 136.377315 291.506978 
L 138.546489 292.717052 
L 142.165965 294.382458 
L 154.776373 299.817373 
L 169.909849 306.09088 
L 189.683976 314.044976 
L 215.033222 323.990252 
L 227.71684 328.807301 
L 238.230772 332.578399 
L 249.06635 336.269726 
L 263.063137 340.771706 
L 277.562496 345.149045 
L 292.564427 349.401741 
L 308.068929 353.529796 
L 324.076003 357.533208 
L 340.582758 361.409507 
L 347.188576 362.807486 
L 353.666666 364.007577 
L 360.017028 365.009781 
L 366.239661 365.814098 
L 372.334566 366.420527 
L 378.301742 366.829069 
L 384.141189 367.039724 
L 389.852909 367.052491 
L 395.4369 366.867371 
L 400.893162 366.484363 
L 406.221696 365.903469 
L 411.422501 365.124686 
L 416.495579 364.148017 
L 421.440927 362.97346 
L 426.258547 361.601016 
L 430.948439 360.030685 
L 435.510602 358.262466 
L 439.945037 356.29636 
L 444.251743 354.132366 
L 448.430721 351.770485 
L 452.463543 349.215915 
L 456.157747 346.522941 
L 459.462145 343.706001 
L 462.376737 340.765095 
L 464.901524 337.700223 
L 467.036506 334.511386 
L 468.781682 331.198583 
L 470.137052 327.761814 
L 471.102617 324.201079 
L 471.678376 320.516378 
L 471.86433 316.707712 
L 471.660478 312.77508 
L 471.066821 308.718482 
L 470.083358 304.537918 
L 468.710089 300.233388 
L 466.947015 295.804893 
L 464.794136 291.252432 
L 462.251451 286.576005 
L 459.31896 281.775612 
L 455.996664 276.851253 
L 452.284563 271.802929 
L 448.315577 266.65173 
L 444.670222 261.48977 
L 441.416314 256.327811 
L 438.553854 251.165851 
L 436.082842 246.003891 
L 434.003277 240.841931 
L 432.315159 235.679972 
L 431.018489 230.518012 
L 430.113267 225.356052 
L 429.599492 220.194092 
L 429.477164 215.032133 
L 429.746285 209.870173 
L 430.406852 204.708213 
L 431.458868 199.546253 
L 432.90233 194.384294 
L 434.737241 189.222334 
L 436.963599 184.060374 
L 439.581404 178.898414 
L 442.590657 173.736455 
L 445.991357 168.574495 
L 449.783505 163.412535 
L 453.722281 158.289422 
L 457.288206 153.287585 
L 460.464325 148.409713 
L 463.250638 143.655808 
L 465.647146 139.025868 
L 467.653849 134.519894 
L 469.270745 130.137886 
L 470.497837 125.879843 
L 471.335123 121.745767 
L 471.782603 117.735656 
L 471.840278 113.849511 
L 471.508147 110.087332 
L 470.78621 106.449118 
L 469.674468 102.934871 
L 468.172921 99.544589 
L 466.281568 96.278273 
L 464.00041 93.135923 
L 461.329446 90.117538 
L 458.268676 87.22312 
L 454.818101 84.452667 
L 450.97772 81.80618 
L 450.97772 81.80618 
" style="fill:none;stroke:#0000ff;stroke-linecap:square;"/>
   </g>
   <g id="patch_3">
    <path d="M 72 43.2 
L 518.4 43.2 
" style="fill:none;stroke:#000000;stroke-linecap:square;stroke-linejoin:miter;"/>
   </g>
   <g id="patch_4">
    <path d="M 518.4 388.8 
L 518.4 43.2 
" style="fill:none;stroke:#000000;stroke-linecap:square;stroke-linejoin:miter;"/>
   </g>
   <g id="patch_5">
    <path d="M 72 388.8 
L 518.4 388.8 
" style="fill:none;stroke:#000000;stroke-linecap:square;stroke-linejoin:miter;"/>
   </g>
   <g id="patch_6">
    <path d="M 72 388.8 
L 72 43.2 
" style="fill:none;stroke:#000000;stroke-linecap:square;stroke-linejoin:miter;"/>
   </g>
   <g id="matplotlib.axis_1">
    <g id="xtick_1">
     <g id="line2d_2">
      <defs>
       <path d="M 0 0 
L 0 -4 
" id="m0e13ae3e17" style="stroke:#000000;stroke-width:0.5;"/>
      </defs>
      <g>
       <use style="stroke:#000000;stroke-width:0.5;" x="72.0" xlink:href="#m0e13ae3e17" y="388.8"/>
      </g>
     </g>
     <g id="line2d_3">
      <defs>
       <path d="M 0 0 
L 0 4 
" id="m8efabbedcf" style="stroke:#000000;stroke-width:0.5;"/>
      </defs>
      <g>
       <use style="stroke:#000000;stroke-width:0.5;" x="72.0" xlink:href="#m8efabbedcf" y="43.2"/>
      </g>
     </g>
     <g id="text_1">
      <!-- −10 -->
      <defs>
       <path d="M 10.59375 35.5 
L 73.1875 35.5 
L 73.1875 27.203125 
L 10.59375 27.203125 
z
" id="BitstreamVeraSans-Roman-2212"/>
       <path d="M 31.78125 66.40625 
Q 24.171875 66.40625 20.328125 58.90625 
Q 16.5 51.421875 16.5 36.375 
Q 16.5 21.390625 20.328125 13.890625 
Q 24.171875 6.390625 31.78125 6.390625 
Q 39.453125 6.390625 43.28125 13.890625 
Q 47.125 21.390625 47.125 36.375 
Q 47.125 51.421875 43.28125 58.90625 
Q 39.453125 66.40625 31.78125 66.40625 
M 31.78125 74.21875 
Q 44.046875 74.21875 50.515625 64.515625 
Q 56.984375 54.828125 56.984375 36.375 
Q 56.984375 17.96875 50.515625 8.265625 
Q 44.046875 -1.421875 31.78125 -1.421875 
Q 19.53125 -1.421875 13.0625 8.265625 
Q 6.59375 17.96875 6.59375 36.375 
Q 6.59375 54.828125 13.0625 64.515625 
Q 19.53125 74.21875 31.78125 74.21875 
" id="BitstreamVeraSans-Roman-30"/>
       <path d="M 12.40625 8.296875 
L 28.515625 8.296875 
L 28.515625 63.921875 
L 10.984375 60.40625 
L 10.984375 69.390625 
L 28.421875 72.90625 
L 38.28125 72.90625 
L 38.28125 8.296875 
L 54.390625 8.296875 
L 54.390625 0 
L 12.40625 0 
z
" id="BitstreamVeraSans-Roman-31"/>
      </defs>
      <g transform="translate(59.3371875 401.918125)scale(0.12 -0.12)">
       <use xlink:href="#BitstreamVeraSans-Roman-2212"/>
       <use x="83.7890625" xlink:href="#BitstreamVeraSans-Roman-31"/>
       <use x="147.412109375" xlink:href="#BitstreamVeraSans-Roman-30"/>
      </g>
     </g>
    </g>
    <g id="xtick_2">
     <g id="line2d_4">
      <g>
       <use style="stroke:#000000;stroke-width:0.5;" x="161.28" xlink:href="#m0e13ae3e17" y="388.8"/>
      </g>
     </g>
     <g id="line2d_5">
      <g>
       <use style="stroke:#000000;stroke-width:0.5;" x="161.28" xlink:href="#m8efabbedcf" y="43.2"/>
      </g>
     </g>
     <g id="text_2">
      <!-- −5 -->
      <defs>
       <path d="M 10.796875 72.90625 
L 49.515625 72.90625 
L 49.515625 64.59375 
L 19.828125 64.59375 
L 19.828125 46.734375 
Q 21.96875 47.46875 24.109375 47.828125 
Q 26.265625 48.1875 28.421875 48.1875 
Q 40.625 48.1875 47.75 41.5 
Q 54.890625 34.8125 54.890625 23.390625 
Q 54.890625 11.625 47.5625 5.09375 
Q 40.234375 -1.421875 26.90625 -1.421875 
Q 22.3125 -1.421875 17.546875 -0.640625 
Q 12.796875 0.140625 7.71875 1.703125 
L 7.71875 11.625 
Q 12.109375 9.234375 16.796875 8.0625 
Q 21.484375 6.890625 26.703125 6.890625 
Q 35.15625 6.890625 40.078125 11.328125 
Q 45.015625 15.765625 45.015625 23.390625 
Q 45.015625 31 40.078125 35.4375 
Q 35.15625 39.890625 26.703125 39.890625 
Q 22.75 39.890625 18.8125 39.015625 
Q 14.890625 38.140625 10.796875 36.28125 
z
" id="BitstreamVeraSans-Roman-35"/>
      </defs>
      <g transform="translate(152.4346875 401.918125)scale(0.12 -0.12)">
       <use xlink:href="#BitstreamVeraSans-Roman-2212"/>
       <use x="83.7890625" xlink:href="#BitstreamVeraSans-Roman-35"/>
      </g>
     </g>
    </g>
    <g id="xtick_3">
     <g id="line2d_6">
      <g>
       <use style="stroke:#000000;stroke-width:0.5;" x="250.56" xlink:href="#m0e13ae3e17" y="388.8"/>
      </g>
     </g>
     <g id="line2d_7">
      <g>
       <use style="stroke:#000000;stroke-width:0.5;" x="250.56" xlink:href="#m8efabbedcf" y="43.2"/>
      </g>
     </g>
     <g id="text_3">
      <!-- 0 -->
      <g transform="translate(246.7425 401.918125)scale(0.12 -0.12)">
       <use xlink:href="#BitstreamVeraSans-Roman-30"/>
      </g>
     </g>
    </g>
    <g id="xtick_4">
     <g id="line2d_8">
      <g>
       <use style="stroke:#000000;stroke-width:0.5;" x="339.84" xlink:href="#m0e13ae3e17" y="388.8"/>
      </g>
     </g>
     <g id="line2d_9">
      <g>
       <use style="stroke:#000000;stroke-width:0.5;" x="339.84" xlink:href="#m8efabbedcf" y="43.2"/>
      </g>
     </g>
     <g id="text_4">
      <!-- 5 -->
      <g transform="translate(336.0225 401.918125)scale(0.12 -0.12)">
       <use xlink:href="#BitstreamVeraSans-Roman-35"/>
      </g>
     </g>
    </g>
    <g id="xtick_5">
     <g id="line2d_10">
      <g>
       <use style="stroke:#000000;stroke-width:0.5;" x="429.12" xlink:href="#m0e13ae3e17" y="388.8"/>
      </g>
     </g>
     <g id="line2d_11">
      <g>
       <use style="stroke:#000000;stroke-width:0.5;" x="429.12" xlink:href="#m8efabbedcf" y="43.2"/>
      </g>
     </g>
     <g id="text_5">
      <!-- 10 -->
      <g transform="translate(421.485 401.918125)scale(0.12 -0.12)">
       <use xlink:href="#BitstreamVeraSans-Roman-31"/>
       <use x="63.623046875" xlink:href="#BitstreamVeraSans-Roman-30"/>
      </g>
     </g>
    </g>
    <g id="xtick_6">
     <g id="line2d_12">
      <g>
       <use style="stroke:#000000;stroke-width:0.5;" x="518.4" xlink:href="#m0e13ae3e17" y="388.8"/>
      </g>
     </g>
     <g id="line2d_13">
      <g>
       <use style="stroke:#000000;stroke-width:0.5;" x="518.4" xlink:href="#m8efabbedcf" y="43.2"/>
      </g>
     </g>
     <g id="text_6">
      <!-- 15 -->
      <g transform="translate(510.765 401.918125)scale(0.12 -0.12)">
       <use xlink:href="#BitstreamVeraSans-Roman-31"/>
       <use x="63.623046875" xlink:href="#BitstreamVeraSans-Roman-35"/>
      </g>
     </g>
    </g>
   </g>
   <g id="matplotlib.axis_2">
    <g id="ytick_1">
     <g id="line2d_14">
      <defs>
       <path d="M 0 0 
L 4 0 
" id="m9011351222" style="stroke:#000000;stroke-width:0.5;"/>
      </defs>
      <g>
       <use style="stroke:#000000;stroke-width:0.5;" x="72.0" xlink:href="#m9011351222" y="388.8"/>
      </g>
     </g>
     <g id="line2d_15">
      <defs>
       <path d="M 0 0 
L -4 0 
" id="m39f10901a4" style="stroke:#000000;stroke-width:0.5;"/>
      </defs>
      <g>
       <use style="stroke:#000000;stroke-width:0.5;" x="518.4" xlink:href="#m39f10901a4" y="388.8"/>
      </g>
     </g>
     <g id="text_7">
      <!-- −10 -->
      <g transform="translate(42.674375 392.11125)scale(0.12 -0.12)">
       <use xlink:href="#BitstreamVeraSans-Roman-2212"/>
       <use x="83.7890625" xlink:href="#BitstreamVeraSans-Roman-31"/>
       <use x="147.412109375" xlink:href="#BitstreamVeraSans-Roman-30"/>
      </g>
     </g>
    </g>
    <g id="ytick_2">
     <g id="line2d_16">
      <g>
       <use style="stroke:#000000;stroke-width:0.5;" x="72.0" xlink:href="#m9011351222" y="302.4"/>
      </g>
     </g>
     <g id="line2d_17">
      <g>
       <use style="stroke:#000000;stroke-width:0.5;" x="518.4" xlink:href="#m39f10901a4" y="302.4"/>
      </g>
     </g>
     <g id="text_8">
      <!-- −5 -->
      <g transform="translate(50.309375 305.71125)scale(0.12 -0.12)">
       <use xlink:href="#BitstreamVeraSans-Roman-2212"/>
       <use x="83.7890625" xlink:href="#BitstreamVeraSans-Roman-35"/>
      </g>
     </g>
    </g>
    <g id="ytick_3">
     <g id="line2d_18">
      <g>
       <use style="stroke:#000000;stroke-width:0.5;" x="72.0" xlink:href="#m9011351222" y="216.0"/>
      </g>
     </g>
     <g id="line2d_19">
      <g>
       <use style="stroke:#000000;stroke-width:0.5;" x="518.4" xlink:href="#m39f10901a4" y="216.0"/>
      </g>
     </g>
     <g id="text_9">
      <!-- 0 -->
      <g transform="translate(60.365 219.31125)scale(0.12 -0.12)">
       <use xlink:href="#BitstreamVeraSans-Roman-30"/>
      </g>
     </g>
    </g>
    <g id="ytick_4">
     <g id="line2d_20">
      <g>
       <use style="stroke:#000000;stroke-width:0.5;" x="72.0" xlink:href="#m9011351222" y="129.6"/>
      </g>
     </g>
     <g id="line2d_21">
      <g>
       <use style="stroke:#000000;stroke-width:0.5;" x="518.4" xlink:href="#m39f10901a4" y="129.6"/>
      </g>
     </g>
     <g id="text_10">
      <!-- 5 -->
      <g transform="translate(60.365 132.91125)scale(0.12 -0.12)">
       <use xlink:href="#BitstreamVeraSans-Roman-35"/>
      </g>
     </g>
    </g>
    <g id="ytick_5">
     <g id="line2d_22">
      <g>
       <use style="stroke:#000000;stroke-width:0.5;" x="72.0" xlink:href="#m9011351222" y="43.2"/>
      </g>
     </g>
     <g id="line2d_23">
      <g>
       <use style="stroke:#000000;stroke-width:0.5;" x="518.4" xlink:href="#m39f10901a4" y="43.2"/>
      </g>
     </g>
     <g id="text_11">
      <!-- 10 -->
      <g transform="translate(52.73 46.51125)scale(0.12 -0.12)">
       <use xlink:href="#BitstreamVeraSans-Roman-31"/>
       <use x="63.623046875" xlink:href="#BitstreamVeraSans-Roman-30"/>
      </g>
     </g>
    </g>
   </g>
  </g>
 </g>
 <defs>
  <clipPath id="p68cf0c41d6">
   <rect height="345.6" width="446.4" x="72.0" y="43.2"/>
  </clipPath>
 </defs>
</svg>
