<?xml version="1.0" encoding="utf-8" standalone="no"?>
<!DOCTYPE svg PUBLIC "-//W3C//DTD SVG 1.1//EN"
  "http://www.w3.org/Graphics/SVG/1.1/DTD/svg11.dtd">
<!-- Created with matplotlib (http://matplotlib.org/) -->
<svg height="432pt" version="1.1" viewBox="0 0 576 432" width="576pt" xmlns="http://www.w3.org/2000/svg" xmlns:xlink="http://www.w3.org/1999/xlink">
 <defs>
  <style type="text/css">
*{stroke-linecap:butt;stroke-linejoin:round;stroke-miterlimit:100000;}
  </style>
 </defs>
 <g id="figure_1">
  <g id="patch_1">
   <path d="M 0 432 
L 576 432 
L 576 0 
L 0 0 
z
" style="fill:#ffffff;"/>
  </g>
  <g id="axes_1">
   <g id="patch_2">
    <path d="M 72 388.8 
L 518.4 388.8 
L 518.4 43.2 
L 72 43.2 
z
" style="fill:#ffffff;"/>
   </g>
   <g id="line2d_1">
    <path clip-path="url(#pe82981623f)" d="M 449.575769 141.009975 
L 448.212931 133.8099 
L 446.65557 127.061425 
L 444.903688 120.764551 
L 442.957283 114.919278 
L 441.551612 111.273319 
L 440.059487 107.828071 
L 438.480908 104.583534 
L 436.815874 101.539709 
L 435.064386 98.696596 
L 433.226444 96.054193 
L 431.302047 93.612503 
L 429.291196 91.371523 
L 427.193891 89.331255 
L 425.010132 87.491699 
L 422.739918 85.852854 
L 420.383251 84.41472 
L 417.940128 83.177298 
L 415.410552 82.140587 
L 412.793276 81.300844 
L 407.163134 79.81401 
L 400.957572 78.439868 
L 394.176591 77.178415 
L 386.82019 76.029653 
L 378.88837 74.99358 
L 370.381131 74.070199 
L 358.937898 73.074442 
L 346.595572 72.254764 
L 333.354153 71.611165 
L 322.131498 71.265912 
L 313.429599 71.303762 
L 304.4995 71.634477 
L 295.341201 72.258058 
L 285.954702 73.174503 
L 276.340003 74.383814 
L 266.497105 75.88599 
L 256.426006 77.681031 
L 246.126707 79.768938 
L 235.599208 82.149709 
L 224.843509 84.823346 
L 213.85961 87.789848 
L 202.647511 91.049215 
L 191.207212 94.601447 
L 183.586908 97.125877 
L 176.499873 99.749872 
L 169.994112 102.471118 
L 164.069624 105.289615 
L 158.726408 108.205364 
L 153.964465 111.218364 
L 149.783795 114.328614 
L 147.911437 115.920209 
L 146.184398 117.536116 
L 144.602676 119.176337 
L 143.166273 120.84087 
L 141.875188 122.529715 
L 140.729421 124.242874 
L 139.728973 125.980345 
L 138.873842 127.74213 
L 138.16403 129.528226 
L 137.599536 131.338636 
L 137.18036 133.173359 
L 136.906503 135.032394 
L 136.777963 136.915742 
L 136.794742 138.823403 
L 136.956839 140.755377 
L 137.264254 142.711663 
L 137.716988 144.692263 
L 138.315039 146.697175 
L 139.058409 148.7264 
L 139.947097 150.779937 
L 140.981103 152.857788 
L 142.160427 154.959951 
L 144.955031 159.237216 
L 148.330907 163.611732 
L 152.288056 168.083499 
L 156.479534 172.61875 
L 160.266967 177.155351 
L 163.636475 181.691952 
L 166.588061 186.228554 
L 169.121723 190.765155 
L 171.237461 195.301756 
L 172.935275 199.838358 
L 174.215166 204.374959 
L 175.077134 208.91156 
L 175.521178 213.448162 
L 175.547298 217.984763 
L 175.155495 222.521364 
L 174.345768 227.057966 
L 173.118117 231.594567 
L 171.472543 236.131168 
L 169.409045 240.66777 
L 166.927624 245.204371 
L 164.028279 249.740972 
L 160.71101 254.277574 
L 156.975818 258.814175 
L 152.82357 263.350692 
L 148.793762 267.834616 
L 145.345227 272.221288 
L 142.477964 276.510709 
L 141.262311 278.618951 
L 140.191975 280.702879 
L 139.266957 282.762495 
L 138.487258 284.797798 
L 137.852877 286.808789 
L 137.363814 288.795466 
L 137.020069 290.757831 
L 136.821643 292.695883 
L 136.768534 294.609622 
L 136.860744 296.499048 
L 137.098272 298.364162 
L 137.481119 300.204962 
L 138.009283 302.02145 
L 138.682766 303.813626 
L 139.501567 305.581488 
L 140.465686 307.325037 
L 141.575123 309.044274 
L 142.829878 310.739198 
L 144.229952 312.409809 
L 145.775344 314.056108 
L 147.466054 315.678093 
L 149.302082 317.275766 
L 153.410093 320.398173 
L 158.099377 323.42333 
L 163.369933 326.351234 
L 169.221763 329.181888 
L 175.654865 331.915291 
L 182.66924 334.551442 
L 190.243553 337.089314 
L 201.702869 340.665951 
L 212.933984 343.949724 
L 223.9369 346.940631 
L 234.711616 349.638673 
L 245.258131 352.04385 
L 255.576447 354.156162 
L 265.666562 355.975609 
L 275.528478 357.50219 
L 285.162193 358.735907 
L 294.567709 359.676758 
L 303.745025 360.324744 
L 312.69414 360.679864 
L 321.415056 360.74212 
L 329.903315 360.522223 
L 343.369507 359.922643 
L 355.936606 359.146985 
L 367.604612 358.195248 
L 378.373526 357.067432 
L 386.34131 356.038403 
L 393.733674 354.896684 
L 400.550619 353.642275 
L 406.792144 352.275175 
L 412.45825 350.795385 
L 415.088276 349.974889 
L 417.628659 348.963267 
L 420.082588 347.750934 
L 422.450063 346.337889 
L 424.731083 344.724133 
L 426.925649 342.909666 
L 429.033761 340.894487 
L 431.055419 338.678596 
L 432.990622 336.261994 
L 434.839371 333.644681 
L 436.601666 330.826656 
L 438.277506 327.80792 
L 439.866893 324.588473 
L 441.369825 321.168314 
L 442.786302 317.547443 
L 444.116326 313.725861 
L 445.949259 307.617154 
L 447.587671 301.056847 
L 449.03156 294.044939 
L 450.677771 284.356613 
L 452.383654 273.185594 
L 453.705335 263.162614 
L 454.642814 254.287671 
L 455.116172 248.014305 
L 455.343639 242.475683 
L 455.325218 237.671806 
L 455.060907 233.602673 
L 454.701309 231.033 
L 454.203398 228.87662 
L 452.162731 222.01079 
L 451.738348 219.182183 
L 451.575123 216.353576 
L 451.673058 213.524969 
L 452.032152 210.696362 
L 452.652404 207.867755 
L 453.533816 205.039148 
L 454.340842 202.623031 
L 454.804175 200.363328 
L 455.129195 197.690331 
L 455.315902 194.604041 
L 455.349692 189.846085 
L 455.137592 184.353385 
L 454.679603 178.12594 
L 453.975724 171.163751 
L 452.750094 161.42778 
L 451.140261 150.54377 
L 449.575769 141.009975 
L 449.575769 141.009975 
" style="fill:none;stroke:#0000ff;stroke-linecap:square;"/>
   </g>
   <g id="patch_3">
    <path d="M 72 43.2 
L 518.4 43.2 
" style="fill:none;stroke:#000000;stroke-linecap:square;stroke-linejoin:miter;"/>
   </g>
   <g id="patch_4">
    <path d="M 518.4 388.8 
L 518.4 43.2 
" style="fill:none;stroke:#000000;stroke-linecap:square;stroke-linejoin:miter;"/>
   </g>
   <g id="patch_5">
    <path d="M 72 388.8 
L 518.4 388.8 
" style="fill:none;stroke:#000000;stroke-linecap:square;stroke-linejoin:miter;"/>
   </g>
   <g id="patch_6">
    <path d="M 72 388.8 
L 72 43.2 
" style="fill:none;stroke:#000000;stroke-linecap:square;stroke-linejoin:miter;"/>
   </g>
   <g id="matplotlib.axis_1">
    <g id="xtick_1">
     <g id="line2d_2">
      <defs>
       <path d="M 0 0 
L 0 -4 
" id="md29cb9d58f" style="stroke:#000000;stroke-width:0.5;"/>
      </defs>
      <g>
       <use style="stroke:#000000;stroke-width:0.5;" x="72.0" xlink:href="#md29cb9d58f" y="388.8"/>
      </g>
     </g>
     <g id="line2d_3">
      <defs>
       <path d="M 0 0 
L 0 4 
" id="m316f8cc9a7" style="stroke:#000000;stroke-width:0.5;"/>
      </defs>
      <g>
       <use style="stroke:#000000;stroke-width:0.5;" x="72.0" xlink:href="#m316f8cc9a7" y="43.2"/>
      </g>
     </g>
     <g id="text_1">
      <!-- −15 -->
      <defs>
       <path d="M 10.59375 35.5 
L 73.1875 35.5 
L 73.1875 27.203125 
L 10.59375 27.203125 
z
" id="BitstreamVeraSans-Roman-2212"/>
       <path d="M 12.40625 8.296875 
L 28.515625 8.296875 
L 28.515625 63.921875 
L 10.984375 60.40625 
L 10.984375 69.390625 
L 28.421875 72.90625 
L 38.28125 72.90625 
L 38.28125 8.296875 
L 54.390625 8.296875 
L 54.390625 0 
L 12.40625 0 
z
" id="BitstreamVeraSans-Roman-31"/>
       <path d="M 10.796875 72.90625 
L 49.515625 72.90625 
L 49.515625 64.59375 
L 19.828125 64.59375 
L 19.828125 46.734375 
Q 21.96875 47.46875 24.109375 47.828125 
Q 26.265625 48.1875 28.421875 48.1875 
Q 40.625 48.1875 47.75 41.5 
Q 54.890625 34.8125 54.890625 23.390625 
Q 54.890625 11.625 47.5625 5.09375 
Q 40.234375 -1.421875 26.90625 -1.421875 
Q 22.3125 -1.421875 17.546875 -0.640625 
Q 12.796875 0.140625 7.71875 1.703125 
L 7.71875 11.625 
Q 12.109375 9.234375 16.796875 8.0625 
Q 21.484375 6.890625 26.703125 6.890625 
Q 35.15625 6.890625 40.078125 11.328125 
Q 45.015625 15.765625 45.015625 23.390625 
Q 45.015625 31 40.078125 35.4375 
Q 35.15625 39.890625 26.703125 39.890625 
Q 22.75 39.890625 18.8125 39.015625 
Q 14.890625 38.140625 10.796875 36.28125 
z
" id="BitstreamVeraSans-Roman-35"/>
      </defs>
      <g transform="translate(59.3371875 401.918125)scale(0.12 -0.12)">
       <use xlink:href="#BitstreamVeraSans-Roman-2212"/>
       <use x="83.7890625" xlink:href="#BitstreamVeraSans-Roman-31"/>
       <use x="147.412109375" xlink:href="#BitstreamVeraSans-Roman-35"/>
      </g>
     </g>
    </g>
    <g id="xtick_2">
     <g id="line2d_4">
      <g>
       <use style="stroke:#000000;stroke-width:0.5;" x="161.28" xlink:href="#md29cb9d58f" y="388.8"/>
      </g>
     </g>
     <g id="line2d_5">
      <g>
       <use style="stroke:#000000;stroke-width:0.5;" x="161.28" xlink:href="#m316f8cc9a7" y="43.2"/>
      </g>
     </g>
     <g id="text_2">
      <!-- −10 -->
      <defs>
       <path d="M 31.78125 66.40625 
Q 24.171875 66.40625 20.328125 58.90625 
Q 16.5 51.421875 16.5 36.375 
Q 16.5 21.390625 20.328125 13.890625 
Q 24.171875 6.390625 31.78125 6.390625 
Q 39.453125 6.390625 43.28125 13.890625 
Q 47.125 21.390625 47.125 36.375 
Q 47.125 51.421875 43.28125 58.90625 
Q 39.453125 66.40625 31.78125 66.40625 
M 31.78125 74.21875 
Q 44.046875 74.21875 50.515625 64.515625 
Q 56.984375 54.828125 56.984375 36.375 
Q 56.984375 17.96875 50.515625 8.265625 
Q 44.046875 -1.421875 31.78125 -1.421875 
Q 19.53125 -1.421875 13.0625 8.265625 
Q 6.59375 17.96875 6.59375 36.375 
Q 6.59375 54.828125 13.0625 64.515625 
Q 19.53125 74.21875 31.78125 74.21875 
" id="BitstreamVeraSans-Roman-30"/>
      </defs>
      <g transform="translate(148.6171875 401.918125)scale(0.12 -0.12)">
       <use xlink:href="#BitstreamVeraSans-Roman-2212"/>
       <use x="83.7890625" xlink:href="#BitstreamVeraSans-Roman-31"/>
       <use x="147.412109375" xlink:href="#BitstreamVeraSans-Roman-30"/>
      </g>
     </g>
    </g>
    <g id="xtick_3">
     <g id="line2d_6">
      <g>
       <use style="stroke:#000000;stroke-width:0.5;" x="250.56" xlink:href="#md29cb9d58f" y="388.8"/>
      </g>
     </g>
     <g id="line2d_7">
      <g>
       <use style="stroke:#000000;stroke-width:0.5;" x="250.56" xlink:href="#m316f8cc9a7" y="43.2"/>
      </g>
     </g>
     <g id="text_3">
      <!-- −5 -->
      <g transform="translate(241.7146875 401.918125)scale(0.12 -0.12)">
       <use xlink:href="#BitstreamVeraSans-Roman-2212"/>
       <use x="83.7890625" xlink:href="#BitstreamVeraSans-Roman-35"/>
      </g>
     </g>
    </g>
    <g id="xtick_4">
     <g id="line2d_8">
      <g>
       <use style="stroke:#000000;stroke-width:0.5;" x="339.84" xlink:href="#md29cb9d58f" y="388.8"/>
      </g>
     </g>
     <g id="line2d_9">
      <g>
       <use style="stroke:#000000;stroke-width:0.5;" x="339.84" xlink:href="#m316f8cc9a7" y="43.2"/>
      </g>
     </g>
     <g id="text_4">
      <!-- 0 -->
      <g transform="translate(336.0225 401.918125)scale(0.12 -0.12)">
       <use xlink:href="#BitstreamVeraSans-Roman-30"/>
      </g>
     </g>
    </g>
    <g id="xtick_5">
     <g id="line2d_10">
      <g>
       <use style="stroke:#000000;stroke-width:0.5;" x="429.12" xlink:href="#md29cb9d58f" y="388.8"/>
      </g>
     </g>
     <g id="line2d_11">
      <g>
       <use style="stroke:#000000;stroke-width:0.5;" x="429.12" xlink:href="#m316f8cc9a7" y="43.2"/>
      </g>
     </g>
     <g id="text_5">
      <!-- 5 -->
      <g transform="translate(425.3025 401.918125)scale(0.12 -0.12)">
       <use xlink:href="#BitstreamVeraSans-Roman-35"/>
      </g>
     </g>
    </g>
    <g id="xtick_6">
     <g id="line2d_12">
      <g>
       <use style="stroke:#000000;stroke-width:0.5;" x="518.4" xlink:href="#md29cb9d58f" y="388.8"/>
      </g>
     </g>
     <g id="line2d_13">
      <g>
       <use style="stroke:#000000;stroke-width:0.5;" x="518.4" xlink:href="#m316f8cc9a7" y="43.2"/>
      </g>
     </g>
     <g id="text_6">
      <!-- 10 -->
      <g transform="translate(510.765 401.918125)scale(0.12 -0.12)">
       <use xlink:href="#BitstreamVeraSans-Roman-31"/>
       <use x="63.623046875" xlink:href="#BitstreamVeraSans-Roman-30"/>
      </g>
     </g>
    </g>
   </g>
   <g id="matplotlib.axis_2">
    <g id="ytick_1">
     <g id="line2d_14">
      <defs>
       <path d="M 0 0 
L 4 0 
" id="m4fd6077dab" style="stroke:#000000;stroke-width:0.5;"/>
      </defs>
      <g>
       <use style="stroke:#000000;stroke-width:0.5;" x="72.0" xlink:href="#m4fd6077dab" y="388.8"/>
      </g>
     </g>
     <g id="line2d_15">
      <defs>
       <path d="M 0 0 
L -4 0 
" id="mbab7b1ed07" style="stroke:#000000;stroke-width:0.5;"/>
      </defs>
      <g>
       <use style="stroke:#000000;stroke-width:0.5;" x="518.4" xlink:href="#mbab7b1ed07" y="388.8"/>
      </g>
     </g>
     <g id="text_7">
      <!-- −10 -->
      <g transform="translate(42.674375 392.11125)scale(0.12 -0.12)">
       <use xlink:href="#BitstreamVeraSans-Roman-2212"/>
       <use x="83.7890625" xlink:href="#BitstreamVeraSans-Roman-31"/>
       <use x="147.412109375" xlink:href="#BitstreamVeraSans-Roman-30"/>
      </g>
     </g>
    </g>
    <g id="ytick_2">
     <g id="line2d_16">
      <g>
       <use style="stroke:#000000;stroke-width:0.5;" x="72.0" xlink:href="#m4fd6077dab" y="302.4"/>
      </g>
     </g>
     <g id="line2d_17">
      <g>
       <use style="stroke:#000000;stroke-width:0.5;" x="518.4" xlink:href="#mbab7b1ed07" y="302.4"/>
      </g>
     </g>
     <g id="text_8">
      <!-- −5 -->
      <g transform="translate(50.309375 305.71125)scale(0.12 -0.12)">
       <use xlink:href="#BitstreamVeraSans-Roman-2212"/>
       <use x="83.7890625" xlink:href="#BitstreamVeraSans-Roman-35"/>
      </g>
     </g>
    </g>
    <g id="ytick_3">
     <g id="line2d_18">
      <g>
       <use style="stroke:#000000;stroke-width:0.5;" x="72.0" xlink:href="#m4fd6077dab" y="216.0"/>
      </g>
     </g>
     <g id="line2d_19">
      <g>
       <use style="stroke:#000000;stroke-width:0.5;" x="518.4" xlink:href="#mbab7b1ed07" y="216.0"/>
      </g>
     </g>
     <g id="text_9">
      <!-- 0 -->
      <g transform="translate(60.365 219.31125)scale(0.12 -0.12)">
       <use xlink:href="#BitstreamVeraSans-Roman-30"/>
      </g>
     </g>
    </g>
    <g id="ytick_4">
     <g id="line2d_20">
      <g>
       <use style="stroke:#000000;stroke-width:0.5;" x="72.0" xlink:href="#m4fd6077dab" y="129.6"/>
      </g>
     </g>
     <g id="line2d_21">
      <g>
       <use style="stroke:#000000;stroke-width:0.5;" x="518.4" xlink:href="#mbab7b1ed07" y="129.6"/>
      </g>
     </g>
     <g id="text_10">
      <!-- 5 -->
      <g transform="translate(60.365 132.91125)scale(0.12 -0.12)">
       <use xlink:href="#BitstreamVeraSans-Roman-35"/>
      </g>
     </g>
    </g>
    <g id="ytick_5">
     <g id="line2d_22">
      <g>
       <use style="stroke:#000000;stroke-width:0.5;" x="72.0" xlink:href="#m4fd6077dab" y="43.2"/>
      </g>
     </g>
     <g id="line2d_23">
      <g>
       <use style="stroke:#000000;stroke-width:0.5;" x="518.4" xlink:href="#mbab7b1ed07" y="43.2"/>
      </g>
     </g>
     <g id="text_11">
      <!-- 10 -->
      <g transform="translate(52.73 46.51125)scale(0.12 -0.12)">
       <use xlink:href="#BitstreamVeraSans-Roman-31"/>
       <use x="63.623046875" xlink:href="#BitstreamVeraSans-Roman-30"/>
      </g>
     </g>
    </g>
   </g>
  </g>
 </g>
 <defs>
  <clipPath id="pe82981623f">
   <rect height="345.6" width="446.4" x="72.0" y="43.2"/>
  </clipPath>
 </defs>
</svg>
