<?xml version="1.0" encoding="utf-8" standalone="no"?>
<!DOCTYPE svg PUBLIC "-//W3C//DTD SVG 1.1//EN"
  "http://www.w3.org/Graphics/SVG/1.1/DTD/svg11.dtd">
<!-- Created with matplotlib (http://matplotlib.org/) -->
<svg height="432pt" version="1.1" viewBox="0 0 576 432" width="576pt" xmlns="http://www.w3.org/2000/svg" xmlns:xlink="http://www.w3.org/1999/xlink">
 <defs>
  <style type="text/css">
*{stroke-linecap:butt;stroke-linejoin:round;stroke-miterlimit:100000;}
  </style>
 </defs>
 <g id="figure_1">
  <g id="patch_1">
   <path d="M 0 432 
L 576 432 
L 576 0 
L 0 0 
z
" style="fill:#ffffff;"/>
  </g>
  <g id="axes_1">
   <g id="patch_2">
    <path d="M 72 388.8 
L 518.4 388.8 
L 518.4 43.2 
L 72 43.2 
z
" style="fill:#ffffff;"/>
   </g>
   <g id="line2d_1">
    <path clip-path="url(#p6f59b2c44e)" d="M 442.194006 117.054249 
L 439.616935 115.020216 
L 437.02739 113.029902 
L 431.810876 109.180436 
L 426.544463 105.50585 
L 421.228151 102.006143 
L 415.86194 98.681317 
L 410.44583 95.53137 
L 404.979821 92.556304 
L 399.463914 89.756117 
L 393.898107 87.13081 
L 388.282401 84.680384 
L 382.616797 82.404837 
L 376.901293 80.30417 
L 371.135891 78.378384 
L 365.320589 76.627477 
L 359.455389 75.05145 
L 353.540289 73.650303 
L 347.575291 72.424037 
L 341.560394 71.37265 
L 335.495598 70.496143 
L 329.380903 69.794516 
L 323.217012 69.266667 
L 313.923143 68.731438 
L 304.589913 68.475414 
L 295.217324 68.498596 
L 285.805373 68.800984 
L 276.354062 69.382578 
L 266.863391 70.243376 
L 257.333359 71.383381 
L 247.763966 72.802591 
L 238.155213 74.501007 
L 228.5071 76.478628 
L 218.819625 78.735455 
L 209.092791 81.271488 
L 199.326596 84.086726 
L 189.560083 87.177288 
L 183.413473 89.354366 
L 177.699145 91.610811 
L 172.417098 93.946622 
L 167.567333 96.361799 
L 163.14985 98.856342 
L 159.164649 101.430251 
L 155.611729 104.083526 
L 152.491091 106.816167 
L 149.802735 109.628174 
L 147.54666 112.519548 
L 145.722867 115.490287 
L 144.331356 118.540393 
L 143.372127 121.669864 
L 142.845179 124.878702 
L 142.750513 128.166906 
L 143.088129 131.534476 
L 143.858027 134.981412 
L 145.060206 138.507714 
L 146.694667 142.113383 
L 148.761409 145.798417 
L 152.177697 151.353861 
L 154.055692 154.926804 
L 155.584767 158.388033 
L 156.764922 161.737546 
L 157.596157 164.975344 
L 158.078473 168.101428 
L 158.211868 171.115796 
L 157.996345 174.01845 
L 157.431901 176.809389 
L 156.518537 179.488613 
L 155.256254 182.056122 
L 153.645051 184.511917 
L 151.684929 186.855996 
L 149.375886 189.088361 
L 146.717924 191.20901 
L 143.711042 193.217945 
L 140.355241 195.115165 
L 136.650519 196.90067 
L 132.596878 198.574461 
L 128.194317 200.136536 
L 117.02528 203.740715 
L 113.295163 205.172456 
L 110.027696 206.604197 
L 107.222879 208.035939 
L 104.880713 209.46768 
L 103.001197 210.899421 
L 101.584331 212.331163 
L 100.630115 213.762904 
L 100.138549 215.194645 
L 100.06626 215.910516 
L 100.109633 216.626387 
L 100.268669 217.342258 
L 100.933729 218.773999 
L 102.061439 220.20574 
L 103.651799 221.637482 
L 105.704809 223.069223 
L 108.220469 224.500964 
L 111.198779 225.932706 
L 114.63974 227.364447 
L 118.54335 228.796188 
L 125.265531 230.943897 
L 129.886167 232.436151 
L 134.157883 234.040119 
L 138.080679 235.755803 
L 141.654555 237.583201 
L 144.879512 239.522314 
L 147.755549 241.573142 
L 150.282666 243.735684 
L 152.460864 246.009942 
L 154.290142 248.395915 
L 155.7705 250.893602 
L 156.901938 253.503004 
L 157.684456 256.224121 
L 158.118055 259.056953 
L 158.202734 262.0015 
L 157.938493 265.057762 
L 157.325333 268.225739 
L 156.363253 271.50543 
L 155.052253 274.896836 
L 153.392333 278.399958 
L 151.383494 282.014794 
L 146.929369 289.430328 
L 145.240873 293.045917 
L 143.984658 296.58214 
L 143.160726 300.038997 
L 142.769075 303.416488 
L 142.809706 306.714613 
L 143.282618 309.933371 
L 144.187812 313.072764 
L 145.525288 316.13279 
L 147.295046 319.11345 
L 149.497085 322.014744 
L 152.131406 324.836672 
L 155.198009 327.579234 
L 158.696893 330.24243 
L 162.62806 332.82626 
L 166.991508 335.330724 
L 171.787237 337.755822 
L 177.015249 340.101553 
L 182.675542 342.367919 
L 188.768117 344.554918 
L 195.245731 346.657853 
L 205.028326 349.589427 
L 214.771561 352.241796 
L 224.475435 354.614958 
L 234.139949 356.708915 
L 243.765102 358.523667 
L 253.350895 360.059213 
L 262.897327 361.315553 
L 272.404399 362.292687 
L 281.87211 362.990617 
L 291.300461 363.40934 
L 300.689451 363.548858 
L 310.039081 363.40917 
L 319.34935 362.990277 
L 328.613057 362.280891 
L 334.73399 361.601124 
L 340.805023 360.746477 
L 346.826158 359.716951 
L 352.797393 358.512544 
L 358.71873 357.133257 
L 364.590168 355.57909 
L 370.411707 353.850043 
L 376.183347 351.946117 
L 381.905088 349.86731 
L 387.57693 347.613623 
L 393.198873 345.185057 
L 398.770917 342.58161 
L 404.293062 339.803284 
L 409.765308 336.850077 
L 415.187655 333.72199 
L 420.560104 330.419024 
L 425.882653 326.941178 
L 431.155303 323.288451 
L 436.378055 319.460845 
L 441.550907 315.458358 
L 446.543522 311.373876 
L 451.148419 307.355255 
L 455.36294 303.404389 
L 459.187083 299.52128 
L 462.62085 295.705928 
L 465.664239 291.958331 
L 468.317252 288.278491 
L 470.579887 284.666407 
L 472.452146 281.12208 
L 473.934028 277.645508 
L 475.025532 274.236693 
L 475.72666 270.895634 
L 476.037411 267.622332 
L 475.957785 264.416785 
L 475.487782 261.278995 
L 474.627402 258.208961 
L 473.376645 255.206684 
L 471.735511 252.272163 
L 469.704 249.405398 
L 467.282112 246.606389 
L 464.472196 243.874901 
L 461.664204 241.17188 
L 459.142376 238.46886 
L 456.906713 235.765839 
L 454.957215 233.062818 
L 453.293882 230.359798 
L 451.916714 227.656777 
L 450.82571 224.953756 
L 450.020872 222.250735 
L 449.502198 219.547715 
L 449.269689 216.844694 
L 449.323345 214.141673 
L 449.663166 211.438653 
L 450.289151 208.735632 
L 451.201302 206.032611 
L 452.399617 203.32959 
L 453.884097 200.62657 
L 455.654742 197.923549 
L 457.711552 195.220528 
L 460.054526 192.517508 
L 462.683666 189.814487 
L 466.951927 185.738723 
L 469.422612 182.948184 
L 471.502921 180.089888 
L 473.192852 177.163837 
L 474.492406 174.170029 
L 475.401583 171.108464 
L 475.920383 167.979144 
L 476.048806 164.782067 
L 475.786853 161.517234 
L 475.134522 158.184645 
L 474.091814 154.784299 
L 472.65873 151.316197 
L 470.835268 147.780339 
L 468.62143 144.176725 
L 466.017214 140.505354 
L 463.022622 136.766227 
L 459.637653 132.959344 
L 455.862306 129.084705 
L 451.696583 125.142309 
L 447.140483 121.132157 
L 442.194006 117.054249 
L 442.194006 117.054249 
" style="fill:none;stroke:#0000ff;stroke-linecap:square;"/>
   </g>
   <g id="patch_3">
    <path d="M 72 43.2 
L 518.4 43.2 
" style="fill:none;stroke:#000000;stroke-linecap:square;stroke-linejoin:miter;"/>
   </g>
   <g id="patch_4">
    <path d="M 518.4 388.8 
L 518.4 43.2 
" style="fill:none;stroke:#000000;stroke-linecap:square;stroke-linejoin:miter;"/>
   </g>
   <g id="patch_5">
    <path d="M 72 388.8 
L 518.4 388.8 
" style="fill:none;stroke:#000000;stroke-linecap:square;stroke-linejoin:miter;"/>
   </g>
   <g id="patch_6">
    <path d="M 72 388.8 
L 72 43.2 
" style="fill:none;stroke:#000000;stroke-linecap:square;stroke-linejoin:miter;"/>
   </g>
   <g id="matplotlib.axis_1">
    <g id="xtick_1">
     <g id="line2d_2">
      <defs>
       <path d="M 0 0 
L 0 -4 
" id="m646bb132f3" style="stroke:#000000;stroke-width:0.5;"/>
      </defs>
      <g>
       <use style="stroke:#000000;stroke-width:0.5;" x="72.0" xlink:href="#m646bb132f3" y="388.8"/>
      </g>
     </g>
     <g id="line2d_3">
      <defs>
       <path d="M 0 0 
L 0 4 
" id="m2020292f64" style="stroke:#000000;stroke-width:0.5;"/>
      </defs>
      <g>
       <use style="stroke:#000000;stroke-width:0.5;" x="72.0" xlink:href="#m2020292f64" y="43.2"/>
      </g>
     </g>
     <g id="text_1">
      <!-- −15 -->
      <defs>
       <path d="M 10.59375 35.5 
L 73.1875 35.5 
L 73.1875 27.203125 
L 10.59375 27.203125 
z
" id="BitstreamVeraSans-Roman-2212"/>
       <path d="M 12.40625 8.296875 
L 28.515625 8.296875 
L 28.515625 63.921875 
L 10.984375 60.40625 
L 10.984375 69.390625 
L 28.421875 72.90625 
L 38.28125 72.90625 
L 38.28125 8.296875 
L 54.390625 8.296875 
L 54.390625 0 
L 12.40625 0 
z
" id="BitstreamVeraSans-Roman-31"/>
       <path d="M 10.796875 72.90625 
L 49.515625 72.90625 
L 49.515625 64.59375 
L 19.828125 64.59375 
L 19.828125 46.734375 
Q 21.96875 47.46875 24.109375 47.828125 
Q 26.265625 48.1875 28.421875 48.1875 
Q 40.625 48.1875 47.75 41.5 
Q 54.890625 34.8125 54.890625 23.390625 
Q 54.890625 11.625 47.5625 5.09375 
Q 40.234375 -1.421875 26.90625 -1.421875 
Q 22.3125 -1.421875 17.546875 -0.640625 
Q 12.796875 0.140625 7.71875 1.703125 
L 7.71875 11.625 
Q 12.109375 9.234375 16.796875 8.0625 
Q 21.484375 6.890625 26.703125 6.890625 
Q 35.15625 6.890625 40.078125 11.328125 
Q 45.015625 15.765625 45.015625 23.390625 
Q 45.015625 31 40.078125 35.4375 
Q 35.15625 39.890625 26.703125 39.890625 
Q 22.75 39.890625 18.8125 39.015625 
Q 14.890625 38.140625 10.796875 36.28125 
z
" id="BitstreamVeraSans-Roman-35"/>
      </defs>
      <g transform="translate(59.3371875 401.918125)scale(0.12 -0.12)">
       <use xlink:href="#BitstreamVeraSans-Roman-2212"/>
       <use x="83.7890625" xlink:href="#BitstreamVeraSans-Roman-31"/>
       <use x="147.412109375" xlink:href="#BitstreamVeraSans-Roman-35"/>
      </g>
     </g>
    </g>
    <g id="xtick_2">
     <g id="line2d_4">
      <g>
       <use style="stroke:#000000;stroke-width:0.5;" x="146.4" xlink:href="#m646bb132f3" y="388.8"/>
      </g>
     </g>
     <g id="line2d_5">
      <g>
       <use style="stroke:#000000;stroke-width:0.5;" x="146.4" xlink:href="#m2020292f64" y="43.2"/>
      </g>
     </g>
     <g id="text_2">
      <!-- −10 -->
      <defs>
       <path d="M 31.78125 66.40625 
Q 24.171875 66.40625 20.328125 58.90625 
Q 16.5 51.421875 16.5 36.375 
Q 16.5 21.390625 20.328125 13.890625 
Q 24.171875 6.390625 31.78125 6.390625 
Q 39.453125 6.390625 43.28125 13.890625 
Q 47.125 21.390625 47.125 36.375 
Q 47.125 51.421875 43.28125 58.90625 
Q 39.453125 66.40625 31.78125 66.40625 
M 31.78125 74.21875 
Q 44.046875 74.21875 50.515625 64.515625 
Q 56.984375 54.828125 56.984375 36.375 
Q 56.984375 17.96875 50.515625 8.265625 
Q 44.046875 -1.421875 31.78125 -1.421875 
Q 19.53125 -1.421875 13.0625 8.265625 
Q 6.59375 17.96875 6.59375 36.375 
Q 6.59375 54.828125 13.0625 64.515625 
Q 19.53125 74.21875 31.78125 74.21875 
" id="BitstreamVeraSans-Roman-30"/>
      </defs>
      <g transform="translate(133.7371875 401.918125)scale(0.12 -0.12)">
       <use xlink:href="#BitstreamVeraSans-Roman-2212"/>
       <use x="83.7890625" xlink:href="#BitstreamVeraSans-Roman-31"/>
       <use x="147.412109375" xlink:href="#BitstreamVeraSans-Roman-30"/>
      </g>
     </g>
    </g>
    <g id="xtick_3">
     <g id="line2d_6">
      <g>
       <use style="stroke:#000000;stroke-width:0.5;" x="220.8" xlink:href="#m646bb132f3" y="388.8"/>
      </g>
     </g>
     <g id="line2d_7">
      <g>
       <use style="stroke:#000000;stroke-width:0.5;" x="220.8" xlink:href="#m2020292f64" y="43.2"/>
      </g>
     </g>
     <g id="text_3">
      <!-- −5 -->
      <g transform="translate(211.9546875 401.918125)scale(0.12 -0.12)">
       <use xlink:href="#BitstreamVeraSans-Roman-2212"/>
       <use x="83.7890625" xlink:href="#BitstreamVeraSans-Roman-35"/>
      </g>
     </g>
    </g>
    <g id="xtick_4">
     <g id="line2d_8">
      <g>
       <use style="stroke:#000000;stroke-width:0.5;" x="295.2" xlink:href="#m646bb132f3" y="388.8"/>
      </g>
     </g>
     <g id="line2d_9">
      <g>
       <use style="stroke:#000000;stroke-width:0.5;" x="295.2" xlink:href="#m2020292f64" y="43.2"/>
      </g>
     </g>
     <g id="text_4">
      <!-- 0 -->
      <g transform="translate(291.3825 401.918125)scale(0.12 -0.12)">
       <use xlink:href="#BitstreamVeraSans-Roman-30"/>
      </g>
     </g>
    </g>
    <g id="xtick_5">
     <g id="line2d_10">
      <g>
       <use style="stroke:#000000;stroke-width:0.5;" x="369.6" xlink:href="#m646bb132f3" y="388.8"/>
      </g>
     </g>
     <g id="line2d_11">
      <g>
       <use style="stroke:#000000;stroke-width:0.5;" x="369.6" xlink:href="#m2020292f64" y="43.2"/>
      </g>
     </g>
     <g id="text_5">
      <!-- 5 -->
      <g transform="translate(365.7825 401.918125)scale(0.12 -0.12)">
       <use xlink:href="#BitstreamVeraSans-Roman-35"/>
      </g>
     </g>
    </g>
    <g id="xtick_6">
     <g id="line2d_12">
      <g>
       <use style="stroke:#000000;stroke-width:0.5;" x="444.0" xlink:href="#m646bb132f3" y="388.8"/>
      </g>
     </g>
     <g id="line2d_13">
      <g>
       <use style="stroke:#000000;stroke-width:0.5;" x="444.0" xlink:href="#m2020292f64" y="43.2"/>
      </g>
     </g>
     <g id="text_6">
      <!-- 10 -->
      <g transform="translate(436.365 401.918125)scale(0.12 -0.12)">
       <use xlink:href="#BitstreamVeraSans-Roman-31"/>
       <use x="63.623046875" xlink:href="#BitstreamVeraSans-Roman-30"/>
      </g>
     </g>
    </g>
    <g id="xtick_7">
     <g id="line2d_14">
      <g>
       <use style="stroke:#000000;stroke-width:0.5;" x="518.4" xlink:href="#m646bb132f3" y="388.8"/>
      </g>
     </g>
     <g id="line2d_15">
      <g>
       <use style="stroke:#000000;stroke-width:0.5;" x="518.4" xlink:href="#m2020292f64" y="43.2"/>
      </g>
     </g>
     <g id="text_7">
      <!-- 15 -->
      <g transform="translate(510.765 401.918125)scale(0.12 -0.12)">
       <use xlink:href="#BitstreamVeraSans-Roman-31"/>
       <use x="63.623046875" xlink:href="#BitstreamVeraSans-Roman-35"/>
      </g>
     </g>
    </g>
   </g>
   <g id="matplotlib.axis_2">
    <g id="ytick_1">
     <g id="line2d_16">
      <defs>
       <path d="M 0 0 
L 4 0 
" id="m5e46d82c14" style="stroke:#000000;stroke-width:0.5;"/>
      </defs>
      <g>
       <use style="stroke:#000000;stroke-width:0.5;" x="72.0" xlink:href="#m5e46d82c14" y="388.8"/>
      </g>
     </g>
     <g id="line2d_17">
      <defs>
       <path d="M 0 0 
L -4 0 
" id="mff597cc185" style="stroke:#000000;stroke-width:0.5;"/>
      </defs>
      <g>
       <use style="stroke:#000000;stroke-width:0.5;" x="518.4" xlink:href="#mff597cc185" y="388.8"/>
      </g>
     </g>
     <g id="text_8">
      <!-- −15 -->
      <g transform="translate(42.674375 392.11125)scale(0.12 -0.12)">
       <use xlink:href="#BitstreamVeraSans-Roman-2212"/>
       <use x="83.7890625" xlink:href="#BitstreamVeraSans-Roman-31"/>
       <use x="147.412109375" xlink:href="#BitstreamVeraSans-Roman-35"/>
      </g>
     </g>
    </g>
    <g id="ytick_2">
     <g id="line2d_18">
      <g>
       <use style="stroke:#000000;stroke-width:0.5;" x="72.0" xlink:href="#m5e46d82c14" y="331.2"/>
      </g>
     </g>
     <g id="line2d_19">
      <g>
       <use style="stroke:#000000;stroke-width:0.5;" x="518.4" xlink:href="#mff597cc185" y="331.2"/>
      </g>
     </g>
     <g id="text_9">
      <!-- −10 -->
      <g transform="translate(42.674375 334.51125)scale(0.12 -0.12)">
       <use xlink:href="#BitstreamVeraSans-Roman-2212"/>
       <use x="83.7890625" xlink:href="#BitstreamVeraSans-Roman-31"/>
       <use x="147.412109375" xlink:href="#BitstreamVeraSans-Roman-30"/>
      </g>
     </g>
    </g>
    <g id="ytick_3">
     <g id="line2d_20">
      <g>
       <use style="stroke:#000000;stroke-width:0.5;" x="72.0" xlink:href="#m5e46d82c14" y="273.6"/>
      </g>
     </g>
     <g id="line2d_21">
      <g>
       <use style="stroke:#000000;stroke-width:0.5;" x="518.4" xlink:href="#mff597cc185" y="273.6"/>
      </g>
     </g>
     <g id="text_10">
      <!-- −5 -->
      <g transform="translate(50.309375 276.91125)scale(0.12 -0.12)">
       <use xlink:href="#BitstreamVeraSans-Roman-2212"/>
       <use x="83.7890625" xlink:href="#BitstreamVeraSans-Roman-35"/>
      </g>
     </g>
    </g>
    <g id="ytick_4">
     <g id="line2d_22">
      <g>
       <use style="stroke:#000000;stroke-width:0.5;" x="72.0" xlink:href="#m5e46d82c14" y="216.0"/>
      </g>
     </g>
     <g id="line2d_23">
      <g>
       <use style="stroke:#000000;stroke-width:0.5;" x="518.4" xlink:href="#mff597cc185" y="216.0"/>
      </g>
     </g>
     <g id="text_11">
      <!-- 0 -->
      <g transform="translate(60.365 219.31125)scale(0.12 -0.12)">
       <use xlink:href="#BitstreamVeraSans-Roman-30"/>
      </g>
     </g>
    </g>
    <g id="ytick_5">
     <g id="line2d_24">
      <g>
       <use style="stroke:#000000;stroke-width:0.5;" x="72.0" xlink:href="#m5e46d82c14" y="158.4"/>
      </g>
     </g>
     <g id="line2d_25">
      <g>
       <use style="stroke:#000000;stroke-width:0.5;" x="518.4" xlink:href="#mff597cc185" y="158.4"/>
      </g>
     </g>
     <g id="text_12">
      <!-- 5 -->
      <g transform="translate(60.365 161.71125)scale(0.12 -0.12)">
       <use xlink:href="#BitstreamVeraSans-Roman-35"/>
      </g>
     </g>
    </g>
    <g id="ytick_6">
     <g id="line2d_26">
      <g>
       <use style="stroke:#000000;stroke-width:0.5;" x="72.0" xlink:href="#m5e46d82c14" y="100.8"/>
      </g>
     </g>
     <g id="line2d_27">
      <g>
       <use style="stroke:#000000;stroke-width:0.5;" x="518.4" xlink:href="#mff597cc185" y="100.8"/>
      </g>
     </g>
     <g id="text_13">
      <!-- 10 -->
      <g transform="translate(52.73 104.11125)scale(0.12 -0.12)">
       <use xlink:href="#BitstreamVeraSans-Roman-31"/>
       <use x="63.623046875" xlink:href="#BitstreamVeraSans-Roman-30"/>
      </g>
     </g>
    </g>
    <g id="ytick_7">
     <g id="line2d_28">
      <g>
       <use style="stroke:#000000;stroke-width:0.5;" x="72.0" xlink:href="#m5e46d82c14" y="43.2"/>
      </g>
     </g>
     <g id="line2d_29">
      <g>
       <use style="stroke:#000000;stroke-width:0.5;" x="518.4" xlink:href="#mff597cc185" y="43.2"/>
      </g>
     </g>
     <g id="text_14">
      <!-- 15 -->
      <g transform="translate(52.73 46.51125)scale(0.12 -0.12)">
       <use xlink:href="#BitstreamVeraSans-Roman-31"/>
       <use x="63.623046875" xlink:href="#BitstreamVeraSans-Roman-35"/>
      </g>
     </g>
    </g>
   </g>
  </g>
 </g>
 <defs>
  <clipPath id="p6f59b2c44e">
   <rect height="345.6" width="446.4" x="72.0" y="43.2"/>
  </clipPath>
 </defs>
</svg>
