solid Surface2
   facet normal 9.964908e-001 8.370229e-002 0.000000e+000
      outer loop
         vertex 4.500000e+001 1.500000e+001 2.500000e+001
         vertex 4.488172e+001 1.688000e+001 -2.500000e+001
         vertex 4.488172e+001 1.688000e+001 2.500000e+001
      endloop
   endfacet
   facet normal 9.860001e-001 1.667446e-001 0.000000e+000
      outer loop
         vertex 4.488172e+001 1.688000e+001 2.500000e+001
         vertex 4.488172e+001 1.688000e+001 -2.500000e+001
         vertex 4.452875e+001 1.873035e+001 -2.500000e+001
      endloop
   endfacet
   facet normal 9.781425e-001 2.079357e-001 0.000000e+000
      outer loop
         vertex 4.488172e+001 1.688000e+001 2.500000e+001
         vertex 4.452875e+001 1.873035e+001 -2.500000e+001
         vertex 4.452875e+001 1.873035e+001 2.500000e+001
      endloop
   endfacet
   facet normal 9.573266e-001 2.890083e-001 0.000000e+000
      outer loop
         vertex 4.452875e+001 1.873035e+001 2.500000e+001
         vertex 4.452875e+001 1.873035e+001 -2.500000e+001
         vertex 4.394665e+001 2.052187e+001 -2.500000e+001
      endloop
   endfacet
   facet normal 9.443683e-001 3.288898e-001 0.000000e+000
      outer loop
         vertex 4.452875e+001 1.873035e+001 2.500000e+001
         vertex 4.394665e+001 2.052187e+001 -2.500000e+001
         vertex 4.394665e+001 2.052187e+001 2.500000e+001
      endloop
   endfacet
   facet normal 9.135554e-001 4.067142e-001 0.000000e+000
      outer loop
         vertex 4.394665e+001 2.052187e+001 2.500000e+001
         vertex 4.394665e+001 2.052187e+001 -2.500000e+001
         vertex 4.314460e+001 2.222631e+001 -2.500000e+001
      endloop
   endfacet
   facet normal 8.957008e-001 4.446571e-001 0.000000e+000
      outer loop
         vertex 4.394665e+001 2.052187e+001 2.500000e+001
         vertex 4.314460e+001 2.222631e+001 -2.500000e+001
         vertex 4.314460e+001 2.222631e+001 2.500000e+001
      endloop
   endfacet
   facet normal 8.553770e-001 5.180060e-001 0.000000e+000
      outer loop
         vertex 4.314460e+001 2.222631e+001 2.500000e+001
         vertex 4.314460e+001 2.222631e+001 -2.500000e+001
         vertex 4.213525e+001 2.381678e+001 -2.500000e+001
      endloop
   endfacet
   facet normal 8.329076e-001 5.534120e-001 0.000000e+000
      outer loop
         vertex 4.314460e+001 2.222631e+001 2.500000e+001
         vertex 4.213525e+001 2.381678e+001 -2.500000e+001
         vertex 4.213525e+001 2.381678e+001 2.500000e+001
      endloop
   endfacet
   facet normal 7.837087e-001 6.211286e-001 0.000000e+000
      outer loop
         vertex 4.213525e+001 2.381678e+001 2.500000e+001
         vertex 4.213525e+001 2.381678e+001 -2.500000e+001
         vertex 4.093453e+001 2.526821e+001 -2.500000e+001
      endloop
   endfacet
   facet normal 7.569790e-001 6.534392e-001 0.000000e+000
      outer loop
         vertex 4.213525e+001 2.381678e+001 2.500000e+001
         vertex 4.093453e+001 2.526821e+001 -2.500000e+001
         vertex 4.093453e+001 2.526821e+001 2.500000e+001
      endloop
   endfacet
   facet normal 6.996809e-001 7.144555e-001 0.000000e+000
      outer loop
         vertex 4.093453e+001 2.526821e+001 2.500000e+001
         vertex 4.093453e+001 2.526821e+001 -2.500000e+001
         vertex 3.956136e+001 2.655770e+001 -2.500000e+001
      endloop
   endfacet
   facet normal 6.691124e-001 7.431613e-001 0.000000e+000
      outer loop
         vertex 4.093453e+001 2.526821e+001 2.500000e+001
         vertex 3.956136e+001 2.655770e+001 -2.500000e+001
         vertex 3.956136e+001 2.655770e+001 2.500000e+001
      endloop
   endfacet
   facet normal 6.046186e-001 7.965151e-001 0.000000e+000
      outer loop
         vertex 3.956136e+001 2.655770e+001 2.500000e+001
         vertex 3.956136e+001 2.655770e+001 -2.500000e+001
         vertex 3.803740e+001 2.766492e+001 -2.500000e+001
      endloop
   endfacet
   facet normal 5.706934e-001 8.211632e-001 0.000000e+000
      outer loop
         vertex 3.956136e+001 2.655770e+001 2.500000e+001
         vertex 3.803740e+001 2.766492e+001 -2.500000e+001
         vertex 3.803740e+001 2.766492e+001 2.500000e+001
      endloop
   endfacet
   facet normal 5.000213e-001 8.660132e-001 0.000000e+000
      outer loop
         vertex 3.803740e+001 2.766492e+001 2.500000e+001
         vertex 3.803740e+001 2.766492e+001 -2.500000e+001
         vertex 3.638669e+001 2.857241e+001 -2.500000e+001
      endloop
   endfacet
   facet normal 4.632743e-001 8.862150e-001 0.000000e+000
      outer loop
         vertex 3.803740e+001 2.766492e+001 2.500000e+001
         vertex 3.638669e+001 2.857241e+001 -2.500000e+001
         vertex 3.638669e+001 2.857241e+001 2.500000e+001
      endloop
   endfacet
   facet normal 3.875382e-001 9.218537e-001 0.000000e+000
      outer loop
         vertex 3.638669e+001 2.857241e+001 2.500000e+001
         vertex 3.638669e+001 2.857241e+001 -2.500000e+001
         vertex 3.463525e+001 2.926585e+001 -2.500000e+001
      endloop
   endfacet
   facet normal 3.485490e-001 9.372905e-001 0.000000e+000
      outer loop
         vertex 3.638669e+001 2.857241e+001 2.500000e+001
         vertex 3.463525e+001 2.926585e+001 -2.500000e+001
         vertex 3.463525e+001 2.926585e+001 2.500000e+001
      endloop
   endfacet
   facet normal 2.689435e-001 9.631560e-001 0.000000e+000
      outer loop
         vertex 3.463525e+001 2.926585e+001 2.500000e+001
         vertex 3.463525e+001 2.926585e+001 -2.500000e+001
         vertex 3.281072e+001 2.973431e+001 -2.500000e+001
      endloop
   endfacet
   facet normal 2.283270e-001 9.735845e-001 0.000000e+000
      outer loop
         vertex 3.463525e+001 2.926585e+001 2.500000e+001
         vertex 3.281072e+001 2.973431e+001 -2.500000e+001
         vertex 3.281072e+001 2.973431e+001 2.500000e+001
      endloop
   endfacet
   facet normal 1.461073e-001 9.892687e-001 0.000000e+000
      outer loop
         vertex 3.281072e+001 2.973431e+001 2.500000e+001
         vertex 3.281072e+001 2.973431e+001 -2.500000e+001
         vertex 3.094186e+001 2.997040e+001 -2.500000e+001
      endloop
   endfacet
   facet normal 1.045041e-001 9.945244e-001 0.000000e+000
      outer loop
         vertex 3.281072e+001 2.973431e+001 2.500000e+001
         vertex 3.094186e+001 2.997040e+001 -2.500000e+001
         vertex 3.094186e+001 2.997040e+001 2.500000e+001
      endloop
   endfacet
   facet normal 2.096695e-002 9.997802e-001 0.000000e+000
      outer loop
         vertex 3.094186e+001 2.997040e+001 2.500000e+001
         vertex 3.094186e+001 2.997040e+001 -2.500000e+001
         vertex 2.905814e+001 2.997040e+001 -2.500000e+001
      endloop
   endfacet
   facet normal -2.096695e-002 9.997802e-001 0.000000e+000
      outer loop
         vertex 3.094186e+001 2.997040e+001 2.500000e+001
         vertex 2.905814e+001 2.997040e+001 -2.500000e+001
         vertex 2.905814e+001 2.997040e+001 2.500000e+001
      endloop
   endfacet
   facet normal -1.045041e-001 9.945244e-001 0.000000e+000
      outer loop
         vertex 2.905814e+001 2.997040e+001 2.500000e+001
         vertex 2.905814e+001 2.997040e+001 -2.500000e+001
         vertex 2.718928e+001 2.973431e+001 -2.500000e+001
      endloop
   endfacet
   facet normal -1.461073e-001 9.892687e-001 0.000000e+000
      outer loop
         vertex 2.905814e+001 2.997040e+001 2.500000e+001
         vertex 2.718928e+001 2.973431e+001 -2.500000e+001
         vertex 2.718928e+001 2.973431e+001 2.500000e+001
      endloop
   endfacet
   facet normal -2.283270e-001 9.735845e-001 0.000000e+000
      outer loop
         vertex 2.718928e+001 2.973431e+001 2.500000e+001
         vertex 2.718928e+001 2.973431e+001 -2.500000e+001
         vertex 2.536475e+001 2.926585e+001 -2.500000e+001
      endloop
   endfacet
   facet normal -2.689435e-001 9.631560e-001 0.000000e+000
      outer loop
         vertex 2.718928e+001 2.973431e+001 2.500000e+001
         vertex 2.536475e+001 2.926585e+001 -2.500000e+001
         vertex 2.536475e+001 2.926585e+001 2.500000e+001
      endloop
   endfacet
   facet normal -3.485490e-001 9.372905e-001 0.000000e+000
      outer loop
         vertex 2.536475e+001 2.926585e+001 2.500000e+001
         vertex 2.536475e+001 2.926585e+001 -2.500000e+001
         vertex 2.361331e+001 2.857241e+001 -2.500000e+001
      endloop
   endfacet
   facet normal -3.875382e-001 9.218537e-001 0.000000e+000
      outer loop
         vertex 2.536475e+001 2.926585e+001 2.500000e+001
         vertex 2.361331e+001 2.857241e+001 -2.500000e+001
         vertex 2.361331e+001 2.857241e+001 2.500000e+001
      endloop
   endfacet
   facet normal -4.632743e-001 8.862150e-001 0.000000e+000
      outer loop
         vertex 2.361331e+001 2.857241e+001 2.500000e+001
         vertex 2.361331e+001 2.857241e+001 -2.500000e+001
         vertex 2.196260e+001 2.766492e+001 -2.500000e+001
      endloop
   endfacet
   facet normal -5.000213e-001 8.660132e-001 0.000000e+000
      outer loop
         vertex 2.361331e+001 2.857241e+001 2.500000e+001
         vertex 2.196260e+001 2.766492e+001 -2.500000e+001
         vertex 2.196260e+001 2.766492e+001 2.500000e+001
      endloop
   endfacet
   facet normal -5.706934e-001 8.211632e-001 0.000000e+000
      outer loop
         vertex 2.196260e+001 2.766492e+001 2.500000e+001
         vertex 2.196260e+001 2.766492e+001 -2.500000e+001
         vertex 2.043864e+001 2.655770e+001 -2.500000e+001
      endloop
   endfacet
   facet normal -6.046186e-001 7.965151e-001 0.000000e+000
      outer loop
         vertex 2.196260e+001 2.766492e+001 2.500000e+001
         vertex 2.043864e+001 2.655770e+001 -2.500000e+001
         vertex 2.043864e+001 2.655770e+001 2.500000e+001
      endloop
   endfacet
   facet normal -6.691124e-001 7.431613e-001 0.000000e+000
      outer loop
         vertex 2.043864e+001 2.655770e+001 2.500000e+001
         vertex 2.043864e+001 2.655770e+001 -2.500000e+001
         vertex 1.906547e+001 2.526821e+001 -2.500000e+001
      endloop
   endfacet
   facet normal -6.996809e-001 7.144555e-001 0.000000e+000
      outer loop
         vertex 2.043864e+001 2.655770e+001 2.500000e+001
         vertex 1.906547e+001 2.526821e+001 -2.500000e+001
         vertex 1.906547e+001 2.526821e+001 2.500000e+001
      endloop
   endfacet
   facet normal -7.569790e-001 6.534392e-001 0.000000e+000
      outer loop
         vertex 1.906547e+001 2.526821e+001 2.500000e+001
         vertex 1.906547e+001 2.526821e+001 -2.500000e+001
         vertex 1.786474e+001 2.381678e+001 -2.500000e+001
      endloop
   endfacet
   facet normal -7.837087e-001 6.211286e-001 0.000000e+000
      outer loop
         vertex 1.906547e+001 2.526821e+001 2.500000e+001
         vertex 1.786474e+001 2.381678e+001 -2.500000e+001
         vertex 1.786474e+001 2.381678e+001 2.500000e+001
      endloop
   endfacet
   facet normal -8.329076e-001 5.534120e-001 0.000000e+000
      outer loop
         vertex 1.786474e+001 2.381678e+001 2.500000e+001
         vertex 1.786474e+001 2.381678e+001 -2.500000e+001
         vertex 1.685540e+001 2.222631e+001 -2.500000e+001
      endloop
   endfacet
   facet normal -8.553770e-001 5.180060e-001 0.000000e+000
      outer loop
         vertex 1.786474e+001 2.381678e+001 2.500000e+001
         vertex 1.685540e+001 2.222631e+001 -2.500000e+001
         vertex 1.685540e+001 2.222631e+001 2.500000e+001
      endloop
   endfacet
   facet normal -8.957008e-001 4.446571e-001 0.000000e+000
      outer loop
         vertex 1.685540e+001 2.222631e+001 2.500000e+001
         vertex 1.685540e+001 2.222631e+001 -2.500000e+001
         vertex 1.605335e+001 2.052187e+001 -2.500000e+001
      endloop
   endfacet
   facet normal -9.135554e-001 4.067142e-001 0.000000e+000
      outer loop
         vertex 1.685540e+001 2.222631e+001 2.500000e+001
         vertex 1.605335e+001 2.052187e+001 -2.500000e+001
         vertex 1.605335e+001 2.052187e+001 2.500000e+001
      endloop
   endfacet
   facet normal -9.443683e-001 3.288898e-001 0.000000e+000
      outer loop
         vertex 1.605335e+001 2.052187e+001 2.500000e+001
         vertex 1.605335e+001 2.052187e+001 -2.500000e+001
         vertex 1.547125e+001 1.873035e+001 -2.500000e+001
      endloop
   endfacet
   facet normal -9.573266e-001 2.890083e-001 0.000000e+000
      outer loop
         vertex 1.605335e+001 2.052187e+001 2.500000e+001
         vertex 1.547125e+001 1.873035e+001 -2.500000e+001
         vertex 1.547125e+001 1.873035e+001 2.500000e+001
      endloop
   endfacet
   facet normal -9.781425e-001 2.079357e-001 0.000000e+000
      outer loop
         vertex 1.547125e+001 1.873035e+001 2.500000e+001
         vertex 1.547125e+001 1.873035e+001 -2.500000e+001
         vertex 1.511828e+001 1.688000e+001 -2.500000e+001
      endloop
   endfacet
   facet normal -9.860001e-001 1.667446e-001 0.000000e+000
      outer loop
         vertex 1.547125e+001 1.873035e+001 2.500000e+001
         vertex 1.511828e+001 1.688000e+001 -2.500000e+001
         vertex 1.511828e+001 1.688000e+001 2.500000e+001
      endloop
   endfacet
   facet normal -9.964908e-001 8.370229e-002 0.000000e+000
      outer loop
         vertex 1.511828e+001 1.688000e+001 2.500000e+001
         vertex 1.511828e+001 1.688000e+001 -2.500000e+001
         vertex 1.500000e+001 1.500000e+001 -2.500000e+001
      endloop
   endfacet
   facet normal -9.991238e-001 4.185114e-002 0.000000e+000
      outer loop
         vertex 1.511828e+001 1.688000e+001 2.500000e+001
         vertex 1.500000e+001 1.500000e+001 -2.500000e+001
         vertex 1.500000e+001 1.500000e+001 2.500000e+001
      endloop
   endfacet
   facet normal -9.991238e-001 -4.185114e-002 0.000000e+000
      outer loop
         vertex 1.500000e+001 1.500000e+001 2.500000e+001
         vertex 1.500000e+001 1.500000e+001 -2.500000e+001
         vertex 1.511828e+001 1.312000e+001 -2.500000e+001
      endloop
   endfacet
   facet normal -9.964908e-001 -8.370229e-002 0.000000e+000
      outer loop
         vertex 1.500000e+001 1.500000e+001 2.500000e+001
         vertex 1.511828e+001 1.312000e+001 -2.500000e+001
         vertex 1.511828e+001 1.312000e+001 2.500000e+001
      endloop
   endfacet
   facet normal -9.860001e-001 -1.667446e-001 0.000000e+000
      outer loop
         vertex 1.511828e+001 1.312000e+001 2.500000e+001
         vertex 1.511828e+001 1.312000e+001 -2.500000e+001
         vertex 1.547125e+001 1.126965e+001 -2.500000e+001
      endloop
   endfacet
   facet normal -9.781425e-001 -2.079357e-001 0.000000e+000
      outer loop
         vertex 1.511828e+001 1.312000e+001 2.500000e+001
         vertex 1.547125e+001 1.126965e+001 -2.500000e+001
         vertex 1.547125e+001 1.126965e+001 2.500000e+001
      endloop
   endfacet
   facet normal -9.573266e-001 -2.890083e-001 0.000000e+000
      outer loop
         vertex 1.547125e+001 1.126965e+001 2.500000e+001
         vertex 1.547125e+001 1.126965e+001 -2.500000e+001
         vertex 1.605335e+001 9.478131e+000 -2.500000e+001
      endloop
   endfacet
   facet normal -9.443683e-001 -3.288898e-001 0.000000e+000
      outer loop
         vertex 1.547125e+001 1.126965e+001 2.500000e+001
         vertex 1.605335e+001 9.478131e+000 -2.500000e+001
         vertex 1.605335e+001 9.478131e+000 2.500000e+001
      endloop
   endfacet
   facet normal -9.135554e-001 -4.067142e-001 0.000000e+000
      outer loop
         vertex 1.605335e+001 9.478131e+000 2.500000e+001
         vertex 1.605335e+001 9.478131e+000 -2.500000e+001
         vertex 1.685540e+001 7.773695e+000 -2.500000e+001
      endloop
   endfacet
   facet normal -8.957008e-001 -4.446571e-001 0.000000e+000
      outer loop
         vertex 1.605335e+001 9.478131e+000 2.500000e+001
         vertex 1.685540e+001 7.773695e+000 -2.500000e+001
         vertex 1.685540e+001 7.773695e+000 2.500000e+001
      endloop
   endfacet
   facet normal -8.553770e-001 -5.180060e-001 0.000000e+000
      outer loop
         vertex 1.685540e+001 7.773695e+000 2.500000e+001
         vertex 1.685540e+001 7.773695e+000 -2.500000e+001
         vertex 1.786474e+001 6.183221e+000 -2.500000e+001
      endloop
   endfacet
   facet normal -8.329076e-001 -5.534120e-001 0.000000e+000
      outer loop
         vertex 1.685540e+001 7.773695e+000 2.500000e+001
         vertex 1.786474e+001 6.183221e+000 -2.500000e+001
         vertex 1.786474e+001 6.183221e+000 2.500000e+001
      endloop
   endfacet
   facet normal -7.837087e-001 -6.211286e-001 0.000000e+000
      outer loop
         vertex 1.786474e+001 6.183221e+000 2.500000e+001
         vertex 1.786474e+001 6.183221e+000 -2.500000e+001
         vertex 1.906547e+001 4.731793e+000 -2.500000e+001
      endloop
   endfacet
   facet normal -7.569790e-001 -6.534392e-001 0.000000e+000
      outer loop
         vertex 1.786474e+001 6.183221e+000 2.500000e+001
         vertex 1.906547e+001 4.731793e+000 -2.500000e+001
         vertex 1.906547e+001 4.731793e+000 2.500000e+001
      endloop
   endfacet
   facet normal -6.996809e-001 -7.144555e-001 0.000000e+000
      outer loop
         vertex 1.906547e+001 4.731793e+000 2.500000e+001
         vertex 1.906547e+001 4.731793e+000 -2.500000e+001
         vertex 2.043864e+001 3.442302e+000 -2.500000e+001
      endloop
   endfacet
   facet normal -6.691124e-001 -7.431613e-001 0.000000e+000
      outer loop
         vertex 1.906547e+001 4.731793e+000 2.500000e+001
         vertex 2.043864e+001 3.442302e+000 -2.500000e+001
         vertex 2.043864e+001 3.442302e+000 2.500000e+001
      endloop
   endfacet
   facet normal -6.046186e-001 -7.965151e-001 0.000000e+000
      outer loop
         vertex 2.043864e+001 3.442302e+000 2.500000e+001
         vertex 2.043864e+001 3.442302e+000 -2.500000e+001
         vertex 2.196260e+001 2.335081e+000 -2.500000e+001
      endloop
   endfacet
   facet normal -5.706934e-001 -8.211632e-001 0.000000e+000
      outer loop
         vertex 2.043864e+001 3.442302e+000 2.500000e+001
         vertex 2.196260e+001 2.335081e+000 -2.500000e+001
         vertex 2.196260e+001 2.335081e+000 2.500000e+001
      endloop
   endfacet
   facet normal -5.000213e-001 -8.660132e-001 0.000000e+000
      outer loop
         vertex 2.196260e+001 2.335081e+000 2.500000e+001
         vertex 2.196260e+001 2.335081e+000 -2.500000e+001
         vertex 2.361331e+001 1.427594e+000 -2.500000e+001
      endloop
   endfacet
   facet normal -4.632743e-001 -8.862150e-001 0.000000e+000
      outer loop
         vertex 2.196260e+001 2.335081e+000 2.500000e+001
         vertex 2.361331e+001 1.427594e+000 -2.500000e+001
         vertex 2.361331e+001 1.427594e+000 2.500000e+001
      endloop
   endfacet
   facet normal -3.875382e-001 -9.218537e-001 0.000000e+000
      outer loop
         vertex 2.361331e+001 1.427594e+000 2.500000e+001
         vertex 2.361331e+001 1.427594e+000 -2.500000e+001
         vertex 2.536475e+001 7.341523e-001 -2.500000e+001
      endloop
   endfacet
   facet normal -3.485490e-001 -9.372905e-001 0.000000e+000
      outer loop
         vertex 2.361331e+001 1.427594e+000 2.500000e+001
         vertex 2.536475e+001 7.341523e-001 -2.500000e+001
         vertex 2.536475e+001 7.341523e-001 2.500000e+001
      endloop
   endfacet
   facet normal -2.689435e-001 -9.631560e-001 0.000000e+000
      outer loop
         vertex 2.536475e+001 7.341523e-001 2.500000e+001
         vertex 2.536475e+001 7.341523e-001 -2.500000e+001
         vertex 2.718928e+001 2.656912e-001 -2.500000e+001
      endloop
   endfacet
   facet normal -2.283270e-001 -9.735845e-001 0.000000e+000
      outer loop
         vertex 2.536475e+001 7.341523e-001 2.500000e+001
         vertex 2.718928e+001 2.656912e-001 -2.500000e+001
         vertex 2.718928e+001 2.656912e-001 2.500000e+001
      endloop
   endfacet
   facet normal -1.461073e-001 -9.892687e-001 0.000000e+000
      outer loop
         vertex 2.718928e+001 2.656912e-001 2.500000e+001
         vertex 2.718928e+001 2.656912e-001 -2.500000e+001
         vertex 2.905814e+001 2.959907e-002 -2.500000e+001
      endloop
   endfacet
   facet normal -1.045041e-001 -9.945244e-001 0.000000e+000
      outer loop
         vertex 2.718928e+001 2.656912e-001 2.500000e+001
         vertex 2.905814e+001 2.959907e-002 -2.500000e+001
         vertex 2.905814e+001 2.959907e-002 2.500000e+001
      endloop
   endfacet
   facet normal -2.096695e-002 -9.997802e-001 0.000000e+000
      outer loop
         vertex 2.905814e+001 2.959907e-002 2.500000e+001
         vertex 2.905814e+001 2.959907e-002 -2.500000e+001
         vertex 3.094186e+001 2.959907e-002 -2.500000e+001
      endloop
   endfacet
   facet normal 2.096695e-002 -9.997802e-001 0.000000e+000
      outer loop
         vertex 2.905814e+001 2.959907e-002 2.500000e+001
         vertex 3.094186e+001 2.959907e-002 -2.500000e+001
         vertex 3.094186e+001 2.959907e-002 2.500000e+001
      endloop
   endfacet
   facet normal 1.045041e-001 -9.945244e-001 0.000000e+000
      outer loop
         vertex 3.094186e+001 2.959907e-002 2.500000e+001
         vertex 3.094186e+001 2.959907e-002 -2.500000e+001
         vertex 3.281072e+001 2.656912e-001 -2.500000e+001
      endloop
   endfacet
   facet normal 1.461073e-001 -9.892687e-001 0.000000e+000
      outer loop
         vertex 3.094186e+001 2.959907e-002 2.500000e+001
         vertex 3.281072e+001 2.656912e-001 -2.500000e+001
         vertex 3.281072e+001 2.656912e-001 2.500000e+001
      endloop
   endfacet
   facet normal 2.283270e-001 -9.735845e-001 0.000000e+000
      outer loop
         vertex 3.281072e+001 2.656912e-001 2.500000e+001
         vertex 3.281072e+001 2.656912e-001 -2.500000e+001
         vertex 3.463525e+001 7.341523e-001 -2.500000e+001
      endloop
   endfacet
   facet normal 2.689435e-001 -9.631560e-001 0.000000e+000
      outer loop
         vertex 3.281072e+001 2.656912e-001 2.500000e+001
         vertex 3.463525e+001 7.341523e-001 -2.500000e+001
         vertex 3.463525e+001 7.341523e-001 2.500000e+001
      endloop
   endfacet
   facet normal 3.485490e-001 -9.372905e-001 0.000000e+000
      outer loop
         vertex 3.463525e+001 7.341523e-001 2.500000e+001
         vertex 3.463525e+001 7.341523e-001 -2.500000e+001
         vertex 3.638669e+001 1.427594e+000 -2.500000e+001
      endloop
   endfacet
   facet normal 3.875382e-001 -9.218537e-001 0.000000e+000
      outer loop
         vertex 3.463525e+001 7.341523e-001 2.500000e+001
         vertex 3.638669e+001 1.427594e+000 -2.500000e+001
         vertex 3.638669e+001 1.427594e+000 2.500000e+001
      endloop
   endfacet
   facet normal 4.632743e-001 -8.862150e-001 0.000000e+000
      outer loop
         vertex 3.638669e+001 1.427594e+000 2.500000e+001
         vertex 3.638669e+001 1.427594e+000 -2.500000e+001
         vertex 3.803740e+001 2.335081e+000 -2.500000e+001
      endloop
   endfacet
   facet normal 5.000213e-001 -8.660132e-001 0.000000e+000
      outer loop
         vertex 3.638669e+001 1.427594e+000 2.500000e+001
         vertex 3.803740e+001 2.335081e+000 -2.500000e+001
         vertex 3.803740e+001 2.335081e+000 2.500000e+001
      endloop
   endfacet
   facet normal 5.706934e-001 -8.211632e-001 0.000000e+000
      outer loop
         vertex 3.803740e+001 2.335081e+000 2.500000e+001
         vertex 3.803740e+001 2.335081e+000 -2.500000e+001
         vertex 3.956136e+001 3.442302e+000 -2.500000e+001
      endloop
   endfacet
   facet normal 6.046186e-001 -7.965151e-001 0.000000e+000
      outer loop
         vertex 3.803740e+001 2.335081e+000 2.500000e+001
         vertex 3.956136e+001 3.442302e+000 -2.500000e+001
         vertex 3.956136e+001 3.442302e+000 2.500000e+001
      endloop
   endfacet
   facet normal 6.691124e-001 -7.431613e-001 0.000000e+000
      outer loop
         vertex 3.956136e+001 3.442302e+000 2.500000e+001
         vertex 3.956136e+001 3.442302e+000 -2.500000e+001
         vertex 4.093453e+001 4.731793e+000 -2.500000e+001
      endloop
   endfacet
   facet normal 6.996809e-001 -7.144555e-001 0.000000e+000
      outer loop
         vertex 3.956136e+001 3.442302e+000 2.500000e+001
         vertex 4.093453e+001 4.731793e+000 -2.500000e+001
         vertex 4.093453e+001 4.731793e+000 2.500000e+001
      endloop
   endfacet
   facet normal 7.569790e-001 -6.534392e-001 0.000000e+000
      outer loop
         vertex 4.093453e+001 4.731793e+000 2.500000e+001
         vertex 4.093453e+001 4.731793e+000 -2.500000e+001
         vertex 4.213525e+001 6.183221e+000 -2.500000e+001
      endloop
   endfacet
   facet normal 7.837087e-001 -6.211286e-001 0.000000e+000
      outer loop
         vertex 4.093453e+001 4.731793e+000 2.500000e+001
         vertex 4.213525e+001 6.183221e+000 -2.500000e+001
         vertex 4.213525e+001 6.183221e+000 2.500000e+001
      endloop
   endfacet
   facet normal 8.329076e-001 -5.534120e-001 0.000000e+000
      outer loop
         vertex 4.213525e+001 6.183221e+000 2.500000e+001
         vertex 4.213525e+001 6.183221e+000 -2.500000e+001
         vertex 4.314460e+001 7.773695e+000 -2.500000e+001
      endloop
   endfacet
   facet normal 8.553770e-001 -5.180060e-001 0.000000e+000
      outer loop
         vertex 4.213525e+001 6.183221e+000 2.500000e+001
         vertex 4.314460e+001 7.773695e+000 -2.500000e+001
         vertex 4.314460e+001 7.773695e+000 2.500000e+001
      endloop
   endfacet
   facet normal 8.957008e-001 -4.446571e-001 0.000000e+000
      outer loop
         vertex 4.314460e+001 7.773695e+000 2.500000e+001
         vertex 4.314460e+001 7.773695e+000 -2.500000e+001
         vertex 4.394665e+001 9.478131e+000 -2.500000e+001
      endloop
   endfacet
   facet normal 9.135554e-001 -4.067142e-001 0.000000e+000
      outer loop
         vertex 4.314460e+001 7.773695e+000 2.500000e+001
         vertex 4.394665e+001 9.478131e+000 -2.500000e+001
         vertex 4.394665e+001 9.478131e+000 2.500000e+001
      endloop
   endfacet
   facet normal 9.443683e-001 -3.288898e-001 0.000000e+000
      outer loop
         vertex 4.394665e+001 9.478131e+000 2.500000e+001
         vertex 4.394665e+001 9.478131e+000 -2.500000e+001
         vertex 4.452875e+001 1.126965e+001 -2.500000e+001
      endloop
   endfacet
   facet normal 9.573266e-001 -2.890083e-001 0.000000e+000
      outer loop
         vertex 4.394665e+001 9.478131e+000 2.500000e+001
         vertex 4.452875e+001 1.126965e+001 -2.500000e+001
         vertex 4.452875e+001 1.126965e+001 2.500000e+001
      endloop
   endfacet
   facet normal 9.781425e-001 -2.079357e-001 0.000000e+000
      outer loop
         vertex 4.452875e+001 1.126965e+001 2.500000e+001
         vertex 4.452875e+001 1.126965e+001 -2.500000e+001
         vertex 4.488172e+001 1.312000e+001 -2.500000e+001
      endloop
   endfacet
   facet normal 9.860001e-001 -1.667446e-001 0.000000e+000
      outer loop
         vertex 4.452875e+001 1.126965e+001 2.500000e+001
         vertex 4.488172e+001 1.312000e+001 -2.500000e+001
         vertex 4.488172e+001 1.312000e+001 2.500000e+001
      endloop
   endfacet
   facet normal 9.964908e-001 -8.370229e-002 0.000000e+000
      outer loop
         vertex 4.488172e+001 1.312000e+001 2.500000e+001
         vertex 4.488172e+001 1.312000e+001 -2.500000e+001
         vertex 4.500000e+001 1.500000e+001 -2.500000e+001
      endloop
   endfacet
   facet normal 9.991238e-001 -4.185114e-002 0.000000e+000
      outer loop
         vertex 4.488172e+001 1.312000e+001 2.500000e+001
         vertex 4.500000e+001 1.500000e+001 -2.500000e+001
         vertex 4.500000e+001 1.500000e+001 2.500000e+001
      endloop
   endfacet
   facet normal 9.991238e-001 4.185114e-002 0.000000e+000
      outer loop
         vertex 4.500000e+001 1.500000e+001 2.500000e+001
         vertex 4.500000e+001 1.500000e+001 -2.500000e+001
         vertex 4.488172e+001 1.688000e+001 -2.500000e+001
      endloop
   endfacet
endsolid